<svg xmlns="http://www.w3.org/2000/svg" xmlns:xlink="http://www.w3.org/1999/xlink" width="500" zoomAndPan="magnify" viewBox="0 0 375 225" height="300" preserveAspectRatio="xMidYMid meet" version="1.0"><defs><clipPath id="8c336db3bb"><path d="M 21 158 L 132 158 L 132 189.046875 L 21 189.046875 Z M 21 158 " clip-rule="nonzero"/></clipPath><clipPath id="4cf80206cf"><path d="M 26 106 L 135.402344 106 L 135.402344 137 L 26 137 Z M 26 106 " clip-rule="nonzero"/></clipPath><clipPath id="fe250c5cc0"><path d="M 26 86 L 135.402344 86 L 135.402344 125 L 26 125 Z M 26 86 " clip-rule="nonzero"/></clipPath><clipPath id="71c3f18c87"><path d="M 15.402344 88 L 125 88 L 125 120 L 15.402344 120 Z M 15.402344 88 " clip-rule="nonzero"/></clipPath><clipPath id="f301e13a38"><path d="M 15.402344 68 L 125 68 L 125 108 L 15.402344 108 Z M 15.402344 68 " clip-rule="nonzero"/></clipPath><clipPath id="c3435917ad"><path d="M 26 56 L 135.402344 56 L 135.402344 87 L 26 87 Z M 26 56 " clip-rule="nonzero"/></clipPath><clipPath id="7fc2d98c65"><path d="M 26 36.046875 L 135.402344 36.046875 L 135.402344 75 L 26 75 Z M 26 36.046875 " clip-rule="nonzero"/></clipPath></defs><rect x="-37.5" width="450" fill="#ffffff" y="-22.5" height="270" fill-opacity="1"/><rect x="-37.5" width="450" fill="#ffffff" y="-22.5" height="270" fill-opacity="1"/><rect x="-37.5" width="450" fill="#ffffff" y="-22.5" height="270" fill-opacity="1"/><rect x="-37.5" width="450" fill="#000000" y="-22.5" height="270" fill-opacity="1"/><g clip-path="url(#8c336db3bb)"><path fill="#f89e19" d="M 131.09375 169.773438 L 131.09375 158.289062 L 21.71875 158.289062 L 21.71875 169.773438 C 21.71875 180.414062 46.203125 189.039062 76.40625 189.039062 C 106.605469 189.039062 131.09375 180.414062 131.09375 169.773438 " fill-opacity="1" fill-rule="nonzero"/></g><path fill="#f5c116" d="M 76.40625 176.703125 C 46.203125 176.703125 21.71875 168.082031 21.71875 157.441406 C 21.71875 146.800781 46.203125 138.175781 76.40625 138.175781 C 106.605469 138.175781 131.09375 146.800781 131.09375 157.441406 C 131.09375 168.082031 106.605469 176.703125 76.40625 176.703125 " fill-opacity="1" fill-rule="nonzero"/><path fill="#f89e19" d="M 79.699219 164.960938 C 81.890625 164.816406 83.675781 164.457031 85.050781 163.886719 C 86.425781 163.316406 87.113281 162.640625 87.113281 161.871094 C 87.113281 161.179688 86.539062 160.582031 85.378906 160.082031 C 84.222656 159.585938 82.332031 159.195312 79.699219 158.929688 L 79.699219 164.960938 M 73.335938 148.515625 C 71.609375 148.71875 70.230469 149.070312 69.210938 149.5625 C 68.183594 150.0625 67.671875 150.605469 67.671875 151.203125 C 67.671875 151.753906 68.140625 152.257812 69.074219 152.726562 C 70.015625 153.191406 71.429688 153.574219 73.335938 153.859375 L 73.335938 148.515625 M 73.335938 164.742188 L 73.335938 158.265625 C 67.601562 157.6875 63.398438 156.816406 60.71875 155.648438 C 58.039062 154.476562 56.703125 153.058594 56.703125 151.390625 C 56.703125 149.699219 58.214844 148.277344 61.246094 147.128906 C 64.269531 145.980469 68.300781 145.320312 73.335938 145.144531 L 73.335938 143.613281 L 79.699219 143.613281 L 79.699219 145.144531 C 84.347656 145.339844 88.042969 145.898438 90.796875 146.820312 C 93.550781 147.746094 95.304688 148.976562 96.0625 150.523438 L 84.960938 151.035156 C 84.289062 149.816406 82.53125 148.992188 79.699219 148.5625 L 79.699219 154.605469 C 86.71875 155.269531 91.507812 156.144531 94.046875 157.207031 C 96.59375 158.273438 97.863281 159.644531 97.863281 161.3125 C 97.863281 163.179688 96.265625 164.75 93.066406 166.027344 C 89.855469 167.308594 85.402344 168.085938 79.699219 168.378906 L 79.699219 171.269531 L 73.335938 171.269531 L 73.335938 168.453125 C 68.269531 168.238281 64.160156 167.574219 61 166.460938 C 57.84375 165.34375 55.828125 163.777344 54.945312 161.746094 L 66.398438 161.3125 C 66.871094 162.132812 67.746094 162.847656 69.035156 163.449219 C 70.316406 164.039062 71.753906 164.476562 73.335938 164.742188 " fill-opacity="1" fill-rule="nonzero"/><path fill="#e98b1b" d="M 124.914062 177.488281 L 124.902344 177.464844 L 124.902344 167.070312 C 125.550781 166.628906 126.160156 166.183594 126.714844 165.730469 L 126.714844 176.023438 C 126.167969 176.523438 125.574219 177.011719 124.914062 177.488281 " fill-opacity="1" fill-rule="nonzero"/><path fill="#e98b1b" d="M 122.191406 179.21875 C 121.96875 179.160156 121.816406 179.070312 121.816406 178.964844 L 121.816406 168.902344 C 122.453125 168.570312 123.054688 168.222656 123.628906 167.878906 L 123.628906 178.359375 C 123.171875 178.652344 122.691406 178.9375 122.191406 179.21875 " fill-opacity="1" fill-rule="nonzero"/><path fill="#e98b1b" d="M 127.988281 174.734375 L 127.988281 164.570312 C 128.714844 163.84375 129.320312 163.09375 129.800781 162.328125 L 129.800781 171.820312 C 129.40625 172.816406 128.804688 173.792969 127.988281 174.734375 " fill-opacity="1" fill-rule="nonzero"/><path fill="#e98b1b" d="M 119.195312 180.742188 C 118.925781 180.6875 118.726562 180.585938 118.726562 180.46875 L 118.726562 170.367188 C 119.355469 170.097656 119.957031 169.816406 120.542969 169.539062 L 120.542969 180.09375 C 120.109375 180.3125 119.65625 180.53125 119.195312 180.742188 " fill-opacity="1" fill-rule="nonzero"/><path fill="#e98b1b" d="M 115.816406 182.148438 C 115.71875 182.097656 115.644531 182.039062 115.644531 181.96875 L 115.644531 171.578125 C 116.265625 171.355469 116.871094 171.121094 117.457031 170.890625 L 117.457031 181.496094 C 116.925781 181.71875 116.378906 181.9375 115.816406 182.148438 " fill-opacity="1" fill-rule="nonzero"/><path fill="#e98b1b" d="M 112.5625 183.277344 L 112.5625 172.613281 C 113.175781 172.425781 113.78125 172.222656 114.375 172.023438 L 114.375 182.675781 C 113.78125 182.882812 113.179688 183.085938 112.5625 183.277344 " fill-opacity="1" fill-rule="nonzero"/><path fill="#e98b1b" d="M 109.472656 184.183594 L 109.472656 173.507812 C 110.089844 173.34375 110.695312 173.175781 111.289062 173.003906 L 111.289062 183.667969 C 110.695312 183.847656 110.089844 184.019531 109.472656 184.183594 " fill-opacity="1" fill-rule="nonzero"/><path fill="#e98b1b" d="M 106.390625 184.980469 L 106.390625 174.277344 C 107.003906 174.132812 107.605469 173.984375 108.207031 173.832031 L 108.207031 184.527344 C 107.605469 184.679688 107.003906 184.832031 106.390625 184.980469 " fill-opacity="1" fill-rule="nonzero"/><path fill="#e98b1b" d="M 103.304688 185.648438 L 103.304688 174.9375 C 103.917969 174.816406 104.519531 174.691406 105.117188 174.5625 L 105.117188 185.261719 C 104.519531 185.398438 103.917969 185.527344 103.304688 185.648438 " fill-opacity="1" fill-rule="nonzero"/><path fill="#e98b1b" d="M 100.222656 186.234375 L 100.222656 175.511719 C 100.832031 175.40625 101.433594 175.300781 102.03125 175.183594 L 102.03125 185.90625 C 101.4375 186.019531 100.828125 186.128906 100.222656 186.234375 " fill-opacity="1" fill-rule="nonzero"/><path fill="#e98b1b" d="M 97.136719 186.730469 L 97.136719 175.992188 C 97.742188 175.90625 98.347656 175.816406 98.945312 175.714844 L 98.945312 186.441406 C 98.347656 186.539062 97.742188 186.636719 97.136719 186.730469 " fill-opacity="1" fill-rule="nonzero"/><path fill="#e98b1b" d="M 55.679688 186.730469 C 55.066406 186.636719 54.460938 186.539062 53.867188 186.441406 L 53.867188 175.714844 C 54.460938 175.816406 55.066406 175.90625 55.679688 175.992188 L 55.679688 186.730469 " fill-opacity="1" fill-rule="nonzero"/><path fill="#e98b1b" d="M 52.589844 186.234375 C 51.980469 186.128906 51.375 186.019531 50.78125 185.90625 L 50.78125 175.183594 C 51.378906 175.300781 51.980469 175.40625 52.589844 175.511719 L 52.589844 186.234375 " fill-opacity="1" fill-rule="nonzero"/><path fill="#e98b1b" d="M 49.503906 185.648438 C 48.894531 185.527344 48.289062 185.398438 47.691406 185.261719 L 47.691406 174.5625 C 48.289062 174.691406 48.894531 174.816406 49.503906 174.9375 L 49.503906 185.648438 " fill-opacity="1" fill-rule="nonzero"/><path fill="#e98b1b" d="M 46.421875 184.980469 C 45.808594 184.832031 45.203125 184.679688 44.605469 184.527344 L 44.605469 173.832031 C 45.203125 173.984375 45.808594 174.132812 46.421875 174.277344 L 46.421875 184.980469 " fill-opacity="1" fill-rule="nonzero"/><path fill="#e98b1b" d="M 43.335938 184.183594 C 42.71875 184.019531 42.117188 183.847656 41.523438 183.667969 L 41.523438 173.003906 C 42.113281 173.175781 42.722656 173.34375 43.335938 173.507812 L 43.335938 184.183594 " fill-opacity="1" fill-rule="nonzero"/><path fill="#e98b1b" d="M 71.101562 188.089844 C 70.492188 188.070312 69.894531 188.042969 69.289062 188.015625 L 69.289062 177.261719 C 69.894531 177.289062 70.492188 177.316406 71.101562 177.339844 L 71.101562 188.089844 " fill-opacity="1" fill-rule="nonzero"/><path fill="#e98b1b" d="M 68.019531 187.953125 C 67.410156 187.921875 66.804688 187.878906 66.203125 187.839844 L 66.203125 177.089844 C 66.804688 177.128906 67.410156 177.171875 68.019531 177.207031 L 68.019531 187.953125 " fill-opacity="1" fill-rule="nonzero"/><path fill="#e98b1b" d="M 74.1875 188.167969 C 73.582031 188.15625 72.976562 188.140625 72.375 188.125 L 72.375 177.371094 C 72.976562 177.386719 73.582031 177.398438 74.1875 177.410156 L 74.1875 188.167969 " fill-opacity="1" fill-rule="nonzero"/><path fill="#e98b1b" d="M 76.40625 188.1875 C 76.089844 188.1875 75.773438 188.179688 75.460938 188.175781 L 75.460938 177.421875 C 75.773438 177.425781 76.089844 177.429688 76.40625 177.429688 C 76.695312 177.429688 76.984375 177.425781 77.269531 177.425781 L 77.269531 188.175781 C 76.984375 188.179688 76.695312 188.1875 76.40625 188.1875 " fill-opacity="1" fill-rule="nonzero"/><path fill="#e98b1b" d="M 78.546875 188.167969 L 78.546875 177.410156 C 79.152344 177.402344 79.753906 177.390625 80.359375 177.375 L 80.359375 188.128906 C 79.753906 188.144531 79.152344 188.15625 78.546875 188.167969 " fill-opacity="1" fill-rule="nonzero"/><path fill="#e98b1b" d="M 81.632812 188.09375 L 81.632812 177.34375 C 82.238281 177.320312 82.839844 177.292969 83.445312 177.265625 L 83.445312 188.019531 C 82.839844 188.042969 82.238281 188.074219 81.632812 188.09375 " fill-opacity="1" fill-rule="nonzero"/><path fill="#e98b1b" d="M 84.714844 187.957031 L 84.714844 177.210938 C 85.324219 177.175781 85.925781 177.136719 86.53125 177.09375 L 86.53125 187.84375 C 85.925781 187.886719 85.324219 187.925781 84.714844 187.957031 " fill-opacity="1" fill-rule="nonzero"/><path fill="#e98b1b" d="M 87.800781 187.753906 L 87.800781 177.007812 C 88.40625 176.964844 89.011719 176.914062 89.613281 176.863281 L 89.613281 187.609375 C 89.015625 187.660156 88.40625 187.710938 87.800781 187.753906 " fill-opacity="1" fill-rule="nonzero"/><path fill="#e98b1b" d="M 90.882812 187.484375 L 90.882812 176.742188 C 91.492188 176.683594 92.101562 176.628906 92.699219 176.5625 L 92.699219 187.296875 C 92.101562 187.367188 91.492188 187.425781 90.882812 187.484375 " fill-opacity="1" fill-rule="nonzero"/><path fill="#e98b1b" d="M 93.96875 187.144531 L 93.96875 176.410156 C 94.578125 176.335938 95.183594 176.261719 95.785156 176.179688 L 95.785156 186.917969 C 95.183594 186.996094 94.578125 187.070312 93.96875 187.144531 " fill-opacity="1" fill-rule="nonzero"/><path fill="#e98b1b" d="M 64.933594 187.75 C 64.324219 187.703125 63.722656 187.65625 63.117188 187.601562 L 63.117188 176.859375 C 63.722656 176.90625 64.324219 176.957031 64.933594 177 L 64.933594 187.75 " fill-opacity="1" fill-rule="nonzero"/><path fill="#e98b1b" d="M 61.847656 187.476562 C 61.238281 187.417969 60.632812 187.355469 60.03125 187.292969 L 60.03125 176.550781 C 60.632812 176.617188 61.238281 176.675781 61.847656 176.734375 L 61.847656 187.476562 " fill-opacity="1" fill-rule="nonzero"/><path fill="#e98b1b" d="M 58.761719 187.136719 C 58.152344 187.0625 57.550781 186.984375 56.949219 186.902344 L 56.949219 176.171875 C 57.546875 176.25 58.152344 176.328125 58.761719 176.398438 L 58.761719 187.136719 " fill-opacity="1" fill-rule="nonzero"/><path fill="#e98b1b" d="M 40.25 183.277344 C 39.632812 183.085938 39.027344 182.882812 38.433594 182.675781 L 38.433594 172.023438 C 39.027344 172.222656 39.636719 172.425781 40.25 172.613281 L 40.25 183.277344 " fill-opacity="1" fill-rule="nonzero"/><path fill="#e98b1b" d="M 36.992188 182.148438 C 36.433594 181.9375 35.882812 181.71875 35.351562 181.496094 L 35.351562 170.890625 C 35.941406 171.121094 36.542969 171.355469 37.167969 171.578125 L 37.167969 181.96875 C 37.167969 182.039062 37.09375 182.097656 36.992188 182.148438 " fill-opacity="1" fill-rule="nonzero"/><path fill="#e98b1b" d="M 33.617188 180.742188 C 33.152344 180.53125 32.703125 180.3125 32.265625 180.09375 L 32.265625 169.539062 C 32.855469 169.816406 33.453125 170.097656 34.082031 170.367188 L 34.082031 180.46875 C 34.082031 180.585938 33.882812 180.6875 33.617188 180.742188 " fill-opacity="1" fill-rule="nonzero"/><path fill="#e98b1b" d="M 30.617188 179.21875 C 30.125 178.9375 29.640625 178.652344 29.183594 178.359375 L 29.183594 167.878906 C 29.757812 168.222656 30.355469 168.570312 30.996094 168.902344 L 30.996094 178.964844 C 30.996094 179.070312 30.839844 179.160156 30.617188 179.21875 " fill-opacity="1" fill-rule="nonzero"/><path fill="#e98b1b" d="M 27.898438 177.488281 C 27.234375 177.011719 26.644531 176.523438 26.097656 176.023438 L 26.097656 165.730469 C 26.652344 166.183594 27.261719 166.628906 27.910156 167.070312 L 27.910156 177.464844 L 27.898438 177.488281 " fill-opacity="1" fill-rule="nonzero"/><path fill="#e98b1b" d="M 24.824219 174.734375 C 24.007812 173.792969 23.402344 172.820312 23.007812 171.820312 L 23.007812 162.328125 C 23.488281 163.09375 24.097656 163.84375 24.824219 164.570312 L 24.824219 174.734375 " fill-opacity="1" fill-rule="nonzero"/><path fill="#f89e19" d="M 133.234375 153.738281 L 133.234375 142.25 L 23.859375 142.25 L 23.859375 153.738281 C 23.859375 164.378906 48.34375 173.003906 78.546875 173.003906 C 108.75 173.003906 133.234375 164.378906 133.234375 153.738281 " fill-opacity="1" fill-rule="nonzero"/><path fill="#f5c116" d="M 78.546875 160.667969 C 48.34375 160.667969 23.859375 152.046875 23.859375 141.40625 C 23.859375 130.765625 48.34375 122.140625 78.546875 122.140625 C 108.75 122.140625 133.234375 130.765625 133.234375 141.40625 C 133.234375 152.046875 108.75 160.667969 78.546875 160.667969 " fill-opacity="1" fill-rule="nonzero"/><path fill="#f89e19" d="M 81.839844 148.925781 C 84.027344 148.78125 85.8125 148.421875 87.191406 147.851562 C 88.566406 147.28125 89.253906 146.605469 89.253906 145.835938 C 89.253906 145.144531 88.675781 144.546875 87.519531 144.046875 C 86.363281 143.546875 84.476562 143.160156 81.839844 142.894531 L 81.839844 148.925781 M 75.476562 132.476562 C 73.75 132.683594 72.371094 133.035156 71.351562 133.527344 C 70.324219 134.023438 69.816406 134.570312 69.816406 135.167969 C 69.816406 135.714844 70.28125 136.226562 71.21875 136.691406 C 72.15625 137.15625 73.570312 137.535156 75.476562 137.824219 L 75.476562 132.476562 M 75.476562 148.710938 L 75.476562 142.234375 C 69.742188 141.652344 65.539062 140.78125 62.855469 139.609375 C 60.183594 138.441406 58.84375 137.023438 58.84375 135.351562 C 58.84375 133.660156 60.359375 132.242188 63.382812 131.09375 C 66.40625 129.945312 70.441406 129.28125 75.476562 129.109375 L 75.476562 127.578125 L 81.839844 127.578125 L 81.839844 129.109375 C 86.488281 129.300781 90.183594 129.863281 92.941406 130.785156 C 95.691406 131.707031 97.449219 132.941406 98.203125 134.488281 L 87.101562 135 C 86.429688 133.78125 84.671875 132.957031 81.839844 132.527344 L 81.839844 138.570312 C 88.859375 139.238281 93.644531 140.109375 96.1875 141.171875 C 98.734375 142.238281 100.003906 143.605469 100.003906 145.277344 C 100.003906 147.140625 98.402344 148.714844 95.203125 149.988281 C 91.996094 151.269531 87.542969 152.054688 81.839844 152.34375 L 81.839844 155.234375 L 75.476562 155.234375 L 75.476562 152.417969 C 70.410156 152.203125 66.300781 151.542969 63.140625 150.425781 C 59.984375 149.308594 57.96875 147.738281 57.085938 145.710938 L 68.539062 145.277344 C 69.011719 146.101562 69.882812 146.8125 71.171875 147.414062 C 72.460938 148.007812 73.894531 148.441406 75.476562 148.710938 " fill-opacity="1" fill-rule="nonzero"/><path fill="#e98b1b" d="M 127.054688 161.457031 L 127.042969 161.429688 L 127.042969 151.035156 C 127.691406 150.59375 128.300781 150.148438 128.859375 149.691406 L 128.859375 159.988281 C 128.308594 160.484375 127.714844 160.976562 127.054688 161.457031 " fill-opacity="1" fill-rule="nonzero"/><path fill="#e98b1b" d="M 124.332031 163.183594 C 124.113281 163.125 123.953125 163.035156 123.953125 162.929688 L 123.953125 152.867188 C 124.59375 152.535156 125.191406 152.191406 125.769531 151.84375 L 125.769531 162.324219 C 125.3125 162.617188 124.832031 162.902344 124.332031 163.183594 " fill-opacity="1" fill-rule="nonzero"/><path fill="#e98b1b" d="M 130.128906 158.699219 L 130.128906 148.539062 C 130.855469 147.808594 131.460938 147.058594 131.9375 146.292969 L 131.9375 155.785156 C 131.546875 156.777344 130.941406 157.757812 130.128906 158.699219 " fill-opacity="1" fill-rule="nonzero"/><path fill="#e98b1b" d="M 121.335938 164.707031 C 121.066406 164.648438 120.871094 164.550781 120.871094 164.433594 L 120.871094 154.328125 C 121.5 154.058594 122.101562 153.785156 122.6875 153.5 L 122.6875 164.058594 C 122.246094 164.277344 121.800781 164.496094 121.335938 164.707031 " fill-opacity="1" fill-rule="nonzero"/><path fill="#e98b1b" d="M 117.957031 166.113281 C 117.859375 166.0625 117.789062 166.003906 117.789062 165.933594 L 117.789062 155.542969 C 118.40625 155.320312 119.011719 155.085938 119.601562 154.851562 L 119.601562 165.464844 C 119.066406 165.683594 118.519531 165.898438 117.957031 166.113281 " fill-opacity="1" fill-rule="nonzero"/><path fill="#e98b1b" d="M 114.699219 167.246094 L 114.699219 156.578125 C 115.316406 156.386719 115.925781 156.191406 116.515625 155.988281 L 116.515625 166.640625 C 115.925781 166.847656 115.320312 167.050781 114.699219 167.246094 " fill-opacity="1" fill-rule="nonzero"/><path fill="#e98b1b" d="M 111.617188 168.152344 L 111.617188 157.472656 C 112.226562 157.308594 112.835938 157.140625 113.429688 156.96875 L 113.429688 167.632812 C 112.835938 167.808594 112.230469 167.984375 111.617188 168.152344 " fill-opacity="1" fill-rule="nonzero"/><path fill="#e98b1b" d="M 108.527344 168.941406 L 108.527344 158.242188 C 109.148438 158.097656 109.746094 157.949219 110.347656 157.800781 L 110.347656 168.492188 C 109.746094 168.644531 109.148438 168.796875 108.527344 168.941406 " fill-opacity="1" fill-rule="nonzero"/><path fill="#e98b1b" d="M 105.445312 169.613281 L 105.445312 158.90625 C 106.054688 158.78125 106.664062 158.65625 107.257812 158.527344 L 107.257812 169.230469 C 106.664062 169.363281 106.054688 169.488281 105.445312 169.613281 " fill-opacity="1" fill-rule="nonzero"/><path fill="#e98b1b" d="M 102.363281 170.195312 L 102.363281 159.476562 C 102.972656 159.375 103.574219 159.261719 104.175781 159.152344 L 104.175781 169.871094 C 103.578125 169.984375 102.972656 170.089844 102.363281 170.195312 " fill-opacity="1" fill-rule="nonzero"/><path fill="#e98b1b" d="M 99.273438 170.695312 L 99.273438 159.957031 C 99.882812 159.875 100.492188 159.777344 101.085938 159.679688 L 101.085938 170.410156 C 100.492188 170.503906 99.882812 170.601562 99.273438 170.695312 " fill-opacity="1" fill-rule="nonzero"/><path fill="#e98b1b" d="M 57.816406 170.695312 C 57.207031 170.601562 56.601562 170.503906 56.007812 170.410156 L 56.007812 159.679688 C 56.601562 159.777344 57.207031 159.875 57.816406 159.957031 L 57.816406 170.695312 " fill-opacity="1" fill-rule="nonzero"/><path fill="#e98b1b" d="M 54.730469 170.195312 C 54.121094 170.089844 53.515625 169.984375 52.917969 169.871094 L 52.917969 159.152344 C 53.519531 159.261719 54.121094 159.375 54.730469 159.476562 L 54.730469 170.195312 " fill-opacity="1" fill-rule="nonzero"/><path fill="#e98b1b" d="M 51.648438 169.613281 C 51.035156 169.488281 50.429688 169.363281 49.835938 169.230469 L 49.835938 158.527344 C 50.429688 158.65625 51.035156 158.78125 51.648438 158.90625 L 51.648438 169.613281 " fill-opacity="1" fill-rule="nonzero"/><path fill="#e98b1b" d="M 48.5625 168.941406 C 47.945312 168.796875 47.34375 168.644531 46.746094 168.492188 L 46.746094 157.800781 C 47.34375 157.949219 47.945312 158.097656 48.5625 158.242188 L 48.5625 168.941406 " fill-opacity="1" fill-rule="nonzero"/><path fill="#e98b1b" d="M 45.476562 168.152344 C 44.863281 167.984375 44.253906 167.808594 43.664062 167.632812 L 43.664062 156.96875 C 44.253906 157.140625 44.863281 157.308594 45.476562 157.472656 L 45.476562 168.152344 " fill-opacity="1" fill-rule="nonzero"/><path fill="#e98b1b" d="M 73.242188 172.058594 C 72.632812 172.03125 72.03125 172.007812 71.429688 171.980469 L 71.429688 161.230469 C 72.03125 161.257812 72.632812 161.28125 73.242188 161.304688 L 73.242188 172.058594 " fill-opacity="1" fill-rule="nonzero"/><path fill="#e98b1b" d="M 70.160156 171.917969 C 69.550781 171.886719 68.949219 171.847656 68.34375 171.800781 L 68.34375 161.054688 C 68.949219 161.097656 69.550781 161.136719 70.160156 161.171875 L 70.160156 171.917969 " fill-opacity="1" fill-rule="nonzero"/><path fill="#e98b1b" d="M 76.328125 172.132812 C 75.71875 172.121094 75.117188 172.105469 74.515625 172.089844 L 74.515625 161.339844 C 75.117188 161.355469 75.71875 161.367188 76.328125 161.375 L 76.328125 172.132812 " fill-opacity="1" fill-rule="nonzero"/><path fill="#e98b1b" d="M 78.546875 172.148438 C 78.226562 172.148438 77.917969 172.140625 77.601562 172.140625 L 77.601562 161.386719 C 77.917969 161.390625 78.226562 161.398438 78.546875 161.398438 C 78.835938 161.398438 79.125 161.390625 79.414062 161.390625 L 79.414062 172.140625 C 79.125 172.140625 78.835938 172.148438 78.546875 172.148438 " fill-opacity="1" fill-rule="nonzero"/><path fill="#e98b1b" d="M 80.6875 172.132812 L 80.6875 161.375 C 81.289062 161.367188 81.898438 161.355469 82.5 161.339844 L 82.5 172.09375 C 81.898438 172.109375 81.289062 172.121094 80.6875 172.132812 " fill-opacity="1" fill-rule="nonzero"/><path fill="#e98b1b" d="M 83.769531 172.058594 L 83.769531 161.308594 C 84.378906 161.285156 84.980469 161.257812 85.582031 161.230469 L 85.582031 171.980469 C 84.980469 172.011719 84.378906 172.039062 83.769531 172.058594 " fill-opacity="1" fill-rule="nonzero"/><path fill="#e98b1b" d="M 86.859375 171.921875 L 86.859375 161.175781 C 87.46875 161.140625 88.066406 161.101562 88.671875 161.058594 L 88.671875 171.808594 C 88.066406 171.847656 87.46875 171.890625 86.859375 171.921875 " fill-opacity="1" fill-rule="nonzero"/><path fill="#e98b1b" d="M 89.941406 171.71875 L 89.941406 160.976562 C 90.550781 160.925781 91.152344 160.878906 91.753906 160.828125 L 91.753906 171.574219 C 91.15625 171.625 90.550781 171.675781 89.941406 171.71875 " fill-opacity="1" fill-rule="nonzero"/><path fill="#e98b1b" d="M 93.023438 171.449219 L 93.023438 160.707031 C 93.636719 160.648438 94.242188 160.59375 94.839844 160.523438 L 94.839844 171.261719 C 94.242188 171.332031 93.636719 171.390625 93.023438 171.449219 " fill-opacity="1" fill-rule="nonzero"/><path fill="#e98b1b" d="M 96.109375 171.109375 L 96.109375 160.375 C 96.722656 160.300781 97.328125 160.226562 97.925781 160.144531 L 97.925781 170.882812 C 97.328125 170.960938 96.722656 171.039062 96.109375 171.109375 " fill-opacity="1" fill-rule="nonzero"/><path fill="#e98b1b" d="M 67.070312 171.714844 C 66.464844 171.667969 65.859375 171.617188 65.257812 171.566406 L 65.257812 160.824219 C 65.859375 160.871094 66.464844 160.925781 67.070312 160.96875 L 67.070312 171.714844 " fill-opacity="1" fill-rule="nonzero"/><path fill="#e98b1b" d="M 63.988281 171.441406 C 63.378906 171.382812 62.777344 171.324219 62.175781 171.257812 L 62.175781 160.515625 C 62.777344 160.582031 63.378906 160.640625 63.988281 160.703125 L 63.988281 171.441406 " fill-opacity="1" fill-rule="nonzero"/><path fill="#e98b1b" d="M 60.902344 171.101562 C 60.292969 171.027344 59.6875 170.949219 59.089844 170.867188 L 59.089844 160.136719 C 59.6875 160.21875 60.292969 160.292969 60.902344 160.363281 L 60.902344 171.101562 " fill-opacity="1" fill-rule="nonzero"/><path fill="#e98b1b" d="M 42.390625 167.246094 C 41.773438 167.050781 41.167969 166.847656 40.578125 166.640625 L 40.578125 155.988281 C 41.167969 156.191406 41.773438 156.386719 42.390625 156.578125 L 42.390625 167.246094 " fill-opacity="1" fill-rule="nonzero"/><path fill="#e98b1b" d="M 39.136719 166.113281 C 38.574219 165.898438 38.027344 165.683594 37.492188 165.464844 L 37.492188 154.851562 C 38.082031 155.085938 38.6875 155.320312 39.304688 155.542969 L 39.304688 165.933594 C 39.304688 166.003906 39.234375 166.0625 39.136719 166.113281 " fill-opacity="1" fill-rule="nonzero"/><path fill="#e98b1b" d="M 35.753906 164.707031 C 35.289062 164.496094 34.84375 164.277344 34.40625 164.058594 L 34.40625 153.5 C 34.992188 153.785156 35.59375 154.058594 36.222656 154.328125 L 36.222656 164.433594 C 36.222656 164.550781 36.027344 164.648438 35.753906 164.707031 " fill-opacity="1" fill-rule="nonzero"/><path fill="#e98b1b" d="M 32.757812 163.183594 C 32.261719 162.902344 31.777344 162.617188 31.324219 162.324219 L 31.324219 151.84375 C 31.898438 152.191406 32.5 152.535156 33.132812 152.867188 L 33.132812 162.929688 C 33.132812 163.035156 32.980469 163.125 32.757812 163.183594 " fill-opacity="1" fill-rule="nonzero"/><path fill="#e98b1b" d="M 30.035156 161.457031 C 29.375 160.976562 28.78125 160.484375 28.234375 159.988281 L 28.234375 149.691406 C 28.792969 150.148438 29.402344 150.59375 30.050781 151.035156 L 30.050781 161.429688 L 30.035156 161.457031 " fill-opacity="1" fill-rule="nonzero"/><path fill="#e98b1b" d="M 26.964844 158.699219 C 26.148438 157.757812 25.542969 156.785156 25.152344 155.785156 L 25.152344 146.886719 C 25.398438 147.042969 25.652344 147.203125 25.910156 147.359375 C 26.226562 147.757812 26.578125 148.152344 26.964844 148.539062 L 26.964844 158.699219 " fill-opacity="1" fill-rule="nonzero"/><path fill="#f89e19" d="M 127.929688 137.703125 L 127.929688 126.214844 L 18.554688 126.214844 L 18.554688 137.703125 C 18.554688 148.347656 43.042969 156.96875 73.242188 156.96875 C 103.445312 156.96875 127.929688 148.347656 127.929688 137.703125 " fill-opacity="1" fill-rule="nonzero"/><path fill="#f5c116" d="M 73.242188 144.632812 C 43.042969 144.632812 18.554688 136.007812 18.554688 125.371094 C 18.554688 114.730469 43.042969 106.105469 73.242188 106.105469 C 103.445312 106.105469 127.929688 114.730469 127.929688 125.371094 C 127.929688 136.007812 103.445312 144.632812 73.242188 144.632812 " fill-opacity="1" fill-rule="nonzero"/><path fill="#f89e19" d="M 76.535156 132.890625 C 78.726562 132.742188 80.511719 132.390625 81.890625 131.816406 C 83.261719 131.246094 83.945312 130.570312 83.945312 129.796875 C 83.945312 129.109375 83.371094 128.511719 82.214844 128.015625 C 81.058594 127.515625 79.171875 127.125 76.535156 126.859375 L 76.535156 132.890625 M 70.171875 116.441406 C 68.445312 116.648438 67.070312 117 66.046875 117.492188 C 65.023438 117.988281 64.507812 118.535156 64.507812 119.132812 C 64.507812 119.683594 64.980469 120.1875 65.914062 120.652344 C 66.851562 121.125 68.265625 121.503906 70.171875 121.789062 L 70.171875 116.441406 M 70.171875 132.671875 L 70.171875 126.195312 C 64.4375 125.617188 60.234375 124.75 57.554688 123.578125 C 54.878906 122.40625 53.539062 120.988281 53.539062 119.316406 C 53.539062 117.628906 55.054688 116.207031 58.082031 115.054688 C 61.105469 113.910156 65.140625 113.246094 70.171875 113.074219 L 70.171875 111.542969 L 76.535156 111.542969 L 76.535156 113.074219 C 81.183594 113.269531 84.882812 113.824219 87.636719 114.75 C 90.390625 115.671875 92.140625 116.90625 92.898438 118.453125 L 81.800781 118.964844 C 81.125 117.742188 79.367188 116.917969 76.535156 116.492188 L 76.535156 122.535156 C 83.554688 123.199219 88.34375 124.070312 90.882812 125.136719 C 93.429688 126.203125 94.699219 127.570312 94.699219 129.242188 C 94.699219 131.109375 93.101562 132.675781 89.902344 133.953125 C 86.691406 135.234375 82.238281 136.015625 76.535156 136.308594 L 76.535156 139.195312 L 70.171875 139.195312 L 70.171875 136.386719 C 65.109375 136.167969 60.996094 135.503906 57.835938 134.390625 C 54.679688 133.277344 52.664062 131.703125 51.785156 129.671875 L 63.238281 129.242188 C 63.707031 130.066406 64.582031 130.773438 65.871094 131.375 C 67.15625 131.96875 68.59375 132.402344 70.171875 132.671875 " fill-opacity="1" fill-rule="nonzero"/><path fill="#e98b1b" d="M 121.75 145.417969 L 121.738281 145.394531 L 121.738281 135 C 122.386719 134.558594 122.996094 134.113281 123.550781 133.65625 L 123.550781 143.953125 C 123.007812 144.449219 122.410156 144.941406 121.75 145.417969 " fill-opacity="1" fill-rule="nonzero"/><path fill="#e98b1b" d="M 119.03125 147.148438 C 118.808594 147.085938 118.652344 147 118.652344 146.898438 L 118.652344 136.832031 C 119.292969 136.5 119.890625 136.15625 120.46875 135.808594 L 120.46875 146.289062 C 120.011719 146.582031 119.527344 146.867188 119.03125 147.148438 " fill-opacity="1" fill-rule="nonzero"/><path fill="#e98b1b" d="M 124.824219 142.664062 L 124.824219 132.5 C 125.554688 131.769531 126.160156 131.023438 126.636719 130.257812 L 126.636719 139.75 C 126.242188 140.746094 125.640625 141.722656 124.824219 142.664062 " fill-opacity="1" fill-rule="nonzero"/><path fill="#e98b1b" d="M 116.03125 148.671875 C 115.761719 148.613281 115.566406 148.515625 115.566406 148.398438 L 115.566406 138.292969 C 116.195312 138.023438 116.796875 137.746094 117.378906 137.464844 L 117.378906 148.023438 C 116.945312 148.242188 116.496094 148.460938 116.03125 148.671875 " fill-opacity="1" fill-rule="nonzero"/><path fill="#e98b1b" d="M 112.652344 150.074219 C 112.554688 150.023438 112.480469 149.964844 112.480469 149.898438 L 112.480469 139.507812 C 113.105469 139.28125 113.707031 139.054688 114.296875 138.820312 L 114.296875 149.425781 C 113.761719 149.648438 113.210938 149.867188 112.652344 150.074219 " fill-opacity="1" fill-rule="nonzero"/><path fill="#e98b1b" d="M 109.398438 151.210938 L 109.398438 140.542969 C 110.015625 140.355469 110.617188 140.15625 111.210938 139.953125 L 111.210938 150.605469 C 110.617188 150.8125 110.015625 151.015625 109.398438 151.210938 " fill-opacity="1" fill-rule="nonzero"/><path fill="#e98b1b" d="M 106.3125 152.117188 L 106.3125 141.4375 C 106.925781 141.273438 107.535156 141.109375 108.125 140.933594 L 108.125 151.597656 C 107.53125 151.773438 106.925781 151.945312 106.3125 152.117188 " fill-opacity="1" fill-rule="nonzero"/><path fill="#e98b1b" d="M 103.226562 152.90625 L 103.226562 142.207031 C 103.839844 142.0625 104.441406 141.914062 105.039062 141.765625 L 105.039062 152.457031 C 104.441406 152.609375 103.839844 152.761719 103.226562 152.90625 " fill-opacity="1" fill-rule="nonzero"/><path fill="#e98b1b" d="M 100.140625 153.574219 L 100.140625 142.867188 C 100.75 142.746094 101.359375 142.621094 101.953125 142.492188 L 101.953125 153.191406 C 101.359375 153.328125 100.75 153.457031 100.140625 153.574219 " fill-opacity="1" fill-rule="nonzero"/><path fill="#e98b1b" d="M 97.058594 154.164062 L 97.058594 143.445312 C 97.667969 143.335938 98.269531 143.226562 98.871094 143.113281 L 98.871094 153.835938 C 98.277344 153.949219 97.664062 154.058594 97.058594 154.164062 " fill-opacity="1" fill-rule="nonzero"/><path fill="#e98b1b" d="M 93.96875 154.65625 L 93.96875 143.921875 C 94.582031 143.835938 95.183594 143.742188 95.785156 143.648438 L 95.785156 154.375 C 95.183594 154.472656 94.582031 154.566406 93.96875 154.65625 " fill-opacity="1" fill-rule="nonzero"/><path fill="#e98b1b" d="M 52.515625 154.65625 C 51.90625 154.566406 51.296875 154.472656 50.703125 154.375 L 50.703125 143.648438 C 51.296875 143.742188 51.90625 143.835938 52.515625 143.921875 L 52.515625 154.65625 " fill-opacity="1" fill-rule="nonzero"/><path fill="#e98b1b" d="M 49.429688 154.164062 C 48.820312 154.058594 48.210938 153.949219 47.613281 153.835938 L 47.613281 143.113281 C 48.214844 143.226562 48.816406 143.335938 49.429688 143.445312 L 49.429688 154.164062 " fill-opacity="1" fill-rule="nonzero"/><path fill="#e98b1b" d="M 46.34375 153.574219 C 45.730469 153.457031 45.128906 153.328125 44.53125 153.191406 L 44.53125 142.492188 C 45.128906 142.621094 45.730469 142.746094 46.34375 142.867188 L 46.34375 153.574219 " fill-opacity="1" fill-rule="nonzero"/><path fill="#e98b1b" d="M 43.257812 152.90625 C 42.640625 152.761719 42.039062 152.609375 41.445312 152.457031 L 41.445312 141.765625 C 42.039062 141.914062 42.640625 142.0625 43.257812 142.207031 L 43.257812 152.90625 " fill-opacity="1" fill-rule="nonzero"/><path fill="#e98b1b" d="M 40.175781 152.117188 C 39.558594 151.945312 38.953125 151.773438 38.359375 151.597656 L 38.359375 140.933594 C 38.953125 141.109375 39.558594 141.273438 40.175781 141.4375 L 40.175781 152.117188 " fill-opacity="1" fill-rule="nonzero"/><path fill="#e98b1b" d="M 67.9375 156.023438 C 67.332031 156 66.730469 155.972656 66.125 155.945312 L 66.125 145.195312 C 66.730469 145.21875 67.332031 145.246094 67.9375 145.269531 L 67.9375 156.023438 " fill-opacity="1" fill-rule="nonzero"/><path fill="#e98b1b" d="M 64.855469 155.882812 C 64.246094 155.851562 63.644531 155.8125 63.042969 155.769531 L 63.042969 145.019531 C 63.644531 145.058594 64.246094 145.097656 64.855469 145.136719 L 64.855469 155.882812 " fill-opacity="1" fill-rule="nonzero"/><path fill="#e98b1b" d="M 71.023438 156.09375 C 70.417969 156.089844 69.816406 156.070312 69.214844 156.054688 L 69.214844 145.300781 C 69.816406 145.320312 70.417969 145.332031 71.023438 145.339844 L 71.023438 156.09375 " fill-opacity="1" fill-rule="nonzero"/><path fill="#e98b1b" d="M 73.242188 156.113281 C 72.925781 156.113281 72.609375 156.105469 72.296875 156.105469 L 72.296875 145.347656 C 72.609375 145.351562 72.925781 145.363281 73.242188 145.363281 C 73.535156 145.363281 73.820312 145.355469 74.109375 145.351562 L 74.109375 156.105469 C 73.820312 156.105469 73.535156 156.113281 73.242188 156.113281 " fill-opacity="1" fill-rule="nonzero"/><path fill="#e98b1b" d="M 75.382812 156.09375 L 75.382812 145.339844 C 75.988281 145.335938 76.59375 145.324219 77.195312 145.304688 L 77.195312 156.054688 C 76.59375 156.074219 75.988281 156.089844 75.382812 156.09375 " fill-opacity="1" fill-rule="nonzero"/><path fill="#e98b1b" d="M 78.46875 156.023438 L 78.46875 145.269531 C 79.074219 145.25 79.679688 145.222656 80.28125 145.195312 L 80.28125 155.949219 C 79.679688 155.972656 79.074219 156.003906 78.46875 156.023438 " fill-opacity="1" fill-rule="nonzero"/><path fill="#e98b1b" d="M 81.550781 155.886719 L 81.550781 145.136719 C 82.160156 145.105469 82.761719 145.066406 83.363281 145.027344 L 83.363281 155.773438 C 82.761719 155.8125 82.160156 155.855469 81.550781 155.886719 " fill-opacity="1" fill-rule="nonzero"/><path fill="#e98b1b" d="M 84.636719 155.683594 L 84.636719 144.9375 C 85.246094 144.894531 85.851562 144.84375 86.449219 144.792969 L 86.449219 155.539062 C 85.855469 155.589844 85.246094 155.640625 84.636719 155.683594 " fill-opacity="1" fill-rule="nonzero"/><path fill="#e98b1b" d="M 87.722656 155.417969 L 87.722656 144.671875 C 88.328125 144.613281 88.9375 144.554688 89.535156 144.492188 L 89.535156 155.226562 C 88.9375 155.296875 88.328125 155.355469 87.722656 155.417969 " fill-opacity="1" fill-rule="nonzero"/><path fill="#e98b1b" d="M 90.804688 155.078125 L 90.804688 144.339844 C 91.417969 144.265625 92.023438 144.191406 92.621094 144.109375 L 92.621094 154.847656 C 92.023438 154.929688 91.417969 155.003906 90.804688 155.078125 " fill-opacity="1" fill-rule="nonzero"/><path fill="#e98b1b" d="M 61.769531 155.679688 C 61.164062 155.632812 60.558594 155.585938 59.953125 155.53125 L 59.953125 144.785156 C 60.558594 144.835938 61.164062 144.886719 61.769531 144.933594 L 61.769531 155.679688 " fill-opacity="1" fill-rule="nonzero"/><path fill="#e98b1b" d="M 58.683594 155.40625 C 58.078125 155.351562 57.46875 155.289062 56.871094 155.21875 L 56.871094 144.480469 C 57.46875 144.546875 58.078125 144.605469 58.683594 144.664062 L 58.683594 155.40625 " fill-opacity="1" fill-rule="nonzero"/><path fill="#e98b1b" d="M 55.597656 155.066406 C 54.988281 154.992188 54.386719 154.914062 53.785156 154.835938 L 53.785156 144.097656 C 54.382812 144.183594 54.988281 144.257812 55.597656 144.332031 L 55.597656 155.066406 " fill-opacity="1" fill-rule="nonzero"/><path fill="#e98b1b" d="M 37.085938 151.210938 C 36.46875 151.015625 35.863281 150.8125 35.273438 150.605469 L 35.273438 139.953125 C 35.863281 140.15625 36.472656 140.355469 37.085938 140.542969 L 37.085938 151.210938 " fill-opacity="1" fill-rule="nonzero"/><path fill="#e98b1b" d="M 33.835938 150.074219 C 33.269531 149.867188 32.71875 149.648438 32.191406 149.425781 L 32.191406 138.820312 C 32.78125 139.054688 33.378906 139.28125 34.003906 139.507812 L 34.003906 149.898438 C 34.003906 149.964844 33.929688 150.023438 33.835938 150.074219 " fill-opacity="1" fill-rule="nonzero"/><path fill="#e98b1b" d="M 30.453125 148.671875 C 29.984375 148.460938 29.542969 148.242188 29.105469 148.023438 L 29.105469 137.464844 C 29.6875 137.746094 30.289062 138.023438 30.917969 138.292969 L 30.917969 148.398438 C 30.917969 148.515625 30.722656 148.613281 30.453125 148.671875 " fill-opacity="1" fill-rule="nonzero"/><path fill="#e98b1b" d="M 27.457031 147.148438 C 26.957031 146.867188 26.476562 146.582031 26.019531 146.289062 L 26.019531 135.808594 C 26.597656 136.15625 27.191406 136.5 27.832031 136.832031 L 27.832031 146.898438 C 27.832031 147 27.675781 147.085938 27.457031 147.148438 " fill-opacity="1" fill-rule="nonzero"/><path fill="#e98b1b" d="M 24.734375 145.417969 C 24.074219 144.941406 23.476562 144.449219 22.933594 143.953125 L 22.933594 133.65625 C 23.488281 134.113281 24.097656 134.558594 24.746094 135 L 24.746094 145.394531 L 24.734375 145.417969 " fill-opacity="1" fill-rule="nonzero"/><path fill="#e98b1b" d="M 21.660156 142.664062 C 20.847656 141.722656 20.242188 140.746094 19.847656 139.75 L 19.847656 130.257812 C 20.324219 131.023438 20.933594 131.769531 21.660156 132.5 L 21.660156 142.664062 " fill-opacity="1" fill-rule="nonzero"/><g clip-path="url(#4cf80206cf)"><path fill="#f89e19" d="M 135.375 117.707031 L 135.375 106.222656 L 26 106.222656 L 26 117.707031 C 26 128.351562 50.484375 136.972656 80.6875 136.972656 C 110.886719 136.972656 135.375 128.351562 135.375 117.707031 " fill-opacity="1" fill-rule="nonzero"/></g><g clip-path="url(#fe250c5cc0)"><path fill="#f5c116" d="M 80.6875 124.640625 C 50.484375 124.640625 26 116.011719 26 105.375 C 26 94.734375 50.484375 86.113281 80.6875 86.113281 C 110.886719 86.113281 135.375 94.734375 135.375 105.375 C 135.375 116.011719 110.886719 124.640625 80.6875 124.640625 " fill-opacity="1" fill-rule="nonzero"/></g><path fill="#f89e19" d="M 83.980469 112.898438 C 86.167969 112.75 87.957031 112.394531 89.335938 111.820312 C 90.707031 111.246094 91.394531 110.574219 91.394531 109.804688 C 91.394531 109.113281 90.820312 108.519531 89.660156 108.019531 C 88.503906 107.519531 86.617188 107.132812 83.980469 106.863281 L 83.980469 112.898438 M 77.613281 96.449219 C 75.890625 96.652344 74.511719 97.003906 73.492188 97.496094 C 72.46875 97.996094 71.953125 98.542969 71.953125 99.136719 C 71.953125 99.683594 72.421875 100.191406 73.359375 100.660156 C 74.296875 101.128906 75.710938 101.507812 77.613281 101.792969 L 77.613281 96.449219 M 77.613281 112.679688 L 77.613281 106.199219 C 71.878906 105.621094 67.679688 104.753906 64.996094 103.582031 C 62.324219 102.414062 60.984375 100.992188 60.984375 99.324219 C 60.984375 97.632812 62.5 96.210938 65.527344 95.0625 C 68.550781 93.914062 72.582031 93.253906 77.613281 93.078125 L 77.613281 91.546875 L 83.980469 91.546875 L 83.980469 93.078125 C 88.628906 93.273438 92.324219 93.835938 95.078125 94.757812 C 97.832031 95.675781 99.589844 96.910156 100.34375 98.460938 L 89.246094 98.96875 C 88.574219 97.75 86.8125 96.929688 83.980469 96.496094 L 83.980469 102.539062 C 91 103.203125 95.785156 104.078125 98.328125 105.144531 C 100.875 106.210938 102.144531 107.578125 102.144531 109.246094 C 102.144531 111.113281 100.542969 112.679688 97.347656 113.957031 C 94.136719 115.242188 89.683594 116.019531 83.980469 116.3125 L 83.980469 119.203125 L 77.613281 119.203125 L 77.613281 116.390625 C 72.554688 116.171875 68.441406 115.507812 65.28125 114.394531 C 62.125 113.28125 60.109375 111.710938 59.230469 109.679688 L 70.679688 109.246094 C 71.152344 110.070312 72.027344 110.78125 73.316406 111.378906 C 74.597656 111.972656 76.035156 112.414062 77.613281 112.679688 " fill-opacity="1" fill-rule="nonzero"/><path fill="#e98b1b" d="M 129.195312 125.425781 L 129.179688 125.398438 L 129.179688 115.003906 C 129.828125 114.5625 130.441406 114.117188 130.996094 113.664062 L 130.996094 123.957031 C 130.449219 124.457031 129.855469 124.949219 129.195312 125.425781 " fill-opacity="1" fill-rule="nonzero"/><path fill="#e98b1b" d="M 126.472656 127.15625 C 126.253906 127.09375 126.097656 127.003906 126.097656 126.902344 L 126.097656 116.835938 C 126.734375 116.507812 127.335938 116.160156 127.914062 115.8125 L 127.914062 126.292969 C 127.453125 126.582031 126.972656 126.871094 126.472656 127.15625 " fill-opacity="1" fill-rule="nonzero"/><path fill="#e98b1b" d="M 132.269531 122.667969 L 132.269531 112.503906 C 132.996094 111.773438 133.601562 111.027344 134.078125 110.261719 L 134.078125 119.753906 C 133.6875 120.753906 133.082031 121.726562 132.269531 122.667969 " fill-opacity="1" fill-rule="nonzero"/><path fill="#e98b1b" d="M 123.476562 128.675781 C 123.207031 128.621094 123.011719 128.523438 123.011719 128.402344 L 123.011719 118.300781 C 123.636719 118.027344 124.238281 117.75 124.828125 117.472656 L 124.828125 128.03125 C 124.386719 128.25 123.9375 128.464844 123.476562 128.675781 " fill-opacity="1" fill-rule="nonzero"/><path fill="#e98b1b" d="M 120.097656 130.082031 C 119.996094 130.03125 119.925781 129.972656 119.925781 129.902344 L 119.925781 119.511719 C 120.546875 119.289062 121.152344 119.058594 121.738281 118.820312 L 121.738281 129.433594 C 121.203125 129.652344 120.660156 129.871094 120.097656 130.082031 " fill-opacity="1" fill-rule="nonzero"/><path fill="#e98b1b" d="M 116.84375 131.214844 L 116.84375 120.546875 C 117.457031 120.359375 118.066406 120.160156 118.65625 119.957031 L 118.65625 130.609375 C 118.066406 130.816406 117.457031 131.019531 116.84375 131.214844 " fill-opacity="1" fill-rule="nonzero"/><path fill="#e98b1b" d="M 113.753906 132.121094 L 113.753906 121.445312 C 114.371094 121.277344 114.976562 121.109375 115.566406 120.9375 L 115.566406 131.605469 C 114.972656 131.78125 114.375 131.949219 113.753906 132.121094 " fill-opacity="1" fill-rule="nonzero"/><path fill="#e98b1b" d="M 110.667969 132.914062 L 110.667969 122.210938 C 111.285156 122.070312 111.886719 121.917969 112.484375 121.769531 L 112.484375 132.460938 C 111.886719 132.613281 111.285156 132.769531 110.667969 132.914062 " fill-opacity="1" fill-rule="nonzero"/><path fill="#e98b1b" d="M 107.585938 133.582031 L 107.585938 122.875 C 108.199219 122.75 108.800781 122.625 109.398438 122.496094 L 109.398438 133.199219 C 108.800781 133.335938 108.199219 133.460938 107.585938 133.582031 " fill-opacity="1" fill-rule="nonzero"/><path fill="#e98b1b" d="M 104.5 134.167969 L 104.5 123.449219 C 105.113281 123.339844 105.714844 123.230469 106.3125 123.117188 L 106.3125 133.839844 C 105.71875 133.953125 105.109375 134.0625 104.5 134.167969 " fill-opacity="1" fill-rule="nonzero"/><path fill="#e98b1b" d="M 101.414062 134.664062 L 101.414062 123.925781 C 102.023438 123.839844 102.628906 123.75 103.230469 123.652344 L 103.230469 134.378906 C 102.628906 134.476562 102.023438 134.570312 101.414062 134.664062 " fill-opacity="1" fill-rule="nonzero"/><path fill="#e98b1b" d="M 59.957031 134.664062 C 59.347656 134.570312 58.746094 134.476562 58.140625 134.378906 L 58.140625 123.652344 C 58.746094 123.75 59.347656 123.839844 59.957031 123.925781 L 59.957031 134.664062 " fill-opacity="1" fill-rule="nonzero"/><path fill="#e98b1b" d="M 56.871094 134.167969 C 56.261719 134.0625 55.65625 133.953125 55.058594 133.839844 L 55.058594 123.117188 C 55.660156 123.230469 56.261719 123.339844 56.871094 123.449219 L 56.871094 134.167969 " fill-opacity="1" fill-rule="nonzero"/><path fill="#e98b1b" d="M 53.789062 133.582031 C 53.171875 133.460938 52.574219 133.335938 51.972656 133.199219 L 51.972656 122.496094 C 52.574219 122.625 53.171875 122.75 53.789062 122.875 L 53.789062 133.582031 " fill-opacity="1" fill-rule="nonzero"/><path fill="#e98b1b" d="M 50.703125 132.914062 C 50.089844 132.769531 49.484375 132.613281 48.886719 132.460938 L 48.886719 121.769531 C 49.484375 121.917969 50.089844 122.070312 50.703125 122.210938 L 50.703125 132.914062 " fill-opacity="1" fill-rule="nonzero"/><path fill="#e98b1b" d="M 47.617188 132.121094 C 47 131.949219 46.398438 131.78125 45.804688 131.605469 L 45.804688 120.9375 C 46.394531 121.109375 47.003906 121.277344 47.617188 121.445312 L 47.617188 132.121094 " fill-opacity="1" fill-rule="nonzero"/><path fill="#e98b1b" d="M 75.382812 136.027344 C 74.773438 136.003906 74.175781 135.976562 73.570312 135.949219 L 73.570312 125.199219 C 74.175781 125.226562 74.773438 125.253906 75.382812 125.273438 L 75.382812 136.027344 " fill-opacity="1" fill-rule="nonzero"/><path fill="#e98b1b" d="M 72.296875 135.886719 C 71.691406 135.855469 71.085938 135.816406 70.488281 135.773438 L 70.488281 125.027344 C 71.085938 125.066406 71.691406 125.109375 72.296875 125.144531 L 72.296875 135.886719 " fill-opacity="1" fill-rule="nonzero"/><path fill="#e98b1b" d="M 78.46875 136.101562 C 77.859375 136.09375 77.257812 136.078125 76.65625 136.058594 L 76.65625 125.308594 C 77.257812 125.324219 77.859375 125.335938 78.46875 125.347656 L 78.46875 136.101562 " fill-opacity="1" fill-rule="nonzero"/><path fill="#e98b1b" d="M 80.6875 136.121094 C 80.371094 136.121094 80.058594 136.113281 79.738281 136.109375 L 79.738281 125.355469 C 80.058594 125.359375 80.371094 125.367188 80.6875 125.367188 C 80.976562 125.367188 81.265625 125.363281 81.550781 125.359375 L 81.550781 136.109375 C 81.265625 136.113281 80.976562 136.121094 80.6875 136.121094 " fill-opacity="1" fill-rule="nonzero"/><path fill="#e98b1b" d="M 82.828125 136.101562 L 82.828125 125.347656 C 83.433594 125.339844 84.035156 125.328125 84.640625 125.3125 L 84.640625 136.0625 C 84.035156 136.078125 83.433594 136.09375 82.828125 136.101562 " fill-opacity="1" fill-rule="nonzero"/><path fill="#e98b1b" d="M 85.910156 136.027344 L 85.910156 125.277344 C 86.519531 125.257812 87.121094 125.230469 87.722656 125.199219 L 87.722656 135.953125 C 87.121094 135.976562 86.519531 136.007812 85.910156 136.027344 " fill-opacity="1" fill-rule="nonzero"/><path fill="#e98b1b" d="M 88.996094 135.890625 L 88.996094 125.144531 C 89.605469 125.113281 90.207031 125.070312 90.808594 125.03125 L 90.808594 135.777344 C 90.207031 135.820312 89.605469 135.863281 88.996094 135.890625 " fill-opacity="1" fill-rule="nonzero"/><path fill="#e98b1b" d="M 92.082031 135.6875 L 92.082031 124.945312 C 92.691406 124.898438 93.292969 124.847656 93.894531 124.796875 L 93.894531 135.542969 C 93.296875 135.59375 92.691406 135.640625 92.082031 135.6875 " fill-opacity="1" fill-rule="nonzero"/><path fill="#e98b1b" d="M 95.167969 135.421875 L 95.167969 124.675781 C 95.773438 124.621094 96.386719 124.5625 96.980469 124.496094 L 96.980469 135.234375 C 96.386719 135.300781 95.773438 135.359375 95.167969 135.421875 " fill-opacity="1" fill-rule="nonzero"/><path fill="#e98b1b" d="M 98.253906 135.082031 L 98.253906 124.347656 C 98.863281 124.269531 99.464844 124.195312 100.0625 124.117188 L 100.0625 134.851562 C 99.464844 134.933594 98.863281 135.007812 98.253906 135.082031 " fill-opacity="1" fill-rule="nonzero"/><path fill="#e98b1b" d="M 69.214844 135.683594 C 68.605469 135.632812 68 135.589844 67.398438 135.535156 L 67.398438 124.789062 C 68 124.84375 68.605469 124.890625 69.214844 124.9375 L 69.214844 135.683594 " fill-opacity="1" fill-rule="nonzero"/><path fill="#e98b1b" d="M 66.128906 135.414062 C 65.519531 135.351562 64.914062 135.292969 64.316406 135.226562 L 64.316406 124.484375 C 64.914062 124.554688 65.519531 124.609375 66.128906 124.671875 L 66.128906 135.414062 " fill-opacity="1" fill-rule="nonzero"/><path fill="#e98b1b" d="M 63.042969 135.070312 C 62.433594 135 61.832031 134.921875 61.230469 134.835938 L 61.230469 124.105469 C 61.832031 124.1875 62.433594 124.261719 63.042969 124.335938 L 63.042969 135.070312 " fill-opacity="1" fill-rule="nonzero"/><path fill="#e98b1b" d="M 44.53125 131.214844 C 43.914062 131.019531 43.308594 130.816406 42.71875 130.609375 L 42.71875 119.957031 C 43.308594 120.160156 43.914062 120.359375 44.53125 120.546875 L 44.53125 131.214844 " fill-opacity="1" fill-rule="nonzero"/><path fill="#e98b1b" d="M 41.277344 130.082031 C 40.714844 129.871094 40.167969 129.652344 39.636719 129.433594 L 39.636719 118.820312 C 40.222656 119.058594 40.828125 119.289062 41.445312 119.511719 L 41.445312 129.902344 C 41.445312 129.972656 41.375 130.03125 41.277344 130.082031 " fill-opacity="1" fill-rule="nonzero"/><path fill="#e98b1b" d="M 37.898438 128.675781 C 37.433594 128.464844 36.984375 128.25 36.546875 128.03125 L 36.546875 117.472656 C 37.132812 117.75 37.738281 118.027344 38.359375 118.300781 L 38.359375 128.402344 C 38.359375 128.523438 38.167969 128.621094 37.898438 128.675781 " fill-opacity="1" fill-rule="nonzero"/><path fill="#e98b1b" d="M 34.898438 127.15625 C 34.402344 126.871094 33.917969 126.582031 33.460938 126.292969 L 33.460938 115.8125 C 34.039062 116.160156 34.640625 116.507812 35.277344 116.835938 L 35.277344 126.902344 C 35.277344 127.003906 35.121094 127.09375 34.898438 127.15625 " fill-opacity="1" fill-rule="nonzero"/><path fill="#e98b1b" d="M 32.175781 125.425781 C 31.515625 124.949219 30.921875 124.457031 30.375 123.957031 L 30.375 113.664062 C 30.929688 114.117188 31.542969 114.5625 32.195312 115.003906 L 32.195312 125.398438 L 32.175781 125.425781 " fill-opacity="1" fill-rule="nonzero"/><path fill="#e98b1b" d="M 29.105469 122.667969 C 28.289062 121.726562 27.683594 120.753906 27.289062 119.753906 L 27.289062 112.261719 C 27.878906 112.523438 28.484375 112.777344 29.105469 113.023438 L 29.105469 122.667969 " fill-opacity="1" fill-rule="nonzero"/><g clip-path="url(#71c3f18c87)"><path fill="#f89e19" d="M 124.808594 100.28125 L 124.808594 88.792969 L 15.433594 88.792969 L 15.433594 100.28125 C 15.433594 110.921875 39.917969 119.542969 70.121094 119.542969 C 100.324219 119.542969 124.808594 110.921875 124.808594 100.28125 " fill-opacity="1" fill-rule="nonzero"/></g><g clip-path="url(#f301e13a38)"><path fill="#f5c116" d="M 70.121094 107.210938 C 39.917969 107.210938 15.433594 98.585938 15.433594 87.949219 C 15.433594 77.304688 39.917969 68.683594 70.121094 68.683594 C 100.324219 68.683594 124.808594 77.304688 124.808594 87.949219 C 124.808594 98.585938 100.324219 107.210938 70.121094 107.210938 " fill-opacity="1" fill-rule="nonzero"/></g><path fill="#f89e19" d="M 73.414062 95.46875 C 75.601562 95.320312 77.386719 94.964844 78.765625 94.394531 C 80.136719 93.820312 80.828125 93.144531 80.828125 92.375 C 80.828125 91.6875 80.25 91.089844 79.09375 90.589844 C 77.933594 90.089844 76.050781 89.703125 73.414062 89.4375 L 73.414062 95.46875 M 67.046875 79.019531 C 65.320312 79.226562 63.945312 79.574219 62.925781 80.066406 C 61.898438 80.566406 61.386719 81.109375 61.386719 81.710938 C 61.386719 82.257812 61.855469 82.761719 62.789062 83.234375 C 63.726562 83.699219 65.144531 84.078125 67.046875 84.367188 L 67.046875 79.019531 M 67.046875 95.25 L 67.046875 88.773438 C 61.3125 88.195312 57.109375 87.324219 54.429688 86.152344 C 51.757812 84.988281 50.414062 83.5625 50.414062 81.898438 C 50.414062 80.203125 51.929688 78.785156 54.957031 77.636719 C 57.984375 76.484375 62.015625 75.824219 67.046875 75.648438 L 67.046875 74.121094 L 73.414062 74.121094 L 73.414062 75.648438 C 78.058594 75.84375 81.757812 76.40625 84.511719 77.328125 C 87.265625 78.25 89.019531 79.480469 89.777344 81.03125 L 78.675781 81.539062 C 78.003906 80.324219 76.242188 79.5 73.414062 79.066406 L 73.414062 85.109375 C 80.433594 85.777344 85.222656 86.648438 87.761719 87.714844 C 90.308594 88.78125 91.578125 90.152344 91.578125 91.816406 C 91.578125 93.683594 89.976562 95.257812 86.777344 96.535156 C 83.566406 97.8125 79.113281 98.59375 73.414062 98.882812 L 73.414062 101.773438 L 67.046875 101.773438 L 67.046875 98.960938 C 61.988281 98.742188 57.871094 98.078125 54.714844 96.96875 C 51.554688 95.851562 49.542969 94.28125 48.660156 92.25 L 60.113281 91.816406 C 60.585938 92.640625 61.457031 93.351562 62.746094 93.953125 C 64.03125 94.546875 65.464844 94.984375 67.046875 95.25 " fill-opacity="1" fill-rule="nonzero"/><path fill="#e98b1b" d="M 118.628906 107.996094 L 118.613281 107.972656 L 118.613281 97.578125 C 119.261719 97.136719 119.875 96.691406 120.425781 96.234375 L 120.425781 106.527344 C 119.882812 107.03125 119.289062 107.519531 118.628906 107.996094 " fill-opacity="1" fill-rule="nonzero"/><path fill="#e98b1b" d="M 115.90625 109.726562 C 115.683594 109.664062 115.53125 109.578125 115.53125 109.472656 L 115.53125 99.40625 C 116.167969 99.074219 116.765625 98.730469 117.339844 98.382812 L 117.339844 108.867188 C 116.886719 109.15625 116.402344 109.441406 115.90625 109.726562 " fill-opacity="1" fill-rule="nonzero"/><path fill="#e98b1b" d="M 121.703125 105.242188 L 121.703125 95.078125 C 122.058594 94.71875 122.390625 94.355469 122.6875 93.988281 C 122.972656 93.773438 123.25 93.554688 123.515625 93.335938 L 123.515625 102.328125 C 123.121094 103.324219 122.515625 104.300781 121.703125 105.242188 " fill-opacity="1" fill-rule="nonzero"/><path fill="#e98b1b" d="M 112.90625 111.246094 C 112.636719 111.191406 112.445312 111.09375 112.445312 110.976562 L 112.445312 100.871094 C 113.070312 100.601562 113.671875 100.324219 114.257812 100.042969 L 114.257812 110.601562 C 113.820312 110.820312 113.371094 111.035156 112.90625 111.246094 " fill-opacity="1" fill-rule="nonzero"/><path fill="#e98b1b" d="M 109.53125 112.65625 C 109.429688 112.601562 109.355469 112.542969 109.355469 112.476562 L 109.355469 102.082031 C 109.980469 101.863281 110.582031 101.628906 111.171875 101.394531 L 111.171875 112.003906 C 110.640625 112.226562 110.089844 112.441406 109.53125 112.65625 " fill-opacity="1" fill-rule="nonzero"/><path fill="#e98b1b" d="M 106.273438 113.785156 L 106.273438 103.121094 C 106.890625 102.929688 107.496094 102.738281 108.089844 102.53125 L 108.089844 113.183594 C 107.496094 113.390625 106.890625 113.589844 106.273438 113.785156 " fill-opacity="1" fill-rule="nonzero"/><path fill="#e98b1b" d="M 103.1875 114.691406 L 103.1875 104.015625 C 103.804688 103.847656 104.410156 103.683594 105.003906 103.511719 L 105.003906 114.175781 C 104.40625 114.351562 103.804688 114.523438 103.1875 114.691406 " fill-opacity="1" fill-rule="nonzero"/><path fill="#e98b1b" d="M 100.101562 115.484375 L 100.101562 104.78125 C 100.71875 104.640625 101.320312 104.492188 101.921875 104.34375 L 101.921875 115.03125 C 101.320312 115.1875 100.71875 115.335938 100.101562 115.484375 " fill-opacity="1" fill-rule="nonzero"/><path fill="#e98b1b" d="M 97.019531 116.15625 L 97.019531 105.445312 C 97.628906 105.324219 98.230469 105.199219 98.832031 105.066406 L 98.832031 115.769531 C 98.230469 115.902344 97.628906 116.03125 97.019531 116.15625 " fill-opacity="1" fill-rule="nonzero"/><path fill="#e98b1b" d="M 93.933594 116.738281 L 93.933594 106.019531 C 94.546875 105.914062 95.144531 105.808594 95.746094 105.691406 L 95.746094 116.410156 C 95.148438 116.523438 94.539062 116.632812 93.933594 116.738281 " fill-opacity="1" fill-rule="nonzero"/><path fill="#e98b1b" d="M 90.847656 117.234375 L 90.847656 106.5 C 91.457031 106.414062 92.0625 106.320312 92.660156 106.222656 L 92.660156 116.949219 C 92.0625 117.046875 91.457031 117.144531 90.847656 117.234375 " fill-opacity="1" fill-rule="nonzero"/><path fill="#e98b1b" d="M 49.390625 117.234375 C 48.777344 117.144531 48.175781 117.046875 47.578125 116.949219 L 47.578125 106.222656 C 48.175781 106.320312 48.777344 106.414062 49.390625 106.5 L 49.390625 117.234375 " fill-opacity="1" fill-rule="nonzero"/><path fill="#e98b1b" d="M 46.304688 116.738281 C 45.695312 116.632812 45.085938 116.523438 44.492188 116.410156 L 44.492188 105.691406 C 45.089844 105.808594 45.695312 105.914062 46.304688 106.019531 L 46.304688 116.738281 " fill-opacity="1" fill-rule="nonzero"/><path fill="#e98b1b" d="M 43.21875 116.15625 C 42.609375 116.03125 42.003906 115.902344 41.40625 115.769531 L 41.40625 105.066406 C 42.003906 105.199219 42.609375 105.324219 43.21875 105.445312 L 43.21875 116.15625 " fill-opacity="1" fill-rule="nonzero"/><path fill="#e98b1b" d="M 40.132812 115.484375 C 39.519531 115.335938 38.917969 115.1875 38.320312 115.03125 L 38.320312 104.34375 C 38.917969 104.492188 39.519531 104.640625 40.132812 104.78125 L 40.132812 115.484375 " fill-opacity="1" fill-rule="nonzero"/><path fill="#e98b1b" d="M 37.050781 114.691406 C 36.433594 114.523438 35.832031 114.351562 35.238281 114.175781 L 35.238281 103.511719 C 35.828125 103.683594 36.4375 103.847656 37.050781 104.015625 L 37.050781 114.691406 " fill-opacity="1" fill-rule="nonzero"/><path fill="#e98b1b" d="M 64.8125 118.597656 C 64.210938 118.578125 63.605469 118.550781 63 118.523438 L 63 107.769531 C 63.605469 107.796875 64.210938 107.824219 64.8125 107.84375 L 64.8125 118.597656 " fill-opacity="1" fill-rule="nonzero"/><path fill="#e98b1b" d="M 61.730469 118.457031 C 61.121094 118.429688 60.519531 118.390625 59.917969 118.347656 L 59.917969 107.597656 C 60.519531 107.636719 61.121094 107.679688 61.730469 107.714844 L 61.730469 118.457031 " fill-opacity="1" fill-rule="nonzero"/><path fill="#e98b1b" d="M 67.902344 118.675781 C 67.292969 118.660156 66.691406 118.648438 66.089844 118.632812 L 66.089844 107.878906 C 66.691406 107.894531 67.292969 107.90625 67.902344 107.917969 L 67.902344 118.675781 " fill-opacity="1" fill-rule="nonzero"/><path fill="#e98b1b" d="M 70.121094 118.695312 C 69.800781 118.695312 69.488281 118.6875 69.171875 118.683594 L 69.171875 107.929688 C 69.488281 107.929688 69.800781 107.9375 70.121094 107.9375 C 70.410156 107.9375 70.695312 107.933594 70.984375 107.929688 L 70.984375 118.683594 C 70.695312 118.6875 70.410156 118.695312 70.121094 118.695312 " fill-opacity="1" fill-rule="nonzero"/><path fill="#e98b1b" d="M 72.261719 118.675781 L 72.261719 107.917969 C 72.867188 107.910156 73.46875 107.898438 74.074219 107.882812 L 74.074219 118.636719 C 73.46875 118.648438 72.867188 118.660156 72.261719 118.675781 " fill-opacity="1" fill-rule="nonzero"/><path fill="#e98b1b" d="M 75.34375 118.597656 L 75.34375 107.851562 C 75.953125 107.828125 76.558594 107.796875 77.15625 107.773438 L 77.15625 118.523438 C 76.558594 118.550781 75.953125 118.582031 75.34375 118.597656 " fill-opacity="1" fill-rule="nonzero"/><path fill="#e98b1b" d="M 78.429688 118.46875 L 78.429688 107.714844 C 79.039062 107.683594 79.640625 107.640625 80.242188 107.601562 L 80.242188 118.351562 C 79.640625 118.394531 79.039062 118.433594 78.429688 118.46875 " fill-opacity="1" fill-rule="nonzero"/><path fill="#e98b1b" d="M 81.511719 118.257812 L 81.511719 107.515625 C 82.121094 107.46875 82.726562 107.421875 83.328125 107.367188 L 83.328125 118.113281 C 82.730469 118.164062 82.121094 118.214844 81.511719 118.257812 " fill-opacity="1" fill-rule="nonzero"/><path fill="#e98b1b" d="M 84.597656 117.992188 L 84.597656 107.25 C 85.207031 107.191406 85.8125 107.136719 86.414062 107.066406 L 86.414062 117.804688 C 85.8125 117.875 85.207031 117.933594 84.597656 117.992188 " fill-opacity="1" fill-rule="nonzero"/><path fill="#e98b1b" d="M 87.683594 117.652344 L 87.683594 106.917969 C 88.292969 106.84375 88.898438 106.769531 89.496094 106.6875 L 89.496094 117.421875 C 88.898438 117.503906 88.292969 117.578125 87.683594 117.652344 " fill-opacity="1" fill-rule="nonzero"/><path fill="#e98b1b" d="M 58.644531 118.257812 C 58.039062 118.207031 57.433594 118.164062 56.832031 118.109375 L 56.832031 107.363281 C 57.433594 107.414062 58.039062 107.464844 58.644531 107.507812 L 58.644531 118.257812 " fill-opacity="1" fill-rule="nonzero"/><path fill="#e98b1b" d="M 55.558594 117.984375 C 54.953125 117.925781 54.347656 117.863281 53.746094 117.796875 L 53.746094 107.054688 C 54.347656 107.125 54.953125 107.183594 55.558594 107.242188 L 55.558594 117.984375 " fill-opacity="1" fill-rule="nonzero"/><path fill="#e98b1b" d="M 52.476562 117.644531 C 51.867188 117.570312 51.265625 117.492188 50.660156 117.410156 L 50.660156 106.675781 C 51.261719 106.757812 51.867188 106.835938 52.476562 106.910156 L 52.476562 117.644531 " fill-opacity="1" fill-rule="nonzero"/><path fill="#e98b1b" d="M 33.964844 113.785156 C 33.34375 113.589844 32.742188 113.390625 32.148438 113.183594 L 32.148438 102.53125 C 32.742188 102.738281 33.347656 102.929688 33.964844 103.121094 L 33.964844 113.785156 " fill-opacity="1" fill-rule="nonzero"/><path fill="#e98b1b" d="M 30.710938 112.65625 C 30.148438 112.441406 29.597656 112.226562 29.066406 112.003906 L 29.066406 101.394531 C 29.652344 101.628906 30.257812 101.863281 30.878906 102.082031 L 30.878906 112.476562 C 30.878906 112.542969 30.808594 112.601562 30.710938 112.65625 " fill-opacity="1" fill-rule="nonzero"/><path fill="#e98b1b" d="M 27.328125 111.246094 C 26.867188 111.035156 26.414062 110.820312 25.980469 110.601562 L 25.980469 100.042969 C 26.566406 100.324219 27.167969 100.601562 27.796875 100.871094 L 27.796875 110.976562 C 27.796875 111.09375 27.601562 111.191406 27.328125 111.246094 " fill-opacity="1" fill-rule="nonzero"/><path fill="#e98b1b" d="M 24.332031 109.726562 C 23.835938 109.441406 23.347656 109.15625 22.894531 108.867188 L 22.894531 98.382812 C 23.472656 98.730469 24.070312 99.074219 24.707031 99.40625 L 24.707031 109.472656 C 24.707031 109.578125 24.550781 109.664062 24.332031 109.726562 " fill-opacity="1" fill-rule="nonzero"/><path fill="#e98b1b" d="M 21.609375 107.996094 C 20.949219 107.519531 20.355469 107.03125 19.808594 106.527344 L 19.808594 96.234375 C 20.363281 96.691406 20.976562 97.136719 21.625 97.578125 L 21.625 107.972656 L 21.609375 107.996094 " fill-opacity="1" fill-rule="nonzero"/><path fill="#e98b1b" d="M 18.539062 105.242188 C 17.722656 104.300781 17.117188 103.324219 16.726562 102.328125 L 16.726562 92.835938 C 17.203125 93.597656 17.808594 94.347656 18.539062 95.078125 L 18.539062 105.242188 " fill-opacity="1" fill-rule="nonzero"/><path fill="#f89e19" d="M 127.851562 85.804688 L 127.851562 74.316406 L 18.480469 74.316406 L 18.480469 85.804688 C 18.480469 96.441406 42.964844 105.066406 73.167969 105.066406 C 103.367188 105.066406 127.851562 96.441406 127.851562 85.804688 " fill-opacity="1" fill-rule="nonzero"/><path fill="#f5c116" d="M 73.167969 92.730469 C 42.964844 92.730469 18.480469 84.109375 18.480469 73.472656 C 18.480469 62.828125 42.964844 54.203125 73.167969 54.203125 C 103.367188 54.203125 127.851562 62.828125 127.851562 73.472656 C 127.851562 84.109375 103.367188 92.730469 73.167969 92.730469 " fill-opacity="1" fill-rule="nonzero"/><path fill="#f89e19" d="M 76.460938 80.988281 C 78.652344 80.84375 80.433594 80.488281 81.8125 79.917969 C 83.183594 79.347656 83.875 78.671875 83.875 77.898438 C 83.875 77.207031 83.296875 76.613281 82.140625 76.113281 C 80.980469 75.613281 79.097656 75.226562 76.460938 74.960938 L 76.460938 80.988281 M 70.09375 64.542969 C 68.371094 64.75 66.992188 65.097656 65.972656 65.589844 C 64.949219 66.089844 64.433594 66.632812 64.433594 67.234375 C 64.433594 67.78125 64.902344 68.285156 65.835938 68.753906 C 66.773438 69.222656 68.191406 69.601562 70.09375 69.890625 L 70.09375 64.542969 M 70.09375 80.777344 L 70.09375 74.296875 C 64.359375 73.71875 60.15625 72.847656 57.476562 71.675781 C 54.804688 70.507812 53.460938 69.089844 53.460938 67.417969 C 53.460938 65.726562 54.980469 64.308594 58.007812 63.160156 C 61.03125 62.011719 65.0625 61.347656 70.09375 61.171875 L 70.09375 59.640625 L 76.460938 59.640625 L 76.460938 61.171875 C 81.109375 61.367188 84.804688 61.925781 87.558594 62.847656 C 90.3125 63.773438 92.066406 65.003906 92.824219 66.550781 L 81.726562 67.066406 C 81.050781 65.84375 79.292969 65.023438 76.460938 64.589844 L 76.460938 70.632812 C 83.480469 71.300781 88.265625 72.171875 90.804688 73.238281 C 93.351562 74.304688 94.625 75.671875 94.625 77.339844 C 94.625 79.207031 93.023438 80.777344 89.828125 82.054688 C 86.617188 83.335938 82.160156 84.117188 76.460938 84.40625 L 76.460938 87.296875 L 70.09375 87.296875 L 70.09375 84.484375 C 65.03125 84.265625 60.921875 83.601562 57.761719 82.488281 C 54.601562 81.375 52.589844 79.804688 51.710938 77.773438 L 63.160156 77.339844 C 63.628906 78.164062 64.503906 78.875 65.792969 79.476562 C 67.078125 80.070312 68.511719 80.503906 70.09375 80.777344 " fill-opacity="1" fill-rule="nonzero"/><path fill="#e98b1b" d="M 121.675781 93.519531 L 121.660156 93.496094 L 121.660156 83.097656 C 122.308594 82.660156 122.921875 82.210938 123.476562 81.757812 L 123.476562 92.054688 C 122.929688 92.550781 122.335938 93.039062 121.675781 93.519531 " fill-opacity="1" fill-rule="nonzero"/><path fill="#e98b1b" d="M 118.953125 95.246094 C 118.734375 95.191406 118.578125 95.097656 118.578125 94.996094 L 118.578125 84.933594 C 119.214844 84.597656 119.816406 84.253906 120.390625 83.90625 L 120.390625 94.390625 C 119.933594 94.683594 119.453125 94.96875 118.953125 95.246094 " fill-opacity="1" fill-rule="nonzero"/><path fill="#e98b1b" d="M 124.746094 90.765625 L 124.746094 80.601562 C 125.476562 79.871094 126.082031 79.121094 126.5625 78.355469 L 126.5625 87.847656 C 126.167969 88.84375 125.5625 89.820312 124.746094 90.765625 " fill-opacity="1" fill-rule="nonzero"/><path fill="#e98b1b" d="M 115.957031 96.773438 C 115.683594 96.710938 115.488281 96.617188 115.488281 96.5 L 115.488281 86.394531 C 116.117188 86.125 116.71875 85.847656 117.304688 85.5625 L 117.304688 96.121094 C 116.867188 96.34375 116.417969 96.558594 115.957031 96.773438 " fill-opacity="1" fill-rule="nonzero"/><path fill="#e98b1b" d="M 112.578125 98.179688 C 112.480469 98.125 112.40625 98.066406 112.40625 98 L 112.40625 87.609375 C 113.027344 87.382812 113.628906 87.152344 114.21875 86.917969 L 114.21875 97.527344 C 113.683594 97.75 113.136719 97.964844 112.578125 98.179688 " fill-opacity="1" fill-rule="nonzero"/><path fill="#e98b1b" d="M 109.324219 99.304688 L 109.324219 88.640625 C 109.9375 88.453125 110.542969 88.257812 111.136719 88.050781 L 111.136719 98.703125 C 110.542969 98.910156 109.941406 99.113281 109.324219 99.304688 " fill-opacity="1" fill-rule="nonzero"/><path fill="#e98b1b" d="M 106.234375 100.214844 L 106.234375 89.535156 C 106.847656 89.371094 107.457031 89.207031 108.046875 89.03125 L 108.046875 99.699219 C 107.453125 99.875 106.851562 100.046875 106.234375 100.214844 " fill-opacity="1" fill-rule="nonzero"/><path fill="#e98b1b" d="M 103.148438 101.007812 L 103.148438 90.304688 C 103.765625 90.164062 104.367188 90.011719 104.964844 89.863281 L 104.964844 100.554688 C 104.367188 100.707031 103.765625 100.859375 103.148438 101.007812 " fill-opacity="1" fill-rule="nonzero"/><path fill="#e98b1b" d="M 100.0625 101.675781 L 100.0625 90.96875 C 100.675781 90.84375 101.28125 90.722656 101.878906 90.589844 L 101.878906 101.292969 C 101.28125 101.429688 100.675781 101.554688 100.0625 101.675781 " fill-opacity="1" fill-rule="nonzero"/><path fill="#e98b1b" d="M 96.980469 102.261719 L 96.980469 91.542969 C 97.59375 91.4375 98.191406 91.328125 98.792969 91.214844 L 98.792969 101.933594 C 98.199219 102.046875 97.59375 102.15625 96.980469 102.261719 " fill-opacity="1" fill-rule="nonzero"/><path fill="#e98b1b" d="M 93.894531 102.757812 L 93.894531 92.023438 C 94.503906 91.9375 95.109375 91.84375 95.710938 91.746094 L 95.710938 102.476562 C 95.109375 102.570312 94.503906 102.667969 93.894531 102.757812 " fill-opacity="1" fill-rule="nonzero"/><path fill="#e98b1b" d="M 52.4375 102.757812 C 51.828125 102.667969 51.222656 102.570312 50.625 102.476562 L 50.625 91.746094 C 51.222656 91.84375 51.828125 91.9375 52.4375 92.023438 L 52.4375 102.757812 " fill-opacity="1" fill-rule="nonzero"/><path fill="#e98b1b" d="M 49.351562 102.261719 C 48.742188 102.15625 48.132812 102.046875 47.539062 101.933594 L 47.539062 91.214844 C 48.136719 91.328125 48.742188 91.4375 49.351562 91.542969 L 49.351562 102.261719 " fill-opacity="1" fill-rule="nonzero"/><path fill="#e98b1b" d="M 46.269531 101.675781 C 45.65625 101.554688 45.050781 101.429688 44.457031 101.292969 L 44.457031 90.589844 C 45.050781 90.722656 45.65625 90.84375 46.269531 90.96875 L 46.269531 101.675781 " fill-opacity="1" fill-rule="nonzero"/><path fill="#e98b1b" d="M 43.183594 101.007812 C 42.566406 100.859375 41.964844 100.707031 41.367188 100.554688 L 41.367188 89.863281 C 41.964844 90.011719 42.566406 90.164062 43.183594 90.304688 L 43.183594 101.007812 " fill-opacity="1" fill-rule="nonzero"/><path fill="#e98b1b" d="M 40.097656 100.214844 C 39.480469 100.046875 38.878906 99.875 38.285156 99.699219 L 38.285156 89.03125 C 38.875 89.207031 39.484375 89.371094 40.097656 89.535156 L 40.097656 100.214844 " fill-opacity="1" fill-rule="nonzero"/><path fill="#e98b1b" d="M 67.863281 104.121094 C 67.257812 104.097656 66.652344 104.070312 66.050781 104.046875 L 66.050781 93.292969 C 66.652344 93.316406 67.257812 93.347656 67.863281 93.367188 L 67.863281 104.121094 " fill-opacity="1" fill-rule="nonzero"/><path fill="#e98b1b" d="M 64.78125 103.984375 C 64.171875 103.949219 63.566406 103.914062 62.964844 103.867188 L 62.964844 93.121094 C 63.566406 93.15625 64.171875 93.203125 64.78125 93.234375 L 64.78125 103.984375 " fill-opacity="1" fill-rule="nonzero"/><path fill="#e98b1b" d="M 70.949219 104.195312 C 70.339844 104.183594 69.738281 104.167969 69.136719 104.15625 L 69.136719 93.402344 C 69.738281 93.417969 70.339844 93.433594 70.949219 93.4375 L 70.949219 104.195312 " fill-opacity="1" fill-rule="nonzero"/><path fill="#e98b1b" d="M 73.167969 104.214844 C 72.851562 104.214844 72.539062 104.207031 72.21875 104.207031 L 72.21875 93.449219 C 72.539062 93.453125 72.851562 93.460938 73.167969 93.460938 C 73.457031 93.460938 73.746094 93.457031 74.035156 93.453125 L 74.035156 104.207031 C 73.746094 104.207031 73.457031 104.214844 73.167969 104.214844 " fill-opacity="1" fill-rule="nonzero"/><path fill="#e98b1b" d="M 75.304688 104.195312 L 75.304688 93.4375 C 75.914062 93.4375 76.515625 93.421875 77.121094 93.402344 L 77.121094 104.15625 C 76.515625 104.171875 75.914062 104.183594 75.304688 104.195312 " fill-opacity="1" fill-rule="nonzero"/><path fill="#e98b1b" d="M 78.390625 104.125 L 78.390625 93.371094 C 78.996094 93.347656 79.601562 93.324219 80.203125 93.296875 L 80.203125 104.046875 C 79.601562 104.074219 78.996094 104.105469 78.390625 104.125 " fill-opacity="1" fill-rule="nonzero"/><path fill="#e98b1b" d="M 81.476562 103.988281 L 81.476562 93.238281 C 82.085938 93.203125 82.691406 93.164062 83.289062 93.125 L 83.289062 103.875 C 82.691406 103.914062 82.085938 103.957031 81.476562 103.988281 " fill-opacity="1" fill-rule="nonzero"/><path fill="#e98b1b" d="M 84.5625 103.78125 L 84.5625 93.039062 C 85.167969 92.992188 85.773438 92.941406 86.375 92.894531 L 86.375 103.636719 C 85.777344 103.691406 85.167969 103.738281 84.5625 103.78125 " fill-opacity="1" fill-rule="nonzero"/><path fill="#e98b1b" d="M 87.644531 103.515625 L 87.644531 92.773438 C 88.253906 92.710938 88.863281 92.65625 89.460938 92.589844 L 89.460938 103.324219 C 88.863281 103.394531 88.253906 103.457031 87.644531 103.515625 " fill-opacity="1" fill-rule="nonzero"/><path fill="#e98b1b" d="M 90.734375 103.175781 L 90.734375 92.441406 C 91.339844 92.367188 91.945312 92.289062 92.542969 92.207031 L 92.542969 102.949219 C 91.945312 103.027344 91.339844 103.101562 90.734375 103.175781 " fill-opacity="1" fill-rule="nonzero"/><path fill="#e98b1b" d="M 61.691406 103.777344 C 61.085938 103.734375 60.480469 103.683594 59.878906 103.632812 L 59.878906 92.886719 C 60.480469 92.9375 61.085938 92.988281 61.691406 93.03125 L 61.691406 103.777344 " fill-opacity="1" fill-rule="nonzero"/><path fill="#e98b1b" d="M 58.605469 103.507812 C 58 103.449219 57.390625 103.386719 56.796875 103.320312 L 56.796875 92.582031 C 57.390625 92.648438 58 92.703125 58.605469 92.765625 L 58.605469 103.507812 " fill-opacity="1" fill-rule="nonzero"/><path fill="#e98b1b" d="M 55.523438 103.167969 C 54.914062 103.09375 54.3125 103.011719 53.707031 102.933594 L 53.707031 92.203125 C 54.308594 92.28125 54.914062 92.355469 55.523438 92.429688 L 55.523438 103.167969 " fill-opacity="1" fill-rule="nonzero"/><path fill="#e98b1b" d="M 37.007812 99.304688 C 36.390625 99.113281 35.785156 98.910156 35.195312 98.703125 L 35.195312 88.050781 C 35.785156 88.257812 36.394531 88.453125 37.007812 88.640625 L 37.007812 99.304688 " fill-opacity="1" fill-rule="nonzero"/><path fill="#e98b1b" d="M 33.753906 98.179688 C 33.191406 97.964844 32.644531 97.75 32.113281 97.527344 L 32.113281 86.917969 C 32.699219 87.152344 33.304688 87.382812 33.925781 87.609375 L 33.925781 98 C 33.925781 98.066406 33.855469 98.125 33.753906 98.179688 " fill-opacity="1" fill-rule="nonzero"/><path fill="#e98b1b" d="M 30.375 96.773438 C 29.910156 96.558594 29.464844 96.34375 29.027344 96.121094 L 29.027344 85.5625 C 29.613281 85.847656 30.214844 86.125 30.839844 86.394531 L 30.839844 96.5 C 30.839844 96.617188 30.648438 96.710938 30.375 96.773438 " fill-opacity="1" fill-rule="nonzero"/><path fill="#e98b1b" d="M 27.378906 95.246094 C 26.878906 94.96875 26.398438 94.683594 25.941406 94.390625 L 25.941406 83.90625 C 26.519531 84.253906 27.117188 84.597656 27.753906 84.933594 L 27.753906 94.996094 C 27.753906 95.097656 27.601562 95.191406 27.378906 95.246094 " fill-opacity="1" fill-rule="nonzero"/><path fill="#e98b1b" d="M 24.65625 93.519531 C 24 93.039062 23.402344 92.550781 22.855469 92.054688 L 22.855469 81.757812 C 23.410156 82.210938 24.023438 82.660156 24.671875 83.097656 L 24.671875 93.496094 L 24.65625 93.519531 " fill-opacity="1" fill-rule="nonzero"/><path fill="#e98b1b" d="M 21.585938 90.765625 C 20.769531 89.820312 20.164062 88.847656 19.773438 87.847656 L 19.773438 78.355469 C 20.25 79.121094 20.855469 79.871094 21.585938 80.601562 L 21.585938 90.765625 " fill-opacity="1" fill-rule="nonzero"/><g clip-path="url(#c3435917ad)"><path fill="#f89e19" d="M 135.375 67.652344 L 135.375 56.164062 L 26 56.164062 L 26 67.652344 C 26 78.292969 50.484375 86.917969 80.6875 86.917969 C 110.886719 86.917969 135.375 78.292969 135.375 67.652344 " fill-opacity="1" fill-rule="nonzero"/></g><g clip-path="url(#7fc2d98c65)"><path fill="#f5c116" d="M 80.6875 74.582031 C 50.484375 74.582031 26 65.957031 26 55.320312 C 26 44.679688 50.484375 36.054688 80.6875 36.054688 C 110.886719 36.054688 135.375 44.679688 135.375 55.320312 C 135.375 65.957031 110.886719 74.582031 80.6875 74.582031 " fill-opacity="1" fill-rule="nonzero"/></g><path fill="#f89e19" d="M 83.980469 62.839844 C 86.167969 62.695312 87.957031 62.335938 89.335938 61.765625 C 90.707031 61.195312 91.394531 60.519531 91.394531 59.746094 C 91.394531 59.058594 90.820312 58.460938 89.660156 57.964844 C 88.503906 57.460938 86.617188 57.074219 83.980469 56.808594 Z M 77.613281 46.394531 C 75.890625 46.597656 74.511719 46.949219 73.492188 47.441406 C 72.46875 47.9375 71.953125 48.480469 71.953125 49.082031 C 71.953125 49.632812 72.421875 50.136719 73.359375 50.601562 C 74.296875 51.074219 75.710938 51.453125 77.613281 51.738281 Z M 77.613281 62.625 L 77.613281 56.144531 C 71.878906 55.566406 67.679688 54.695312 64.996094 53.523438 C 62.324219 52.355469 60.984375 50.9375 60.984375 49.265625 C 60.984375 47.578125 62.5 46.15625 65.527344 45.003906 C 68.550781 43.859375 72.582031 43.195312 77.613281 43.019531 L 77.613281 41.492188 L 83.980469 41.492188 L 83.980469 43.019531 C 88.628906 43.214844 92.324219 43.777344 95.078125 44.699219 C 97.832031 45.617188 99.589844 46.855469 100.34375 48.398438 L 89.246094 48.914062 C 88.574219 47.691406 86.8125 46.871094 83.980469 46.441406 L 83.980469 52.480469 C 91 53.152344 95.785156 54.019531 98.328125 55.085938 C 100.875 56.152344 102.144531 57.519531 102.144531 59.191406 C 102.144531 61.058594 100.542969 62.625 97.347656 63.902344 C 94.136719 65.183594 89.683594 65.964844 83.980469 66.257812 L 83.980469 69.144531 L 77.613281 69.144531 L 77.613281 66.332031 C 72.554688 66.117188 68.441406 65.453125 65.28125 64.335938 C 62.125 63.222656 60.109375 61.652344 59.230469 59.625 L 70.679688 59.191406 C 71.152344 60.015625 72.027344 60.726562 73.316406 61.324219 C 74.597656 61.921875 76.035156 62.351562 77.613281 62.625 " fill-opacity="1" fill-rule="nonzero"/><path fill="#e98b1b" d="M 129.195312 75.371094 L 129.179688 75.34375 L 129.179688 64.949219 C 129.828125 64.507812 130.441406 64.0625 130.996094 63.605469 L 130.996094 73.902344 C 130.449219 74.398438 129.855469 74.886719 129.195312 75.371094 " fill-opacity="1" fill-rule="nonzero"/><path fill="#e98b1b" d="M 126.472656 77.097656 C 126.253906 77.039062 126.097656 76.949219 126.097656 76.84375 L 126.097656 66.785156 C 126.734375 66.449219 127.335938 66.105469 127.914062 65.757812 L 127.914062 76.238281 C 127.453125 76.53125 126.972656 76.816406 126.472656 77.097656 " fill-opacity="1" fill-rule="nonzero"/><path fill="#e98b1b" d="M 132.269531 72.613281 L 132.269531 62.449219 C 132.996094 61.722656 133.601562 60.972656 134.078125 60.207031 L 134.078125 69.699219 C 133.6875 70.691406 133.082031 71.671875 132.269531 72.613281 " fill-opacity="1" fill-rule="nonzero"/><path fill="#e98b1b" d="M 123.476562 78.625 C 123.207031 78.566406 123.011719 78.464844 123.011719 78.347656 L 123.011719 68.246094 C 123.636719 67.972656 124.238281 67.699219 124.828125 67.414062 L 124.828125 77.96875 C 124.386719 78.191406 123.9375 78.40625 123.476562 78.625 " fill-opacity="1" fill-rule="nonzero"/><path fill="#e98b1b" d="M 120.097656 80.027344 C 119.996094 79.976562 119.925781 79.917969 119.925781 79.851562 L 119.925781 69.457031 C 120.546875 69.230469 121.152344 69 121.738281 68.765625 L 121.738281 79.375 C 121.203125 79.597656 120.660156 79.816406 120.097656 80.027344 " fill-opacity="1" fill-rule="nonzero"/><path fill="#e98b1b" d="M 116.84375 81.160156 L 116.84375 70.488281 C 117.457031 70.300781 118.066406 70.105469 118.65625 69.902344 L 118.65625 80.550781 C 118.066406 80.757812 117.457031 80.960938 116.84375 81.160156 " fill-opacity="1" fill-rule="nonzero"/><path fill="#e98b1b" d="M 113.753906 82.066406 L 113.753906 71.382812 C 114.371094 71.222656 114.976562 71.054688 115.566406 70.882812 L 115.566406 81.546875 C 114.972656 81.726562 114.375 81.898438 113.753906 82.066406 " fill-opacity="1" fill-rule="nonzero"/><path fill="#e98b1b" d="M 110.667969 82.855469 L 110.667969 72.15625 C 111.285156 72.007812 111.886719 71.863281 112.484375 71.710938 L 112.484375 82.402344 C 111.886719 82.558594 111.285156 82.710938 110.667969 82.855469 " fill-opacity="1" fill-rule="nonzero"/><path fill="#e98b1b" d="M 107.585938 83.527344 L 107.585938 72.816406 C 108.199219 72.695312 108.800781 72.570312 109.398438 72.4375 L 109.398438 83.140625 C 108.800781 83.277344 108.199219 83.40625 107.585938 83.527344 " fill-opacity="1" fill-rule="nonzero"/><path fill="#e98b1b" d="M 104.5 84.113281 L 104.5 73.390625 C 105.113281 73.285156 105.714844 73.175781 106.3125 73.066406 L 106.3125 83.78125 C 105.71875 83.898438 105.109375 84.007812 104.5 84.113281 " fill-opacity="1" fill-rule="nonzero"/><path fill="#e98b1b" d="M 101.414062 84.605469 L 101.414062 73.875 C 102.023438 73.785156 102.628906 73.691406 103.230469 73.597656 L 103.230469 84.324219 C 102.628906 84.417969 102.023438 84.515625 101.414062 84.605469 " fill-opacity="1" fill-rule="nonzero"/><path fill="#e98b1b" d="M 59.957031 84.605469 C 59.347656 84.515625 58.746094 84.417969 58.140625 84.324219 L 58.140625 73.597656 C 58.746094 73.691406 59.347656 73.785156 59.957031 73.875 L 59.957031 84.605469 " fill-opacity="1" fill-rule="nonzero"/><path fill="#e98b1b" d="M 56.871094 84.113281 C 56.261719 84.007812 55.65625 83.898438 55.058594 83.78125 L 55.058594 73.066406 C 55.660156 73.175781 56.261719 73.285156 56.871094 73.390625 L 56.871094 84.113281 " fill-opacity="1" fill-rule="nonzero"/><path fill="#e98b1b" d="M 53.789062 83.527344 C 53.171875 83.40625 52.574219 83.277344 51.972656 83.140625 L 51.972656 72.4375 C 52.574219 72.570312 53.171875 72.695312 53.789062 72.816406 L 53.789062 83.527344 " fill-opacity="1" fill-rule="nonzero"/><path fill="#e98b1b" d="M 50.703125 82.855469 C 50.089844 82.710938 49.484375 82.558594 48.886719 82.402344 L 48.886719 71.710938 C 49.484375 71.863281 50.089844 72.007812 50.703125 72.15625 L 50.703125 82.855469 " fill-opacity="1" fill-rule="nonzero"/><path fill="#e98b1b" d="M 47.617188 82.066406 C 47 81.898438 46.398438 81.726562 45.804688 81.546875 L 45.804688 70.882812 C 46.394531 71.054688 47.003906 71.222656 47.617188 71.382812 L 47.617188 82.066406 " fill-opacity="1" fill-rule="nonzero"/><path fill="#e98b1b" d="M 75.382812 85.96875 C 74.773438 85.945312 74.175781 85.917969 73.570312 85.894531 L 73.570312 75.140625 C 74.175781 75.171875 74.773438 75.199219 75.382812 75.21875 L 75.382812 85.96875 " fill-opacity="1" fill-rule="nonzero"/><path fill="#e98b1b" d="M 72.296875 85.832031 C 71.691406 85.800781 71.085938 85.761719 70.488281 85.722656 L 70.488281 74.96875 C 71.085938 75.007812 71.691406 75.050781 72.296875 75.085938 L 72.296875 85.832031 " fill-opacity="1" fill-rule="nonzero"/><path fill="#e98b1b" d="M 78.46875 86.042969 C 77.859375 86.035156 77.257812 86.023438 76.65625 86.003906 L 76.65625 75.253906 C 77.257812 75.269531 77.859375 75.277344 78.46875 75.292969 L 78.46875 86.042969 " fill-opacity="1" fill-rule="nonzero"/><path fill="#e98b1b" d="M 80.6875 86.0625 C 80.371094 86.0625 80.058594 86.054688 79.738281 86.054688 L 79.738281 75.300781 C 80.058594 75.300781 80.371094 75.308594 80.6875 75.308594 C 80.976562 75.308594 81.265625 75.304688 81.550781 75.300781 L 81.550781 86.054688 C 81.265625 86.054688 80.976562 86.0625 80.6875 86.0625 " fill-opacity="1" fill-rule="nonzero"/><path fill="#e98b1b" d="M 82.828125 86.042969 L 82.828125 75.292969 C 83.433594 75.28125 84.035156 75.269531 84.640625 75.257812 L 84.640625 86.007812 C 84.035156 86.023438 83.433594 86.035156 82.828125 86.042969 " fill-opacity="1" fill-rule="nonzero"/><path fill="#e98b1b" d="M 85.910156 85.972656 L 85.910156 75.222656 C 86.519531 75.199219 87.121094 75.171875 87.722656 75.144531 L 87.722656 85.898438 C 87.121094 85.925781 86.519531 85.953125 85.910156 85.972656 " fill-opacity="1" fill-rule="nonzero"/><path fill="#e98b1b" d="M 88.996094 85.835938 L 88.996094 75.089844 C 89.605469 75.054688 90.207031 75.011719 90.808594 74.972656 L 90.808594 85.726562 C 90.207031 85.761719 89.605469 85.808594 88.996094 85.835938 " fill-opacity="1" fill-rule="nonzero"/><path fill="#e98b1b" d="M 92.082031 85.632812 L 92.082031 74.886719 C 92.691406 74.839844 93.292969 74.792969 93.894531 74.742188 L 93.894531 85.488281 C 93.296875 85.539062 92.691406 85.589844 92.082031 85.632812 " fill-opacity="1" fill-rule="nonzero"/><path fill="#e98b1b" d="M 95.167969 85.363281 L 95.167969 74.621094 C 95.773438 74.5625 96.386719 74.503906 96.980469 74.441406 L 96.980469 85.179688 C 96.386719 85.246094 95.773438 85.304688 95.167969 85.363281 " fill-opacity="1" fill-rule="nonzero"/><path fill="#e98b1b" d="M 98.253906 85.027344 L 98.253906 74.289062 C 98.863281 74.214844 99.464844 74.140625 100.0625 74.0625 L 100.0625 84.796875 C 99.464844 84.875 98.863281 84.949219 98.253906 85.027344 " fill-opacity="1" fill-rule="nonzero"/><path fill="#e98b1b" d="M 69.214844 85.628906 C 68.605469 85.582031 68 85.53125 67.398438 85.480469 L 67.398438 74.734375 C 68 74.785156 68.605469 74.835938 69.214844 74.878906 L 69.214844 85.628906 " fill-opacity="1" fill-rule="nonzero"/><path fill="#e98b1b" d="M 66.128906 85.351562 C 65.519531 85.300781 64.914062 85.230469 64.316406 85.167969 L 64.316406 74.429688 C 64.914062 74.496094 65.519531 74.554688 66.128906 74.613281 L 66.128906 85.351562 " fill-opacity="1" fill-rule="nonzero"/><path fill="#e98b1b" d="M 63.042969 85.019531 C 62.433594 84.941406 61.832031 84.863281 61.230469 84.785156 L 61.230469 74.050781 C 61.832031 74.132812 62.433594 74.207031 63.042969 74.277344 L 63.042969 85.019531 " fill-opacity="1" fill-rule="nonzero"/><path fill="#e98b1b" d="M 44.53125 81.160156 C 43.914062 80.960938 43.308594 80.757812 42.71875 80.550781 L 42.71875 69.902344 C 43.308594 70.105469 43.914062 70.300781 44.53125 70.488281 L 44.53125 81.160156 " fill-opacity="1" fill-rule="nonzero"/><path fill="#e98b1b" d="M 41.277344 80.027344 C 40.714844 79.816406 40.167969 79.597656 39.636719 79.375 L 39.636719 68.765625 C 40.222656 69 40.828125 69.230469 41.445312 69.457031 L 41.445312 79.851562 C 41.445312 79.917969 41.375 79.976562 41.277344 80.027344 " fill-opacity="1" fill-rule="nonzero"/><path fill="#e98b1b" d="M 37.898438 78.625 C 37.433594 78.40625 36.984375 78.191406 36.546875 77.96875 L 36.546875 67.414062 C 37.132812 67.699219 37.738281 67.972656 38.359375 68.246094 L 38.359375 78.347656 C 38.359375 78.464844 38.167969 78.566406 37.898438 78.625 " fill-opacity="1" fill-rule="nonzero"/><path fill="#e98b1b" d="M 34.898438 77.097656 C 34.402344 76.816406 33.917969 76.53125 33.460938 76.238281 L 33.460938 65.757812 C 34.039062 66.105469 34.640625 66.449219 35.277344 66.785156 L 35.277344 76.84375 C 35.277344 76.949219 35.121094 77.039062 34.898438 77.097656 " fill-opacity="1" fill-rule="nonzero"/><path fill="#e98b1b" d="M 32.175781 75.371094 C 31.515625 74.886719 30.921875 74.398438 30.375 73.902344 L 30.375 63.605469 C 30.929688 64.0625 31.542969 64.507812 32.195312 64.949219 L 32.195312 75.34375 L 32.175781 75.371094 " fill-opacity="1" fill-rule="nonzero"/><path fill="#e98b1b" d="M 29.105469 72.613281 C 28.289062 71.671875 27.683594 70.695312 27.289062 69.699219 L 27.289062 60.207031 C 27.773438 60.972656 28.375 61.722656 29.105469 62.449219 L 29.105469 72.613281 " fill-opacity="1" fill-rule="nonzero"/><path stroke-linecap="butt" transform="matrix(0.75, 0, 0, 0.75, 80.736858, 44.6792)" fill="none" stroke-linejoin="miter" d="M 142.585237 -5.082684 L 124.621694 -5.082684 C 117.486277 -5.082684 111.736277 0.68815 111.736277 7.729817 L 111.736277 40.03711 C 111.736277 47.172527 117.486277 52.922527 124.621694 52.922527 L 142.585237 52.922527 L 142.585237 41.797527 L 124.621694 41.797527 C 123.626903 41.797527 122.861277 41.031902 122.861277 40.03711 L 122.861277 7.729817 C 122.861277 6.81315 123.626903 5.9694 124.621694 5.9694 L 142.585237 5.9694 Z M 167.350863 -4.916017 L 159.298779 -4.916017 C 152.236279 -4.916017 146.413362 0.833983 146.413362 7.9694 L 146.413362 40.188151 C 146.413362 47.323568 152.236279 53.073569 159.298779 53.073569 L 167.350863 53.073569 C 174.48628 53.073569 180.23628 47.323568 180.23628 40.188151 L 180.23628 7.9694 C 180.23628 0.833983 174.48628 -4.916017 167.350863 -4.916017 Z M 169.205029 40.188151 C 169.205029 41.182943 168.345654 41.948568 167.350863 41.948568 L 159.298779 41.948568 C 158.303987 41.948568 157.538362 41.182943 157.538362 40.188151 L 157.538362 7.9694 C 157.538362 6.958983 158.303987 6.115233 159.298779 6.115233 L 167.350863 6.115233 C 168.345654 6.115233 169.205029 6.958983 169.205029 7.9694 Z M 195.20503 -5.1556 L 184.08003 -5.1556 L 184.08003 52.922527 L 195.20503 52.922527 Z M 218.689406 -5.1556 L 218.689406 11.120442 L 210.783156 -5.1556 L 199.038364 -5.1556 L 199.038364 52.922527 L 210.168573 52.922527 L 210.168573 18.854817 L 218.689406 36.34961 L 218.689406 52.922527 L 229.793574 52.922527 L 229.793574 -5.1556 Z M 218.689406 -5.1556 " stroke="#ffffff" stroke-width="2.205867" stroke-opacity="1" stroke-miterlimit="4"/><path stroke-linecap="butt" transform="matrix(0.75, 0, 0, 0.75, 80.736858, 44.6792)" fill="none" stroke-linejoin="miter" d="M 39.632107 63.917319 L 21.668565 63.917319 C 14.533148 63.917319 8.783148 69.688153 8.783148 76.72982 L 8.783148 109.037113 C 8.783148 116.17253 14.533148 121.92253 21.668565 121.92253 L 39.632107 121.92253 L 39.632107 110.797529 L 21.668565 110.797529 C 20.673773 110.797529 19.908148 110.031904 19.908148 109.037113 L 19.908148 76.72982 C 19.908148 75.813153 20.673773 74.969403 21.668565 74.969403 L 39.632107 74.969403 Z M 64.397733 64.083986 L 56.34565 64.083986 C 49.283149 64.083986 43.460232 69.833986 43.460232 76.969403 L 43.460232 109.188154 C 43.460232 116.323571 49.283149 122.073572 56.34565 122.073572 L 64.397733 122.073572 C 71.53315 122.073572 77.283151 116.323571 77.283151 109.188154 L 77.283151 76.969403 C 77.283151 69.833986 71.53315 64.083986 64.397733 64.083986 Z M 66.2519 109.188154 C 66.2519 110.182946 65.392525 110.948571 64.397733 110.948571 L 56.34565 110.948571 C 55.350858 110.948571 54.585233 110.182946 54.585233 109.188154 L 54.585233 76.969403 C 54.585233 75.958986 55.350858 75.115236 56.34565 75.115236 L 64.397733 75.115236 C 65.392525 75.115236 66.2519 75.958986 66.2519 76.969403 Z M 81.126901 121.92253 L 111.88211 121.92253 L 111.88211 110.797529 L 92.251901 110.797529 L 92.251901 63.844402 L 81.126901 63.844402 Z M 115.725861 121.92253 L 146.48107 121.92253 L 146.48107 110.797529 L 126.850861 110.797529 L 126.850861 63.844402 L 115.725861 63.844402 Z M 181.085238 63.917319 L 150.330029 63.844402 L 150.330029 121.92253 L 181.085238 121.92253 L 181.085238 110.797529 L 161.455029 110.797529 L 161.455029 96.917321 L 174.116488 96.917321 L 174.116488 85.79232 L 161.455029 85.79232 L 161.455029 74.969403 L 181.085238 74.969403 Z M 215.777948 63.917319 L 197.814406 63.917319 C 190.678989 63.917319 184.928988 69.688153 184.928988 76.72982 L 184.928988 109.037113 C 184.928988 116.17253 190.678989 121.92253 197.814406 121.92253 L 215.777948 121.92253 L 215.777948 110.797529 L 197.814406 110.797529 C 196.819614 110.797529 196.053989 110.031904 196.053989 109.037113 L 196.053989 76.72982 C 196.053989 75.813153 196.819614 74.969403 197.814406 74.969403 L 215.777948 74.969403 Z M 219.606073 64.083986 L 219.606073 75.115236 L 234.496699 75.115236 L 234.496699 122.073572 L 245.527949 122.073572 L 245.527949 75.115236 L 260.418575 75.115236 L 260.418575 64.083986 L 245.527949 64.083986 L 245.527949 63.990236 L 234.496699 63.990236 L 234.496699 64.083986 Z M 285.194618 64.083986 L 277.142534 64.083986 C 270.080034 64.083986 264.257117 69.833986 264.257117 76.969403 L 264.257117 109.188154 C 264.257117 116.323571 270.080034 122.073572 277.142534 122.073572 L 285.194618 122.073572 C 292.330035 122.073572 298.080035 116.323571 298.080035 109.188154 L 298.080035 76.969403 C 298.080035 69.833986 292.330035 64.083986 285.194618 64.083986 Z M 287.048784 109.188154 C 287.048784 110.182946 286.189409 110.948571 285.194618 110.948571 L 277.142534 110.948571 C 276.147742 110.948571 275.382117 110.182946 275.382117 109.188154 L 275.382117 76.969403 C 275.382117 75.958986 276.147742 75.115236 277.142534 75.115236 L 285.194618 75.115236 C 286.189409 75.115236 287.048784 75.958986 287.048784 76.969403 Z M 332.00712 98.682946 C 331.928995 95.76107 330.918578 93.005862 329.158161 90.849612 C 331.460244 88.099612 332.772745 84.557945 332.772745 80.568362 C 332.772745 71.521486 326.012328 64.761069 316.496702 63.990236 L 301.923785 64.083986 L 301.923785 122.073572 L 313.048785 122.073572 L 313.048785 97.068362 L 319.116494 97.068362 C 320.111286 97.068362 320.876911 97.839196 320.876911 98.755862 L 321.027952 122.073572 L 332.080036 122.073572 Z M 314.65816 85.943362 L 313.12691 85.943362 L 313.12691 75.04232 L 314.65816 75.04232 C 315.803994 75.04232 321.647744 75.360028 321.647744 80.568362 C 321.647744 85.552737 316.345661 85.943362 314.65816 85.943362 Z M 314.65816 85.943362 " stroke="#ffffff" stroke-width="2.205867" stroke-opacity="1" stroke-miterlimit="4"/><path stroke-linecap="butt" transform="matrix(0.75, 0, 0, 0.75, 80.736858, 44.6792)" fill="none" stroke-linejoin="miter" d="M 125.543569 158.932948 C 127.527944 156.328781 128.689403 153.016281 128.689403 149.266281 C 128.689403 139.677739 121.012319 132.693364 110.574819 132.693364 L 97.767526 132.693364 L 97.767526 143.745447 L 110.574819 143.745447 C 111.720652 143.745447 117.564402 144.042322 117.564402 149.266281 C 117.564402 154.323573 112.189402 154.719406 110.574819 154.719406 L 105.668568 154.719406 L 105.668568 165.750657 L 113.871694 165.750657 C 117.715444 165.750657 120.861277 168.89649 120.861277 172.813157 C 120.861277 176.651699 117.715444 179.797532 113.871694 179.797532 L 97.767526 179.797532 L 97.767526 190.922533 L 113.871694 190.922533 C 123.856069 190.922533 131.986278 182.797532 131.986278 172.813157 C 131.986278 167.214198 129.455028 162.30274 125.543569 158.932948 Z M 156.449821 132.844405 L 148.397737 132.844405 C 141.335237 132.844405 135.51232 138.688156 135.51232 145.802739 L 135.51232 177.964199 C 135.51232 185.099616 141.335237 190.922533 148.397737 190.922533 L 156.449821 190.922533 C 163.590446 190.922533 169.413363 185.099616 169.413363 177.964199 L 169.413363 145.802739 C 169.413363 138.688156 163.590446 132.844405 156.449821 132.844405 Z M 148.397737 143.969406 L 156.449821 143.969406 C 156.449821 143.969406 156.527946 143.969406 156.527946 143.969406 L 146.63732 176.42774 L 146.63732 145.802739 C 146.63732 144.735031 147.402945 143.969406 148.397737 143.969406 Z M 156.449821 179.797532 L 149.017529 179.797532 L 158.303987 149.417323 L 158.303987 177.964199 C 158.303987 178.953782 157.444612 179.797532 156.449821 179.797532 Z M 193.814405 132.844405 L 185.762322 132.844405 C 178.699821 132.844405 172.871696 138.688156 172.871696 145.802739 L 172.871696 177.964199 C 172.871696 185.099616 178.699821 190.922533 185.762322 190.922533 L 193.814405 190.922533 C 200.949822 190.922533 206.777948 185.099616 206.777948 177.964199 L 206.777948 145.802739 C 206.777948 138.688156 200.949822 132.844405 193.814405 132.844405 Z M 185.762322 143.969406 L 193.814405 143.969406 C 193.814405 143.969406 193.887322 143.969406 193.887322 143.969406 L 183.996697 176.42774 L 183.996697 145.802739 C 183.996697 144.735031 184.76753 143.969406 185.762322 143.969406 Z M 193.814405 179.797532 L 186.376905 179.797532 L 195.668572 149.417323 L 195.668572 177.964199 C 195.668572 178.953782 194.809197 179.797532 193.814405 179.797532 Z M 231.173782 132.844405 L 223.121698 132.844405 C 216.059198 132.844405 210.236281 138.688156 210.236281 145.802739 L 210.236281 177.964199 C 210.236281 185.099616 216.059198 190.922533 223.121698 190.922533 L 231.173782 190.922533 C 238.314407 190.922533 244.137324 185.099616 244.137324 177.964199 L 244.137324 145.802739 C 244.137324 138.688156 238.314407 132.844405 231.173782 132.844405 Z M 223.121698 143.969406 L 231.173782 143.969406 C 231.173782 143.969406 231.251907 143.969406 231.251907 143.969406 L 221.361282 176.42774 L 221.361282 145.802739 C 221.361282 144.735031 222.126907 143.969406 223.121698 143.969406 Z M 231.173782 179.797532 L 223.74149 179.797532 L 233.027949 149.417323 L 233.027949 177.964199 C 233.027949 178.953782 232.168574 179.797532 231.173782 179.797532 Z M 231.173782 179.797532 " stroke="#ffffff" stroke-width="2.205867" stroke-opacity="1" stroke-miterlimit="4"/></svg>