<svg xmlns="http://www.w3.org/2000/svg" xmlns:xlink="http://www.w3.org/1999/xlink" width="500" zoomAndPan="magnify" viewBox="0 0 375 225" height="300" preserveAspectRatio="xMidYMid meet" version="1.0"><defs><g/><clipPath id="7635cbd9f0"><path d="M 134 25 L 212 25 L 212 75 L 134 75 Z M 134 25 " clip-rule="nonzero"/></clipPath><clipPath id="dc75247e2c"><path d="M 136.632812 22.5 L 213.285156 26.554688 L 210.578125 77.65625 L 133.929688 73.601562 Z M 136.632812 22.5 " clip-rule="nonzero"/></clipPath><clipPath id="6850e9ae35"><path d="M 136.632812 22.5 L 213.285156 26.554688 L 210.578125 77.65625 L 133.929688 73.601562 Z M 136.632812 22.5 " clip-rule="nonzero"/></clipPath><clipPath id="0029dc567b"><path d="M 136.632812 22.5 L 213.285156 26.554688 L 210.578125 77.65625 L 133.929688 73.601562 Z M 136.632812 22.5 " clip-rule="nonzero"/></clipPath><clipPath id="3f36ba51bb"><path d="M 136.699219 22.503906 L 213.21875 26.554688 L 210.515625 77.660156 L 133.992188 73.613281 Z M 136.699219 22.503906 " clip-rule="nonzero"/></clipPath><clipPath id="28d14b5e49"><path d="M 136.699219 22.503906 L 213.21875 26.554688 L 210.515625 77.652344 L 133.992188 73.605469 Z M 136.699219 22.503906 " clip-rule="nonzero"/></clipPath><clipPath id="cc2b69ffc5"><path d="M 186 26 L 190 26 L 190 30 L 186 30 Z M 186 26 " clip-rule="nonzero"/></clipPath><clipPath id="ccfb983b57"><path d="M 136.632812 22.5 L 213.285156 26.554688 L 210.578125 77.65625 L 133.929688 73.601562 Z M 136.632812 22.5 " clip-rule="nonzero"/></clipPath><clipPath id="ba633c65f7"><path d="M 136.632812 22.5 L 213.285156 26.554688 L 210.578125 77.65625 L 133.929688 73.601562 Z M 136.632812 22.5 " clip-rule="nonzero"/></clipPath><clipPath id="b6482d68c8"><path d="M 136.632812 22.5 L 213.285156 26.554688 L 210.578125 77.65625 L 133.929688 73.601562 Z M 136.632812 22.5 " clip-rule="nonzero"/></clipPath><clipPath id="3a760bc05a"><path d="M 190 26 L 193 26 L 193 28 L 190 28 Z M 190 26 " clip-rule="nonzero"/></clipPath><clipPath id="1e31710167"><path d="M 136.632812 22.5 L 213.285156 26.554688 L 210.578125 77.65625 L 133.929688 73.601562 Z M 136.632812 22.5 " clip-rule="nonzero"/></clipPath><clipPath id="a98ebfecc8"><path d="M 136.632812 22.5 L 213.285156 26.554688 L 210.578125 77.65625 L 133.929688 73.601562 Z M 136.632812 22.5 " clip-rule="nonzero"/></clipPath><clipPath id="ea771c0f10"><path d="M 136.632812 22.5 L 213.285156 26.554688 L 210.578125 77.65625 L 133.929688 73.601562 Z M 136.632812 22.5 " clip-rule="nonzero"/></clipPath><clipPath id="5c05521a1e"><path d="M 146 26 L 205 26 L 205 70 L 146 70 Z M 146 26 " clip-rule="nonzero"/></clipPath><clipPath id="772ab44c3d"><path d="M 136.632812 22.5 L 213.285156 26.554688 L 210.578125 77.65625 L 133.929688 73.601562 Z M 136.632812 22.5 " clip-rule="nonzero"/></clipPath><clipPath id="c1efb00e7b"><path d="M 136.632812 22.5 L 213.285156 26.554688 L 210.578125 77.65625 L 133.929688 73.601562 Z M 136.632812 22.5 " clip-rule="nonzero"/></clipPath><clipPath id="3605fc5f66"><path d="M 136.632812 22.5 L 213.285156 26.554688 L 210.578125 77.65625 L 133.929688 73.601562 Z M 136.632812 22.5 " clip-rule="nonzero"/></clipPath><clipPath id="8d77c255d1"><path d="M 169 30 L 179 30 L 179 38 L 169 38 Z M 169 30 " clip-rule="nonzero"/></clipPath><clipPath id="4dfec06cee"><path d="M 136.632812 22.5 L 213.285156 26.554688 L 210.578125 77.65625 L 133.929688 73.601562 Z M 136.632812 22.5 " clip-rule="nonzero"/></clipPath><clipPath id="82f8ae3bcf"><path d="M 136.632812 22.5 L 213.285156 26.554688 L 210.578125 77.65625 L 133.929688 73.601562 Z M 136.632812 22.5 " clip-rule="nonzero"/></clipPath><clipPath id="58abff23b8"><path d="M 136.632812 22.5 L 213.285156 26.554688 L 210.578125 77.65625 L 133.929688 73.601562 Z M 136.632812 22.5 " clip-rule="nonzero"/></clipPath><clipPath id="e6ec777efb"><path d="M 155 34 L 164 34 L 164 44 L 155 44 Z M 155 34 " clip-rule="nonzero"/></clipPath><clipPath id="e764dd8758"><path d="M 136.632812 22.5 L 213.285156 26.554688 L 210.578125 77.65625 L 133.929688 73.601562 Z M 136.632812 22.5 " clip-rule="nonzero"/></clipPath><clipPath id="0501cd6eb3"><path d="M 136.632812 22.5 L 213.285156 26.554688 L 210.578125 77.65625 L 133.929688 73.601562 Z M 136.632812 22.5 " clip-rule="nonzero"/></clipPath><clipPath id="c5fe6ba3c0"><path d="M 136.632812 22.5 L 213.285156 26.554688 L 210.578125 77.65625 L 133.929688 73.601562 Z M 136.632812 22.5 " clip-rule="nonzero"/></clipPath><clipPath id="0013151c6f"><path d="M 167 43 L 177 43 L 177 54 L 167 54 Z M 167 43 " clip-rule="nonzero"/></clipPath><clipPath id="b79afda3b6"><path d="M 136.632812 22.5 L 213.285156 26.554688 L 210.578125 77.65625 L 133.929688 73.601562 Z M 136.632812 22.5 " clip-rule="nonzero"/></clipPath><clipPath id="23ca1e7484"><path d="M 136.632812 22.5 L 213.285156 26.554688 L 210.578125 77.65625 L 133.929688 73.601562 Z M 136.632812 22.5 " clip-rule="nonzero"/></clipPath><clipPath id="76cd221bfc"><path d="M 136.632812 22.5 L 213.285156 26.554688 L 210.578125 77.65625 L 133.929688 73.601562 Z M 136.632812 22.5 " clip-rule="nonzero"/></clipPath><clipPath id="796160c2b0"><path d="M 175 46 L 177 46 L 177 49 L 175 49 Z M 175 46 " clip-rule="nonzero"/></clipPath><clipPath id="0789c24348"><path d="M 136.632812 22.5 L 213.285156 26.554688 L 210.578125 77.65625 L 133.929688 73.601562 Z M 136.632812 22.5 " clip-rule="nonzero"/></clipPath><clipPath id="478e2bca8c"><path d="M 136.632812 22.5 L 213.285156 26.554688 L 210.578125 77.65625 L 133.929688 73.601562 Z M 136.632812 22.5 " clip-rule="nonzero"/></clipPath><clipPath id="b70c371502"><path d="M 136.632812 22.5 L 213.285156 26.554688 L 210.578125 77.65625 L 133.929688 73.601562 Z M 136.632812 22.5 " clip-rule="nonzero"/></clipPath><clipPath id="3fa3d8cae1"><path d="M 199 48 L 210 48 L 210 57 L 199 57 Z M 199 48 " clip-rule="nonzero"/></clipPath><clipPath id="f5c5012a38"><path d="M 136.632812 22.5 L 213.285156 26.554688 L 210.578125 77.65625 L 133.929688 73.601562 Z M 136.632812 22.5 " clip-rule="nonzero"/></clipPath><clipPath id="2f4da9e2b2"><path d="M 136.632812 22.5 L 213.285156 26.554688 L 210.578125 77.65625 L 133.929688 73.601562 Z M 136.632812 22.5 " clip-rule="nonzero"/></clipPath><clipPath id="2bd9b64676"><path d="M 136.632812 22.5 L 213.285156 26.554688 L 210.578125 77.65625 L 133.929688 73.601562 Z M 136.632812 22.5 " clip-rule="nonzero"/></clipPath><clipPath id="8e14c23c34"><path d="M 152 49 L 166 49 L 166 63 L 152 63 Z M 152 49 " clip-rule="nonzero"/></clipPath><clipPath id="a55faaf70e"><path d="M 136.632812 22.5 L 213.285156 26.554688 L 210.578125 77.65625 L 133.929688 73.601562 Z M 136.632812 22.5 " clip-rule="nonzero"/></clipPath><clipPath id="7597268fa8"><path d="M 136.632812 22.5 L 213.285156 26.554688 L 210.578125 77.65625 L 133.929688 73.601562 Z M 136.632812 22.5 " clip-rule="nonzero"/></clipPath><clipPath id="818d4dccc5"><path d="M 136.632812 22.5 L 213.285156 26.554688 L 210.578125 77.65625 L 133.929688 73.601562 Z M 136.632812 22.5 " clip-rule="nonzero"/></clipPath><clipPath id="758ebbbefe"><path d="M 153 50 L 164 50 L 164 62 L 153 62 Z M 153 50 " clip-rule="nonzero"/></clipPath><clipPath id="8a0532a67a"><path d="M 136.632812 22.5 L 213.285156 26.554688 L 210.578125 77.65625 L 133.929688 73.601562 Z M 136.632812 22.5 " clip-rule="nonzero"/></clipPath><clipPath id="a595e8606f"><path d="M 136.632812 22.5 L 213.285156 26.554688 L 210.578125 77.65625 L 133.929688 73.601562 Z M 136.632812 22.5 " clip-rule="nonzero"/></clipPath><clipPath id="89317e44ed"><path d="M 136.632812 22.5 L 213.285156 26.554688 L 210.578125 77.65625 L 133.929688 73.601562 Z M 136.632812 22.5 " clip-rule="nonzero"/></clipPath><clipPath id="d42f3f7009"><path d="M 171 58 L 182 58 L 182 68 L 171 68 Z M 171 58 " clip-rule="nonzero"/></clipPath><clipPath id="fc60c8cd11"><path d="M 136.632812 22.5 L 213.285156 26.554688 L 210.578125 77.65625 L 133.929688 73.601562 Z M 136.632812 22.5 " clip-rule="nonzero"/></clipPath><clipPath id="ce1137dbf8"><path d="M 136.632812 22.5 L 213.285156 26.554688 L 210.578125 77.65625 L 133.929688 73.601562 Z M 136.632812 22.5 " clip-rule="nonzero"/></clipPath><clipPath id="2f72cc7dcc"><path d="M 136.632812 22.5 L 213.285156 26.554688 L 210.578125 77.65625 L 133.929688 73.601562 Z M 136.632812 22.5 " clip-rule="nonzero"/></clipPath><clipPath id="393fa6de8c"><path d="M 172 60 L 181 60 L 181 67 L 172 67 Z M 172 60 " clip-rule="nonzero"/></clipPath><clipPath id="410740aae4"><path d="M 136.632812 22.5 L 213.285156 26.554688 L 210.578125 77.65625 L 133.929688 73.601562 Z M 136.632812 22.5 " clip-rule="nonzero"/></clipPath><clipPath id="254265461e"><path d="M 136.632812 22.5 L 213.285156 26.554688 L 210.578125 77.65625 L 133.929688 73.601562 Z M 136.632812 22.5 " clip-rule="nonzero"/></clipPath><clipPath id="ee24cb68ce"><path d="M 136.632812 22.5 L 213.285156 26.554688 L 210.578125 77.65625 L 133.929688 73.601562 Z M 136.632812 22.5 " clip-rule="nonzero"/></clipPath><clipPath id="1c2f082343"><path d="M 134 68 L 199 68 L 199 74 L 134 74 Z M 134 68 " clip-rule="nonzero"/></clipPath><clipPath id="9da8b4c7ca"><path d="M 136.632812 22.5 L 213.285156 26.554688 L 210.578125 77.65625 L 133.929688 73.601562 Z M 136.632812 22.5 " clip-rule="nonzero"/></clipPath><clipPath id="fb2f96c697"><path d="M 136.632812 22.5 L 213.285156 26.554688 L 210.578125 77.65625 L 133.929688 73.601562 Z M 136.632812 22.5 " clip-rule="nonzero"/></clipPath><clipPath id="432fe6b639"><path d="M 136.632812 22.5 L 213.285156 26.554688 L 210.578125 77.65625 L 133.929688 73.601562 Z M 136.632812 22.5 " clip-rule="nonzero"/></clipPath></defs><rect x="-37.5" width="450" fill="#ffffff" y="-22.5" height="270" fill-opacity="1"/><rect x="-37.5" width="450" fill="#ffffff" y="-22.5" height="270" fill-opacity="1"/><rect x="-37.5" width="450" fill="#ffffff" y="-22.5" height="270" fill-opacity="1"/><g fill="#ff00ff" fill-opacity="1"><g transform="translate(90.279495, 115.714067)"><g><path d="M 29.484375 0 L 7 0 C 6.15625 0 5.546875 -0.1875 5.171875 -0.5625 C 4.796875 -0.945312 4.609375 -1.5625 4.609375 -2.40625 L 4.609375 -45.640625 C 4.609375 -46.484375 4.796875 -47.09375 5.171875 -47.46875 C 5.546875 -47.84375 6.15625 -48.03125 7 -48.03125 L 29.484375 -48.03125 C 35.046875 -48.03125 39.171875 -46.914062 41.859375 -44.6875 C 44.554688 -42.46875 45.90625 -39.046875 45.90625 -34.421875 L 45.90625 -13.609375 C 45.90625 -8.984375 44.554688 -5.554688 41.859375 -3.328125 C 39.171875 -1.109375 35.046875 0 29.484375 0 Z M 19.75 -35.296875 L 19.75 -12.609375 L 27.6875 -12.609375 C 28.757812 -12.609375 29.550781 -12.875 30.0625 -13.40625 C 30.570312 -13.945312 30.828125 -14.769531 30.828125 -15.875 L 30.828125 -32.09375 C 30.828125 -33.207031 30.570312 -34.019531 30.0625 -34.53125 C 29.550781 -35.039062 28.757812 -35.296875 27.6875 -35.296875 Z M 19.75 -35.296875 "/></g></g></g><g fill="#ff00ff" fill-opacity="1"><g transform="translate(140.055236, 115.714067)"><g><path d="M 22.015625 -34.03125 L 18.875 -23.890625 L 29.359375 -23.890625 L 26.21875 -34.03125 C 26.039062 -34.425781 25.851562 -34.710938 25.65625 -34.890625 C 25.457031 -35.066406 25.222656 -35.15625 24.953125 -35.15625 L 23.28125 -35.15625 C 23.019531 -35.15625 22.785156 -35.066406 22.578125 -34.890625 C 22.378906 -34.710938 22.191406 -34.425781 22.015625 -34.03125 Z M 18.21875 -2.40625 C 18.21875 -1.5625 18.023438 -0.945312 17.640625 -0.5625 C 17.265625 -0.1875 16.65625 0 15.8125 0 L 6 0 C 5.15625 0 4.546875 -0.1875 4.171875 -0.5625 C 3.796875 -0.945312 3.609375 -1.5625 3.609375 -2.40625 L 3.609375 -20.015625 C 3.609375 -21.347656 3.816406 -22.878906 4.234375 -24.609375 C 4.660156 -26.347656 5.316406 -28.375 6.203125 -30.6875 L 12.015625 -45.828125 C 12.273438 -46.585938 12.679688 -47.144531 13.234375 -47.5 C 13.796875 -47.851562 14.519531 -48.03125 15.40625 -48.03125 L 33.359375 -48.03125 C 34.203125 -48.03125 34.898438 -47.851562 35.453125 -47.5 C 36.015625 -47.144531 36.429688 -46.585938 36.703125 -45.828125 L 42.5 -30.6875 C 43.382812 -28.375 44.039062 -26.347656 44.46875 -24.609375 C 44.894531 -22.878906 45.109375 -21.347656 45.109375 -20.015625 L 45.109375 -2.40625 C 45.109375 -1.5625 44.914062 -0.945312 44.53125 -0.5625 C 44.15625 -0.1875 43.546875 0 42.703125 0 L 32.625 0 C 31.738281 0 31.082031 -0.1875 30.65625 -0.5625 C 30.238281 -0.945312 30.03125 -1.5625 30.03125 -2.40625 L 30.03125 -11.75 L 18.21875 -11.75 Z M 18.21875 -2.40625 "/></g></g></g><g fill="#ff00ff" fill-opacity="1"><g transform="translate(188.763404, 115.714067)"><g><path d="M 27.28125 0 L 16.484375 0 C 15.640625 0 15.023438 -0.1875 14.640625 -0.5625 C 14.265625 -0.945312 14.078125 -1.5625 14.078125 -2.40625 L 14.078125 -35.15625 L 4.265625 -35.15625 C 3.421875 -35.15625 2.8125 -35.34375 2.4375 -35.71875 C 2.0625 -36.101562 1.875 -36.71875 1.875 -37.5625 L 1.875 -45.640625 C 1.875 -46.484375 2.0625 -47.09375 2.4375 -47.46875 C 2.8125 -47.84375 3.421875 -48.03125 4.265625 -48.03125 L 39.5 -48.03125 C 40.34375 -48.03125 40.953125 -47.84375 41.328125 -47.46875 C 41.710938 -47.09375 41.90625 -46.484375 41.90625 -45.640625 L 41.90625 -37.5625 C 41.90625 -36.71875 41.710938 -36.101562 41.328125 -35.71875 C 40.953125 -35.34375 40.34375 -35.15625 39.5 -35.15625 L 29.6875 -35.15625 L 29.6875 -2.40625 C 29.6875 -1.5625 29.5 -0.945312 29.125 -0.5625 C 28.75 -0.1875 28.132812 0 27.28125 0 Z M 27.28125 0 "/></g></g></g><g fill="#ff00ff" fill-opacity="1"><g transform="translate(232.534026, 115.714067)"><g><path d="M 22.015625 -34.03125 L 18.875 -23.890625 L 29.359375 -23.890625 L 26.21875 -34.03125 C 26.039062 -34.425781 25.851562 -34.710938 25.65625 -34.890625 C 25.457031 -35.066406 25.222656 -35.15625 24.953125 -35.15625 L 23.28125 -35.15625 C 23.019531 -35.15625 22.785156 -35.066406 22.578125 -34.890625 C 22.378906 -34.710938 22.191406 -34.425781 22.015625 -34.03125 Z M 18.21875 -2.40625 C 18.21875 -1.5625 18.023438 -0.945312 17.640625 -0.5625 C 17.265625 -0.1875 16.65625 0 15.8125 0 L 6 0 C 5.15625 0 4.546875 -0.1875 4.171875 -0.5625 C 3.796875 -0.945312 3.609375 -1.5625 3.609375 -2.40625 L 3.609375 -20.015625 C 3.609375 -21.347656 3.816406 -22.878906 4.234375 -24.609375 C 4.660156 -26.347656 5.316406 -28.375 6.203125 -30.6875 L 12.015625 -45.828125 C 12.273438 -46.585938 12.679688 -47.144531 13.234375 -47.5 C 13.796875 -47.851562 14.519531 -48.03125 15.40625 -48.03125 L 33.359375 -48.03125 C 34.203125 -48.03125 34.898438 -47.851562 35.453125 -47.5 C 36.015625 -47.144531 36.429688 -46.585938 36.703125 -45.828125 L 42.5 -30.6875 C 43.382812 -28.375 44.039062 -26.347656 44.46875 -24.609375 C 44.894531 -22.878906 45.109375 -21.347656 45.109375 -20.015625 L 45.109375 -2.40625 C 45.109375 -1.5625 44.914062 -0.945312 44.53125 -0.5625 C 44.15625 -0.1875 43.546875 0 42.703125 0 L 32.625 0 C 31.738281 0 31.082031 -0.1875 30.65625 -0.5625 C 30.238281 -0.945312 30.03125 -1.5625 30.03125 -2.40625 L 30.03125 -11.75 L 18.21875 -11.75 Z M 18.21875 -2.40625 "/></g></g></g><g fill="#00ffff" fill-opacity="1"><g transform="translate(93.75639, 112.471811)"><g><path d="M 29.484375 0 L 7 0 C 6.15625 0 5.546875 -0.1875 5.171875 -0.5625 C 4.796875 -0.945312 4.609375 -1.5625 4.609375 -2.40625 L 4.609375 -45.640625 C 4.609375 -46.484375 4.796875 -47.09375 5.171875 -47.46875 C 5.546875 -47.84375 6.15625 -48.03125 7 -48.03125 L 29.484375 -48.03125 C 35.046875 -48.03125 39.171875 -46.914062 41.859375 -44.6875 C 44.554688 -42.46875 45.90625 -39.046875 45.90625 -34.421875 L 45.90625 -13.609375 C 45.90625 -8.984375 44.554688 -5.554688 41.859375 -3.328125 C 39.171875 -1.109375 35.046875 0 29.484375 0 Z M 19.75 -35.296875 L 19.75 -12.609375 L 27.6875 -12.609375 C 28.757812 -12.609375 29.550781 -12.875 30.0625 -13.40625 C 30.570312 -13.945312 30.828125 -14.769531 30.828125 -15.875 L 30.828125 -32.09375 C 30.828125 -33.207031 30.570312 -34.019531 30.0625 -34.53125 C 29.550781 -35.039062 28.757812 -35.296875 27.6875 -35.296875 Z M 19.75 -35.296875 "/></g></g></g><g fill="#00ffff" fill-opacity="1"><g transform="translate(143.532131, 112.471811)"><g><path d="M 22.015625 -34.03125 L 18.875 -23.890625 L 29.359375 -23.890625 L 26.21875 -34.03125 C 26.039062 -34.425781 25.851562 -34.710938 25.65625 -34.890625 C 25.457031 -35.066406 25.222656 -35.15625 24.953125 -35.15625 L 23.28125 -35.15625 C 23.019531 -35.15625 22.785156 -35.066406 22.578125 -34.890625 C 22.378906 -34.710938 22.191406 -34.425781 22.015625 -34.03125 Z M 18.21875 -2.40625 C 18.21875 -1.5625 18.023438 -0.945312 17.640625 -0.5625 C 17.265625 -0.1875 16.65625 0 15.8125 0 L 6 0 C 5.15625 0 4.546875 -0.1875 4.171875 -0.5625 C 3.796875 -0.945312 3.609375 -1.5625 3.609375 -2.40625 L 3.609375 -20.015625 C 3.609375 -21.347656 3.816406 -22.878906 4.234375 -24.609375 C 4.660156 -26.347656 5.316406 -28.375 6.203125 -30.6875 L 12.015625 -45.828125 C 12.273438 -46.585938 12.679688 -47.144531 13.234375 -47.5 C 13.796875 -47.851562 14.519531 -48.03125 15.40625 -48.03125 L 33.359375 -48.03125 C 34.203125 -48.03125 34.898438 -47.851562 35.453125 -47.5 C 36.015625 -47.144531 36.429688 -46.585938 36.703125 -45.828125 L 42.5 -30.6875 C 43.382812 -28.375 44.039062 -26.347656 44.46875 -24.609375 C 44.894531 -22.878906 45.109375 -21.347656 45.109375 -20.015625 L 45.109375 -2.40625 C 45.109375 -1.5625 44.914062 -0.945312 44.53125 -0.5625 C 44.15625 -0.1875 43.546875 0 42.703125 0 L 32.625 0 C 31.738281 0 31.082031 -0.1875 30.65625 -0.5625 C 30.238281 -0.945312 30.03125 -1.5625 30.03125 -2.40625 L 30.03125 -11.75 L 18.21875 -11.75 Z M 18.21875 -2.40625 "/></g></g></g><g fill="#00ffff" fill-opacity="1"><g transform="translate(192.240298, 112.471811)"><g><path d="M 27.28125 0 L 16.484375 0 C 15.640625 0 15.023438 -0.1875 14.640625 -0.5625 C 14.265625 -0.945312 14.078125 -1.5625 14.078125 -2.40625 L 14.078125 -35.15625 L 4.265625 -35.15625 C 3.421875 -35.15625 2.8125 -35.34375 2.4375 -35.71875 C 2.0625 -36.101562 1.875 -36.71875 1.875 -37.5625 L 1.875 -45.640625 C 1.875 -46.484375 2.0625 -47.09375 2.4375 -47.46875 C 2.8125 -47.84375 3.421875 -48.03125 4.265625 -48.03125 L 39.5 -48.03125 C 40.34375 -48.03125 40.953125 -47.84375 41.328125 -47.46875 C 41.710938 -47.09375 41.90625 -46.484375 41.90625 -45.640625 L 41.90625 -37.5625 C 41.90625 -36.71875 41.710938 -36.101562 41.328125 -35.71875 C 40.953125 -35.34375 40.34375 -35.15625 39.5 -35.15625 L 29.6875 -35.15625 L 29.6875 -2.40625 C 29.6875 -1.5625 29.5 -0.945312 29.125 -0.5625 C 28.75 -0.1875 28.132812 0 27.28125 0 Z M 27.28125 0 "/></g></g></g><g fill="#00ffff" fill-opacity="1"><g transform="translate(236.01092, 112.471811)"><g><path d="M 22.015625 -34.03125 L 18.875 -23.890625 L 29.359375 -23.890625 L 26.21875 -34.03125 C 26.039062 -34.425781 25.851562 -34.710938 25.65625 -34.890625 C 25.457031 -35.066406 25.222656 -35.15625 24.953125 -35.15625 L 23.28125 -35.15625 C 23.019531 -35.15625 22.785156 -35.066406 22.578125 -34.890625 C 22.378906 -34.710938 22.191406 -34.425781 22.015625 -34.03125 Z M 18.21875 -2.40625 C 18.21875 -1.5625 18.023438 -0.945312 17.640625 -0.5625 C 17.265625 -0.1875 16.65625 0 15.8125 0 L 6 0 C 5.15625 0 4.546875 -0.1875 4.171875 -0.5625 C 3.796875 -0.945312 3.609375 -1.5625 3.609375 -2.40625 L 3.609375 -20.015625 C 3.609375 -21.347656 3.816406 -22.878906 4.234375 -24.609375 C 4.660156 -26.347656 5.316406 -28.375 6.203125 -30.6875 L 12.015625 -45.828125 C 12.273438 -46.585938 12.679688 -47.144531 13.234375 -47.5 C 13.796875 -47.851562 14.519531 -48.03125 15.40625 -48.03125 L 33.359375 -48.03125 C 34.203125 -48.03125 34.898438 -47.851562 35.453125 -47.5 C 36.015625 -47.144531 36.429688 -46.585938 36.703125 -45.828125 L 42.5 -30.6875 C 43.382812 -28.375 44.039062 -26.347656 44.46875 -24.609375 C 44.894531 -22.878906 45.109375 -21.347656 45.109375 -20.015625 L 45.109375 -2.40625 C 45.109375 -1.5625 44.914062 -0.945312 44.53125 -0.5625 C 44.15625 -0.1875 43.546875 0 42.703125 0 L 32.625 0 C 31.738281 0 31.082031 -0.1875 30.65625 -0.5625 C 30.238281 -0.945312 30.03125 -1.5625 30.03125 -2.40625 L 30.03125 -11.75 L 18.21875 -11.75 Z M 18.21875 -2.40625 "/></g></g></g><g fill="#7843e6" fill-opacity="1"><g transform="translate(92.017943, 114.092939)"><g><path d="M 29.484375 0 L 7 0 C 6.15625 0 5.546875 -0.1875 5.171875 -0.5625 C 4.796875 -0.945312 4.609375 -1.5625 4.609375 -2.40625 L 4.609375 -45.640625 C 4.609375 -46.484375 4.796875 -47.09375 5.171875 -47.46875 C 5.546875 -47.84375 6.15625 -48.03125 7 -48.03125 L 29.484375 -48.03125 C 35.046875 -48.03125 39.171875 -46.914062 41.859375 -44.6875 C 44.554688 -42.46875 45.90625 -39.046875 45.90625 -34.421875 L 45.90625 -13.609375 C 45.90625 -8.984375 44.554688 -5.554688 41.859375 -3.328125 C 39.171875 -1.109375 35.046875 0 29.484375 0 Z M 19.75 -35.296875 L 19.75 -12.609375 L 27.6875 -12.609375 C 28.757812 -12.609375 29.550781 -12.875 30.0625 -13.40625 C 30.570312 -13.945312 30.828125 -14.769531 30.828125 -15.875 L 30.828125 -32.09375 C 30.828125 -33.207031 30.570312 -34.019531 30.0625 -34.53125 C 29.550781 -35.039062 28.757812 -35.296875 27.6875 -35.296875 Z M 19.75 -35.296875 "/></g></g></g><g fill="#7843e6" fill-opacity="1"><g transform="translate(141.793684, 114.092939)"><g><path d="M 22.015625 -34.03125 L 18.875 -23.890625 L 29.359375 -23.890625 L 26.21875 -34.03125 C 26.039062 -34.425781 25.851562 -34.710938 25.65625 -34.890625 C 25.457031 -35.066406 25.222656 -35.15625 24.953125 -35.15625 L 23.28125 -35.15625 C 23.019531 -35.15625 22.785156 -35.066406 22.578125 -34.890625 C 22.378906 -34.710938 22.191406 -34.425781 22.015625 -34.03125 Z M 18.21875 -2.40625 C 18.21875 -1.5625 18.023438 -0.945312 17.640625 -0.5625 C 17.265625 -0.1875 16.65625 0 15.8125 0 L 6 0 C 5.15625 0 4.546875 -0.1875 4.171875 -0.5625 C 3.796875 -0.945312 3.609375 -1.5625 3.609375 -2.40625 L 3.609375 -20.015625 C 3.609375 -21.347656 3.816406 -22.878906 4.234375 -24.609375 C 4.660156 -26.347656 5.316406 -28.375 6.203125 -30.6875 L 12.015625 -45.828125 C 12.273438 -46.585938 12.679688 -47.144531 13.234375 -47.5 C 13.796875 -47.851562 14.519531 -48.03125 15.40625 -48.03125 L 33.359375 -48.03125 C 34.203125 -48.03125 34.898438 -47.851562 35.453125 -47.5 C 36.015625 -47.144531 36.429688 -46.585938 36.703125 -45.828125 L 42.5 -30.6875 C 43.382812 -28.375 44.039062 -26.347656 44.46875 -24.609375 C 44.894531 -22.878906 45.109375 -21.347656 45.109375 -20.015625 L 45.109375 -2.40625 C 45.109375 -1.5625 44.914062 -0.945312 44.53125 -0.5625 C 44.15625 -0.1875 43.546875 0 42.703125 0 L 32.625 0 C 31.738281 0 31.082031 -0.1875 30.65625 -0.5625 C 30.238281 -0.945312 30.03125 -1.5625 30.03125 -2.40625 L 30.03125 -11.75 L 18.21875 -11.75 Z M 18.21875 -2.40625 "/></g></g></g><g fill="#7843e6" fill-opacity="1"><g transform="translate(190.501851, 114.092939)"><g><path d="M 27.28125 0 L 16.484375 0 C 15.640625 0 15.023438 -0.1875 14.640625 -0.5625 C 14.265625 -0.945312 14.078125 -1.5625 14.078125 -2.40625 L 14.078125 -35.15625 L 4.265625 -35.15625 C 3.421875 -35.15625 2.8125 -35.34375 2.4375 -35.71875 C 2.0625 -36.101562 1.875 -36.71875 1.875 -37.5625 L 1.875 -45.640625 C 1.875 -46.484375 2.0625 -47.09375 2.4375 -47.46875 C 2.8125 -47.84375 3.421875 -48.03125 4.265625 -48.03125 L 39.5 -48.03125 C 40.34375 -48.03125 40.953125 -47.84375 41.328125 -47.46875 C 41.710938 -47.09375 41.90625 -46.484375 41.90625 -45.640625 L 41.90625 -37.5625 C 41.90625 -36.71875 41.710938 -36.101562 41.328125 -35.71875 C 40.953125 -35.34375 40.34375 -35.15625 39.5 -35.15625 L 29.6875 -35.15625 L 29.6875 -2.40625 C 29.6875 -1.5625 29.5 -0.945312 29.125 -0.5625 C 28.75 -0.1875 28.132812 0 27.28125 0 Z M 27.28125 0 "/></g></g></g><g fill="#7843e6" fill-opacity="1"><g transform="translate(234.272473, 114.092939)"><g><path d="M 22.015625 -34.03125 L 18.875 -23.890625 L 29.359375 -23.890625 L 26.21875 -34.03125 C 26.039062 -34.425781 25.851562 -34.710938 25.65625 -34.890625 C 25.457031 -35.066406 25.222656 -35.15625 24.953125 -35.15625 L 23.28125 -35.15625 C 23.019531 -35.15625 22.785156 -35.066406 22.578125 -34.890625 C 22.378906 -34.710938 22.191406 -34.425781 22.015625 -34.03125 Z M 18.21875 -2.40625 C 18.21875 -1.5625 18.023438 -0.945312 17.640625 -0.5625 C 17.265625 -0.1875 16.65625 0 15.8125 0 L 6 0 C 5.15625 0 4.546875 -0.1875 4.171875 -0.5625 C 3.796875 -0.945312 3.609375 -1.5625 3.609375 -2.40625 L 3.609375 -20.015625 C 3.609375 -21.347656 3.816406 -22.878906 4.234375 -24.609375 C 4.660156 -26.347656 5.316406 -28.375 6.203125 -30.6875 L 12.015625 -45.828125 C 12.273438 -46.585938 12.679688 -47.144531 13.234375 -47.5 C 13.796875 -47.851562 14.519531 -48.03125 15.40625 -48.03125 L 33.359375 -48.03125 C 34.203125 -48.03125 34.898438 -47.851562 35.453125 -47.5 C 36.015625 -47.144531 36.429688 -46.585938 36.703125 -45.828125 L 42.5 -30.6875 C 43.382812 -28.375 44.039062 -26.347656 44.46875 -24.609375 C 44.894531 -22.878906 45.109375 -21.347656 45.109375 -20.015625 L 45.109375 -2.40625 C 45.109375 -1.5625 44.914062 -0.945312 44.53125 -0.5625 C 44.15625 -0.1875 43.546875 0 42.703125 0 L 32.625 0 C 31.738281 0 31.082031 -0.1875 30.65625 -0.5625 C 30.238281 -0.945312 30.03125 -1.5625 30.03125 -2.40625 L 30.03125 -11.75 L 18.21875 -11.75 Z M 18.21875 -2.40625 "/></g></g></g><g clip-path="url(#7635cbd9f0)"><g clip-path="url(#dc75247e2c)"><g clip-path="url(#6850e9ae35)"><g clip-path="url(#0029dc567b)"><g clip-path="url(#3f36ba51bb)"><g clip-path="url(#28d14b5e49)"><path fill="#000000" d="M 197.636719 72.011719 C 195.605469 70.925781 192.5 70.808594 189.363281 70.554688 C 179.21875 69.734375 169.023438 68.492188 159.296875 68.871094 C 151.789062 69.164062 144.777344 69.8125 138.3125 71.007812 C 137.175781 71.21875 135.644531 71.289062 134.988281 72.410156 C 138.253906 72.972656 141.097656 72.195312 144.210938 71.691406 C 160.507812 69.058594 181.222656 70.101562 198.777344 73.1875 C 198.753906 72.457031 198.082031 72.253906 197.636719 72.011719 Z M 202.773438 50.285156 C 201.71875 50.515625 200.511719 49.675781 199.082031 49.902344 C 199.324219 51.097656 201.855469 51.601562 201.800781 52.925781 C 201.757812 53.890625 200.25 54.390625 200.277344 55.351562 C 200.761719 54.890625 201.398438 54.671875 202.097656 54.332031 C 202.71875 54.03125 203.472656 53.378906 204.09375 53.417969 C 205.605469 53.511719 206.710938 55.949219 207.929688 56.3125 C 208.085938 54.867188 206.386719 53.828125 206.632812 52.714844 C 206.84375 51.777344 208.378906 51.777344 209.039062 51.078125 C 207.917969 51.003906 206.816406 50.90625 205.8125 50.722656 C 205.089844 50.253906 205.046875 49.175781 204.539062 48.519531 C 203.839844 49.015625 203.671875 50.085938 202.773438 50.285156 Z M 175.421875 48.1875 C 175.988281 48.324219 176.222656 48.761719 176.777344 48.90625 C 176.726562 48.042969 176.855469 47.015625 176.734375 46.214844 C 176.417969 47.003906 175.824219 47.488281 175.421875 48.1875 Z M 170.671875 46.820312 C 169.957031 47.246094 168.679688 46.480469 167.972656 46.957031 C 168.71875 47.402344 169.53125 47.789062 170.027344 48.457031 C 169.496094 50.054688 168.652344 51.304688 168.296875 53.101562 C 170.015625 52.105469 171.457031 50.800781 173.289062 49.929688 C 174.476562 50.742188 175.808594 51.425781 176.96875 52.261719 C 176.898438 51.886719 176.800781 51.53125 176.652344 51.222656 C 176.21875 51.234375 175.824219 51.542969 175.640625 51.074219 C 175.683594 50.242188 176.796875 50.59375 176.648438 49.550781 C 175.84375 49.160156 174.894531 48.898438 174.496094 48.136719 C 174.953125 47.46875 175.5625 46.96875 175.988281 46.265625 C 175.160156 46.226562 174.386719 46.25 173.664062 46.328125 C 172.746094 45.660156 172.503906 44.378906 171.675781 43.625 C 171.214844 44.550781 171.359375 46.148438 170.671875 46.820312 Z M 158.414062 34.753906 C 157.25 36.433594 156.511719 38.585938 155.777344 40.742188 C 156.285156 41.84375 156.8125 42.921875 157.660156 43.71875 C 158.109375 42.453125 158.148438 40.734375 158.449219 39.304688 C 159.683594 38.714844 161.726562 39.027344 163.039062 38.527344 C 161.886719 38.003906 161.054688 37.199219 160.082031 36.511719 C 159.96875 35.71875 161.398438 34.789062 161.222656 34.253906 C 160.347656 34.519531 159.425781 35.519531 158.414062 34.753906 Z M 172.339844 32.796875 C 171.410156 33.003906 170.277344 32.988281 169.175781 33.003906 C 169.148438 34.023438 170.964844 34.34375 171 35.328125 C 171.035156 36.238281 169.609375 36.796875 169.664062 37.761719 C 170.851562 37.019531 172.464844 36.519531 173.660156 35.933594 C 174.050781 35.738281 174.1875 35.421875 174.613281 35.425781 C 175.871094 35.441406 177.574219 37.5625 178.722656 36.664062 C 178.320312 36.113281 177.742188 35.085938 177.347656 34.640625 C 177.015625 34.273438 176.722656 34.449219 176.734375 33.960938 C 176.75 33.03125 178.761719 32.695312 178.695312 31.929688 C 177.488281 31.769531 176.277344 32.554688 175.335938 32.308594 C 174.449219 32.074219 174.460938 31.042969 173.757812 30.554688 C 173.257812 31.269531 172.726562 31.953125 172.339844 32.796875 Z M 202.074219 33.722656 C 201.105469 32.816406 199.984375 31.804688 199.261719 30.789062 C 198.9375 30.335938 198.828125 29.714844 198.40625 29.351562 C 197.347656 28.429688 194.324219 27.753906 192.867188 27.109375 C 192.554688 27.707031 192.476562 28.566406 191.847656 28.816406 C 190.976562 28.542969 190.851562 27.597656 190.175781 27.152344 C 189.773438 27.578125 189.035156 28.078125 188.324219 28.816406 C 187.8125 29.347656 187.058594 30.636719 186.296875 30.289062 C 185.507812 29.925781 186.246094 27.898438 186.015625 26.839844 C 178.660156 27.726562 171.726562 29.800781 165.164062 31.675781 C 163.574219 32.128906 161.621094 32.546875 160.253906 33.273438 C 159.835938 33.496094 159.113281 33.84375 159.28125 34.148438 C 160.363281 33.832031 161.796875 32.929688 162.941406 33.324219 C 162.8125 34.433594 161.5 35.039062 161.121094 36.195312 C 162.089844 37.324219 163.859375 37.726562 164.683594 38.984375 C 164.394531 39.53125 163.773438 39.234375 163.277344 39.28125 C 161.996094 39.402344 160.503906 39.800781 159.078125 39.710938 C 158.65625 41.460938 158.859375 43.90625 157.605469 44.738281 C 156.589844 43.976562 156.1875 42.664062 155.449219 41.652344 C 152.363281 50.535156 149.847656 60.054688 146.59375 68.753906 C 148.414062 68.984375 149.90625 68.589844 151.710938 68.46875 C 156.089844 68.175781 160.289062 67.90625 164.636719 67.945312 C 171.816406 68.011719 178.710938 68.839844 185.71875 69.246094 C 185.078125 64.859375 182.988281 61.773438 180.410156 59.125 C 180.054688 59.136719 179.882812 59.714844 179.472656 59.355469 C 180.492188 56.644531 178.710938 54.636719 177.480469 53.121094 C 175.699219 53.082031 174.664062 51.605469 173.332031 50.859375 C 172.335938 51.335938 171.460938 51.949219 170.550781 52.570312 C 169.710938 53.148438 168.800781 54.0625 167.605469 53.898438 C 167.632812 52.03125 168.613281 50.382812 169.261719 48.882812 C 168.523438 47.902344 166.871094 47.742188 166.515625 46.414062 C 167.171875 45.585938 169.1875 46.160156 170.246094 46.054688 C 170.714844 44.746094 170.640625 42.835938 171.660156 42.140625 C 172.636719 43.050781 173.078125 44.449219 173.992188 45.417969 C 174.960938 45.429688 175.800781 45.554688 176.671875 45.652344 C 176.132812 43.636719 175.355469 41.839844 173.484375 41.027344 C 172.949219 41.351562 172.234375 41.992188 171.40625 41.660156 C 171.507812 40.921875 172.339844 41 172.761719 40.617188 C 172.113281 40.527344 171.1875 40.6875 170.828125 40.332031 C 171.199219 39.4375 172.617188 39.707031 173.828125 39.746094 C 175.0625 39.027344 176.257812 38.269531 177.382812 37.429688 C 176.265625 37.230469 175.566406 36.65625 174.566406 36.351562 C 173.695312 36.832031 172.609375 37.207031 171.617188 37.679688 C 170.714844 38.113281 169.578125 39.105469 168.519531 38.351562 C 168.730469 37.015625 169.601562 36.417969 170.070312 35.371094 C 169.445312 34.3125 167.980469 33.554688 167.816406 32.375 C 168.859375 31.929688 170.507812 32.167969 171.824219 32.027344 C 172.421875 31.183594 173.003906 29.410156 173.996094 29.542969 C 174.859375 29.660156 174.804688 31.144531 175.65625 31.488281 C 176.320312 31.496094 180.011719 30.429688 180.292969 31.546875 C 180.511719 32.421875 178.027344 33.429688 177.851562 33.832031 C 178.316406 34.707031 178.875 35.5 179.585938 36.152344 C 183.472656 33.910156 187.355469 31.660156 192.925781 31.289062 C 193.007812 30.582031 192.605469 29.304688 193.320312 29.082031 C 193.867188 29.265625 193.675781 30.113281 193.792969 30.683594 C 194.109375 30.773438 194.566406 29.652344 195.125 30.011719 C 195.042969 30.835938 194.335938 30.960938 194.113281 31.628906 C 197.339844 33.21875 200.269531 35.082031 202.910156 37.203125 C 203.308594 37.066406 203.875 36.492188 204.3125 36.996094 C 204.3125 37.519531 203.730469 37.640625 203.601562 38.167969 C 203.363281 39.121094 203.789062 40.800781 203.949219 42.082031 C 204.125 43.488281 204.40625 44.796875 204.683594 45.742188 C 204.9375 42.554688 204.59375 39.605469 204.984375 36.570312 C 204.140625 35.574219 203.074219 34.660156 202.074219 33.722656 Z M 191.824219 27.515625 C 191.777344 27.105469 192.144531 27.152344 192.230469 26.890625 C 191.769531 26.804688 191.4375 26.601562 190.949219 26.542969 C 191.152344 26.949219 191.316406 27.386719 191.824219 27.515625 Z M 186.664062 26.871094 C 186.996094 27.367188 186.695312 28.433594 186.726562 29.195312 C 187.5625 28.296875 188.746094 27.261719 189.375 26.460938 C 188.523438 26.652344 187.367188 26.511719 186.664062 26.871094 Z M 206.332031 49.636719 C 207.488281 50.125 211.867188 49.398438 211.929688 50.859375 C 211.964844 51.738281 210.660156 51.816406 210.007812 52.058594 C 209.089844 52.40625 208.609375 52.648438 207.921875 52.96875 C 208.207031 54.207031 210.0625 56.394531 208.679688 57.929688 C 206.429688 57.457031 205.789062 55.535156 204.027344 54.621094 C 203.078125 55.09375 202.105469 55.585938 201.164062 56.140625 C 200.304688 56.648438 199.371094 57.691406 198.234375 57.191406 C 197.992188 55.421875 199.746094 54.253906 200.5 52.949219 C 199.933594 52.375 199.226562 51.839844 198.640625 51.273438 C 198.316406 50.957031 197.027344 50 197.167969 49.246094 C 197.4375 47.828125 201.179688 49.214844 202.375 49.054688 C 202.863281 48.992188 203.734375 48.203125 203.839844 47.648438 C 203.949219 47.089844 203.488281 46.171875 203.3125 45.390625 C 202.757812 42.945312 202.585938 41.007812 202.394531 38.195312 C 199.527344 36.042969 196.433594 34.097656 193.050781 32.410156 C 185.265625 33.160156 180.457031 37.21875 174.90625 40.453125 C 177.339844 42.398438 178.667969 46.476562 177.511719 50.804688 C 178.535156 53.4375 181.039062 54.742188 181.011719 58.324219 C 183.972656 61.03125 186.113281 64.484375 186.933594 69.125 C 189.226562 69.566406 192.417969 69.449219 195.425781 69.945312 C 197.210938 70.242188 202.28125 72.753906 198.996094 74.3125 C 193.984375 73.597656 188.84375 72.890625 183.523438 72.195312 C 178.285156 71.511719 172.773438 71.460938 167.140625 71.421875 C 158.960938 71.359375 151.390625 71.5625 144.25 72.714844 C 141.851562 73.105469 139.457031 73.683594 137.238281 73.738281 C 135.863281 73.769531 134.101562 73.648438 134.0625 72.363281 C 134.035156 71.339844 135.085938 70.882812 135.636719 70.683594 C 138.519531 69.632812 142.078125 69.59375 145.097656 68.953125 C 147.734375 63.148438 149.410156 56.304688 151.714844 49.160156 C 152.53125 46.621094 153.457031 43.964844 154.355469 41.316406 C 155.644531 37.519531 156.8125 33.453125 160.136719 31.96875 C 162.171875 31.058594 164.683594 30.597656 167.023438 29.824219 C 169.332031 29.0625 171.804688 28.632812 174.171875 27.976562 C 179.226562 26.570312 184.070312 25.671875 189.34375 25.34375 C 191.496094 25.210938 193.277344 25.953125 195.300781 26.679688 C 196.703125 27.183594 198.234375 27.648438 199.109375 28.367188 C 199.675781 28.828125 199.949219 29.636719 200.402344 30.199219 C 202.121094 32.3125 204.550781 34.035156 206.207031 36.261719 C 205.902344 39.164062 206.148438 42.347656 206.015625 45.164062 C 205.929688 46.964844 205.515625 48.46875 206.332031 49.636719 " fill-opacity="1" fill-rule="evenodd"/></g></g></g></g></g></g><g clip-path="url(#cc2b69ffc5)"><g clip-path="url(#ccfb983b57)"><g clip-path="url(#ba633c65f7)"><g clip-path="url(#b6482d68c8)"><path fill="#ffda00" d="M 189.375 26.460938 C 188.746094 27.261719 187.5625 28.296875 186.726562 29.195312 C 186.695312 28.429688 186.996094 27.367188 186.664062 26.871094 C 187.367188 26.511719 188.523438 26.652344 189.375 26.460938 " fill-opacity="1" fill-rule="evenodd"/></g></g></g></g><g clip-path="url(#3a760bc05a)"><g clip-path="url(#1e31710167)"><g clip-path="url(#a98ebfecc8)"><g clip-path="url(#ea771c0f10)"><path fill="#ffda00" d="M 190.949219 26.542969 C 191.4375 26.601562 191.769531 26.804688 192.230469 26.890625 C 192.144531 27.152344 191.777344 27.105469 191.824219 27.515625 C 191.316406 27.386719 191.152344 26.949219 190.949219 26.542969 " fill-opacity="1" fill-rule="evenodd"/></g></g></g></g><g clip-path="url(#5c05521a1e)"><g clip-path="url(#772ab44c3d)"><g clip-path="url(#c1efb00e7b)"><g clip-path="url(#3605fc5f66)"><path fill="#5e4893" d="M 175.996094 58.429688 C 175.765625 59.34375 175.386719 60.265625 174.835938 61.058594 C 173.65625 61.480469 171.855469 61.207031 171.070312 62.066406 C 171.515625 63.132812 172.949219 63.316406 173.554688 64.242188 C 173.375 65.269531 172.714844 66.222656 172.835938 67.265625 C 174.464844 67.335938 175.355469 65.765625 176.746094 65.246094 C 178.09375 65.769531 178.78125 66.882812 180.355469 67.199219 C 180.828125 65.992188 179.777344 64.757812 179.328125 63.804688 C 179.945312 63.28125 180.929688 63.167969 181.347656 62.425781 C 180.664062 61.601562 178.941406 61.710938 177.59375 61.484375 C 177.050781 60.535156 176.996094 59.140625 176.179688 58.4375 C 176.117188 58.433594 176.054688 58.433594 175.996094 58.429688 Z M 158.832031 49.628906 C 157.917969 51.066406 157.101562 52.605469 156.1875 54.039062 C 154.871094 54.007812 153.507812 53.601562 152.476562 54.027344 C 152.054688 56.148438 154.386719 56.535156 154.953125 58.058594 C 154.132812 59.464844 152.816406 60.320312 152.238281 62 C 153.347656 62.722656 154.535156 61.683594 155.527344 61.246094 C 156.644531 60.75 157.863281 60.386719 158.847656 59.84375 C 160.179688 60.820312 161.546875 61.761719 163.355469 62.308594 C 164.082031 60.34375 162.226562 59.226562 161.546875 57.941406 C 162.734375 57.042969 164.472656 56.753906 165.210938 55.351562 C 163.894531 54.890625 162.265625 54.707031 160.613281 54.550781 C 160.21875 52.820312 160.035156 50.898438 159.109375 49.644531 C 159.015625 49.640625 158.925781 49.632812 158.832031 49.628906 Z M 204.984375 36.570312 C 204.59375 39.605469 204.9375 42.554688 204.683594 45.742188 C 204.40625 44.796875 204.125 43.488281 203.949219 42.082031 C 203.789062 40.800781 203.363281 39.121094 203.601562 38.167969 C 203.730469 37.640625 204.3125 37.519531 204.3125 36.996094 C 203.875 36.492188 203.308594 37.066406 202.910156 37.203125 C 200.269531 35.082031 197.339844 33.21875 194.113281 31.628906 C 194.335938 30.960938 195.042969 30.835938 195.125 30.011719 C 194.566406 29.65625 194.109375 30.773438 193.792969 30.683594 C 193.675781 30.113281 193.867188 29.265625 193.320312 29.082031 C 192.605469 29.304688 193.007812 30.582031 192.925781 31.289062 C 187.355469 31.660156 183.472656 33.910156 179.585938 36.152344 C 178.875 35.5 178.316406 34.710938 177.851562 33.832031 C 178.027344 33.429688 180.511719 32.421875 180.292969 31.546875 C 180.011719 30.429688 176.320312 31.496094 175.65625 31.488281 C 174.804688 31.144531 174.859375 29.660156 173.996094 29.542969 C 173.003906 29.410156 172.421875 31.183594 171.824219 32.027344 C 170.507812 32.167969 168.859375 31.929688 167.816406 32.375 C 167.980469 33.554688 169.445312 34.3125 170.070312 35.371094 C 169.601562 36.417969 168.730469 37.015625 168.519531 38.351562 C 169.578125 39.105469 170.714844 38.113281 171.617188 37.679688 C 172.609375 37.207031 173.695312 36.832031 174.566406 36.351562 C 175.566406 36.65625 176.265625 37.230469 177.382812 37.429688 C 176.257812 38.269531 175.0625 39.027344 173.828125 39.746094 C 172.617188 39.707031 171.199219 39.4375 170.828125 40.332031 C 171.183594 40.6875 172.113281 40.527344 172.761719 40.617188 C 172.339844 41 171.507812 40.921875 171.40625 41.660156 C 172.234375 41.992188 172.949219 41.351562 173.480469 41.027344 C 175.355469 41.839844 176.132812 43.636719 176.671875 45.652344 C 175.800781 45.554688 174.960938 45.429688 173.992188 45.417969 C 173.078125 44.449219 172.636719 43.050781 171.660156 42.140625 C 170.640625 42.835938 170.714844 44.746094 170.246094 46.054688 C 169.1875 46.160156 167.171875 45.585938 166.515625 46.414062 C 166.871094 47.742188 168.523438 47.902344 169.261719 48.882812 C 168.613281 50.382812 167.632812 52.03125 167.605469 53.898438 C 168.800781 54.0625 169.710938 53.148438 170.550781 52.570312 C 171.460938 51.949219 172.335938 51.335938 173.332031 50.859375 C 174.664062 51.605469 175.695312 53.082031 177.480469 53.121094 C 178.710938 54.636719 180.488281 56.644531 179.46875 59.355469 C 179.882812 59.714844 180.054688 59.136719 180.410156 59.125 C 182.988281 61.773438 185.078125 64.859375 185.71875 69.246094 C 178.707031 68.839844 171.816406 68.011719 164.636719 67.945312 C 160.289062 67.90625 156.089844 68.175781 151.710938 68.46875 C 149.90625 68.589844 148.414062 68.984375 146.59375 68.753906 C 149.847656 60.054688 152.363281 50.535156 155.449219 41.652344 C 156.1875 42.664062 156.589844 43.976562 157.605469 44.738281 C 158.859375 43.90625 158.65625 41.460938 159.078125 39.710938 C 160.503906 39.800781 161.996094 39.402344 163.277344 39.28125 C 163.773438 39.234375 164.394531 39.53125 164.683594 38.984375 C 163.859375 37.726562 162.085938 37.324219 161.121094 36.195312 C 161.5 35.039062 162.8125 34.433594 162.941406 33.324219 C 161.796875 32.929688 160.363281 33.832031 159.28125 34.148438 C 159.113281 33.84375 159.835938 33.496094 160.253906 33.273438 C 161.621094 32.546875 163.574219 32.128906 165.164062 31.675781 C 171.726562 29.800781 178.660156 27.726562 186.015625 26.839844 C 186.246094 27.898438 185.503906 29.925781 186.296875 30.289062 C 187.058594 30.636719 187.8125 29.347656 188.324219 28.816406 C 189.035156 28.078125 189.773438 27.578125 190.175781 27.152344 C 190.851562 27.597656 190.976562 28.542969 191.847656 28.816406 C 192.476562 28.566406 192.554688 27.707031 192.867188 27.109375 C 194.324219 27.753906 197.347656 28.429688 198.40625 29.351562 C 198.828125 29.714844 198.9375 30.335938 199.257812 30.789062 C 199.984375 31.804688 201.105469 32.816406 202.074219 33.722656 C 203.074219 34.660156 204.140625 35.574219 204.984375 36.570312 " fill-opacity="1" fill-rule="evenodd"/></g></g></g></g><g clip-path="url(#8d77c255d1)"><g clip-path="url(#4dfec06cee)"><g clip-path="url(#82f8ae3bcf)"><g clip-path="url(#58abff23b8)"><path fill="#ffda00" d="M 173.757812 30.554688 C 174.460938 31.042969 174.449219 32.074219 175.335938 32.308594 C 176.277344 32.554688 177.488281 31.769531 178.695312 31.929688 C 178.761719 32.695312 176.75 33.03125 176.734375 33.960938 C 176.722656 34.449219 177.015625 34.273438 177.347656 34.640625 C 177.742188 35.085938 178.320312 36.113281 178.722656 36.664062 C 177.574219 37.5625 175.871094 35.441406 174.613281 35.425781 C 174.1875 35.421875 174.054688 35.738281 173.660156 35.933594 C 172.464844 36.519531 170.851562 37.019531 169.664062 37.761719 C 169.609375 36.796875 171.035156 36.238281 171 35.328125 C 170.964844 34.34375 169.148438 34.023438 169.175781 33.003906 C 170.277344 32.984375 171.410156 33.003906 172.339844 32.800781 C 172.726562 31.953125 173.257812 31.269531 173.757812 30.554688 " fill-opacity="1" fill-rule="evenodd"/></g></g></g></g><g clip-path="url(#e6ec777efb)"><g clip-path="url(#e764dd8758)"><g clip-path="url(#0501cd6eb3)"><g clip-path="url(#c5fe6ba3c0)"><path fill="#ffda00" d="M 161.222656 34.253906 C 161.398438 34.789062 159.96875 35.71875 160.082031 36.511719 C 161.054688 37.199219 161.886719 38.003906 163.039062 38.527344 C 161.726562 39.027344 159.679688 38.714844 158.449219 39.304688 C 158.148438 40.734375 158.109375 42.453125 157.660156 43.71875 C 156.8125 42.921875 156.285156 41.84375 155.777344 40.742188 C 156.511719 38.585938 157.25 36.433594 158.414062 34.753906 C 159.425781 35.519531 160.347656 34.519531 161.222656 34.253906 " fill-opacity="1" fill-rule="evenodd"/></g></g></g></g><g clip-path="url(#0013151c6f)"><g clip-path="url(#b79afda3b6)"><g clip-path="url(#23ca1e7484)"><g clip-path="url(#76cd221bfc)"><path fill="#ffda00" d="M 171.675781 43.625 C 172.503906 44.378906 172.742188 45.660156 173.664062 46.328125 C 174.386719 46.25 175.160156 46.226562 175.988281 46.265625 C 175.5625 46.96875 174.953125 47.46875 174.496094 48.136719 C 174.894531 48.898438 175.84375 49.160156 176.648438 49.550781 C 176.796875 50.59375 175.683594 50.242188 175.640625 51.074219 C 175.824219 51.542969 176.21875 51.234375 176.652344 51.222656 C 176.800781 51.53125 176.898438 51.886719 176.96875 52.261719 C 175.808594 51.425781 174.476562 50.742188 173.289062 49.929688 C 171.457031 50.800781 170.015625 52.105469 168.296875 53.101562 C 168.652344 51.304688 169.496094 50.054688 170.027344 48.457031 C 169.53125 47.789062 168.71875 47.402344 167.972656 46.957031 C 168.679688 46.480469 169.957031 47.246094 170.671875 46.820312 C 171.359375 46.148438 171.214844 44.550781 171.675781 43.625 " fill-opacity="1" fill-rule="evenodd"/></g></g></g></g><g clip-path="url(#796160c2b0)"><g clip-path="url(#0789c24348)"><g clip-path="url(#478e2bca8c)"><g clip-path="url(#b70c371502)"><path fill="#5e4893" d="M 176.734375 46.214844 C 176.855469 47.011719 176.726562 48.042969 176.777344 48.90625 C 176.222656 48.761719 175.988281 48.324219 175.421875 48.1875 C 175.824219 47.488281 176.417969 47.003906 176.734375 46.214844 " fill-opacity="1" fill-rule="evenodd"/></g></g></g></g><g clip-path="url(#3fa3d8cae1)"><g clip-path="url(#f5c5012a38)"><g clip-path="url(#2f4da9e2b2)"><g clip-path="url(#2bd9b64676)"><path fill="#ffda00" d="M 204.539062 48.519531 C 205.046875 49.175781 205.089844 50.253906 205.8125 50.722656 C 206.816406 50.90625 207.917969 51.003906 209.039062 51.078125 C 208.378906 51.777344 206.84375 51.777344 206.636719 52.714844 C 206.386719 53.828125 208.085938 54.867188 207.929688 56.3125 C 206.710938 55.949219 205.605469 53.511719 204.09375 53.417969 C 203.46875 53.378906 202.71875 54.03125 202.097656 54.332031 C 201.398438 54.671875 200.761719 54.890625 200.28125 55.351562 C 200.25 54.390625 201.757812 53.890625 201.800781 52.925781 C 201.855469 51.601562 199.324219 51.097656 199.082031 49.902344 C 200.511719 49.675781 201.71875 50.515625 202.773438 50.285156 C 203.671875 50.085938 203.839844 49.015625 204.539062 48.519531 " fill-opacity="1" fill-rule="evenodd"/></g></g></g></g><g clip-path="url(#8e14c23c34)"><g clip-path="url(#a55faaf70e)"><g clip-path="url(#7597268fa8)"><g clip-path="url(#818d4dccc5)"><path fill="#000000" d="M 156.609375 54.804688 C 155.628906 55.082031 154.589844 54.703125 153.367188 54.726562 C 153.925781 56.164062 155.640625 56.554688 155.964844 58.203125 C 155.277344 59.265625 154.40625 60.128906 153.675781 61.144531 C 155.363281 60.3125 157.1875 59.628906 158.988281 58.921875 C 160.070312 59.800781 161.398438 60.457031 162.675781 61.160156 C 162.304688 59.789062 161.101562 59.167969 160.621094 57.894531 C 161.273438 56.855469 162.59375 56.558594 163.515625 55.820312 C 162.464844 55.558594 161.101562 55.410156 160.105469 55.359375 C 159.265625 54.234375 159.574219 52.074219 158.765625 50.925781 C 158.023438 52.195312 157.449219 53.648438 156.609375 54.804688 Z M 159.109375 49.644531 C 160.035156 50.898438 160.21875 52.820312 160.613281 54.550781 C 162.265625 54.707031 163.894531 54.890625 165.210938 55.351562 C 164.472656 56.753906 162.734375 57.042969 161.546875 57.941406 C 162.226562 59.226562 164.082031 60.34375 163.355469 62.308594 C 161.546875 61.761719 160.179688 60.820312 158.847656 59.84375 C 157.863281 60.386719 156.644531 60.75 155.527344 61.246094 C 154.535156 61.683594 153.347656 62.722656 152.238281 62 C 152.816406 60.320312 154.132812 59.464844 154.953125 58.058594 C 154.386719 56.535156 152.054688 56.148438 152.476562 54.027344 C 153.507812 53.601562 154.871094 54.007812 156.1875 54.039062 C 157.101562 52.605469 157.917969 51.066406 158.832031 49.628906 C 158.925781 49.632812 159.015625 49.640625 159.109375 49.644531 " fill-opacity="1" fill-rule="evenodd"/></g></g></g></g><g clip-path="url(#758ebbbefe)"><g clip-path="url(#8a0532a67a)"><g clip-path="url(#a595e8606f)"><g clip-path="url(#89317e44ed)"><path fill="#ffda00" d="M 158.765625 50.925781 C 159.574219 52.074219 159.265625 54.234375 160.105469 55.359375 C 161.101562 55.410156 162.464844 55.558594 163.515625 55.820312 C 162.59375 56.558594 161.273438 56.855469 160.621094 57.894531 C 161.101562 59.167969 162.304688 59.789062 162.675781 61.160156 C 161.398438 60.457031 160.070312 59.800781 158.988281 58.921875 C 157.1875 59.628906 155.363281 60.3125 153.675781 61.144531 C 154.40625 60.128906 155.277344 59.265625 155.964844 58.203125 C 155.640625 56.554688 153.925781 56.164062 153.367188 54.726562 C 154.589844 54.703125 155.628906 55.082031 156.609375 54.804688 C 157.449219 53.648438 158.023438 52.195312 158.765625 50.925781 " fill-opacity="1" fill-rule="evenodd"/></g></g></g></g><g clip-path="url(#d42f3f7009)"><g clip-path="url(#fc60c8cd11)"><g clip-path="url(#ce1137dbf8)"><g clip-path="url(#2f72cc7dcc)"><path fill="#000000" d="M 175.171875 61.726562 C 174.386719 62.210938 173.109375 61.769531 172.261719 62.316406 C 172.835938 62.953125 174.050781 63.039062 174.214844 63.996094 C 174.347656 64.765625 173.628906 65.5625 173.71875 66.382812 C 174.152344 66.089844 174.554688 65.65625 175.070312 65.34375 C 175.472656 65.097656 176.203125 64.519531 176.601562 64.496094 C 177.785156 64.417969 178.636719 65.816406 179.679688 65.957031 C 179.300781 65.148438 178.773438 64.476562 178.410156 63.660156 C 178.8125 63.132812 179.601562 63.027344 180.042969 62.542969 C 179.054688 62.375 177.964844 62.296875 177.007812 62.101562 C 176.59375 61.503906 176.539062 60.582031 176.097656 60.011719 C 175.667969 60.675781 175.78125 61.347656 175.171875 61.726562 Z M 176.179688 58.4375 C 176.996094 59.140625 177.050781 60.535156 177.59375 61.484375 C 178.941406 61.710938 180.664062 61.601562 181.347656 62.425781 C 180.929688 63.167969 179.945312 63.28125 179.328125 63.804688 C 179.777344 64.757812 180.828125 65.992188 180.355469 67.199219 C 178.78125 66.882812 178.09375 65.769531 176.746094 65.246094 C 175.355469 65.765625 174.464844 67.335938 172.835938 67.265625 C 172.714844 66.222656 173.375 65.269531 173.554688 64.242188 C 172.949219 63.316406 171.515625 63.132812 171.070312 62.066406 C 171.855469 61.207031 173.65625 61.480469 174.835938 61.058594 C 175.386719 60.265625 175.765625 59.34375 175.996094 58.429688 C 176.054688 58.433594 176.117188 58.433594 176.179688 58.4375 " fill-opacity="1" fill-rule="evenodd"/></g></g></g></g><g clip-path="url(#393fa6de8c)"><g clip-path="url(#410740aae4)"><g clip-path="url(#254265461e)"><g clip-path="url(#ee24cb68ce)"><path fill="#ffda00" d="M 176.097656 60.011719 C 176.539062 60.582031 176.59375 61.503906 177.007812 62.101562 C 177.964844 62.296875 179.054688 62.375 180.042969 62.542969 C 179.601562 63.027344 178.8125 63.132812 178.410156 63.660156 C 178.773438 64.476562 179.300781 65.148438 179.679688 65.957031 C 178.636719 65.816406 177.785156 64.417969 176.601562 64.496094 C 176.203125 64.519531 175.472656 65.097656 175.070312 65.34375 C 174.554688 65.65625 174.152344 66.089844 173.71875 66.382812 C 173.628906 65.5625 174.347656 64.765625 174.214844 63.996094 C 174.050781 63.039062 172.835938 62.953125 172.261719 62.316406 C 173.109375 61.769531 174.386719 62.210938 175.171875 61.726562 C 175.78125 61.347656 175.667969 60.675781 176.097656 60.011719 " fill-opacity="1" fill-rule="evenodd"/></g></g></g></g><g clip-path="url(#1c2f082343)"><g clip-path="url(#9da8b4c7ca)"><g clip-path="url(#fb2f96c697)"><g clip-path="url(#432fe6b639)"><path fill="#4f397a" d="M 198.777344 73.1875 C 181.222656 70.101562 160.507812 69.058594 144.210938 71.691406 C 141.097656 72.195312 138.253906 72.972656 134.988281 72.410156 C 135.644531 71.289062 137.175781 71.21875 138.3125 71.007812 C 144.777344 69.8125 151.789062 69.164062 159.296875 68.871094 C 169.023438 68.492188 179.21875 69.734375 189.363281 70.554688 C 192.5 70.808594 195.605469 70.925781 197.632812 72.011719 C 198.082031 72.253906 198.753906 72.457031 198.777344 73.1875 " fill-opacity="1" fill-rule="evenodd"/></g></g></g></g><g fill="#ff00ff" fill-opacity="1"><g transform="translate(34.653726, 186.950729)"><g><path d="M 41.015625 -50.40625 L 51.453125 -50.40625 C 52.335938 -50.40625 52.976562 -50.203125 53.375 -49.796875 C 53.769531 -49.398438 53.96875 -48.757812 53.96875 -47.875 L 53.96875 -20.71875 C 53.96875 -19.226562 53.910156 -17.835938 53.796875 -16.546875 C 53.679688 -15.265625 53.316406 -13.765625 52.703125 -12.046875 L 49.203125 -2.515625 C 48.972656 -1.816406 48.632812 -1.222656 48.1875 -0.734375 C 47.75 -0.242188 47.15625 0 46.40625 0 L 37.09375 0 C 36.351562 0 35.675781 -0.160156 35.0625 -0.484375 C 34.457031 -0.816406 34.0625 -1.351562 33.875 -2.09375 L 30.65625 -13.515625 C 30.519531 -13.972656 30.34375 -14.285156 30.125 -14.453125 C 29.914062 -14.617188 29.675781 -14.703125 29.40625 -14.703125 L 28.765625 -14.703125 C 28.484375 -14.703125 28.238281 -14.617188 28.03125 -14.453125 C 27.820312 -14.285156 27.648438 -13.972656 27.515625 -13.515625 L 24.21875 -2.09375 C 24.03125 -1.394531 23.679688 -0.867188 23.171875 -0.515625 C 22.660156 -0.171875 22.03125 0 21.28125 0 L 12.046875 0 C 11.296875 0 10.648438 -0.234375 10.109375 -0.703125 C 9.578125 -1.171875 9.191406 -1.773438 8.953125 -2.515625 L 5.453125 -12.1875 C 4.847656 -13.90625 4.488281 -15.40625 4.375 -16.6875 C 4.257812 -17.976562 4.203125 -19.367188 4.203125 -20.859375 L 4.203125 -47.875 C 4.203125 -48.757812 4.398438 -49.398438 4.796875 -49.796875 C 5.191406 -50.203125 5.832031 -50.40625 6.71875 -50.40625 L 17.5 -50.40625 C 18.382812 -50.40625 19.023438 -50.203125 19.421875 -49.796875 C 19.816406 -49.398438 20.015625 -48.757812 20.015625 -47.875 L 20.015625 -22.125 L 24.078125 -30.9375 C 24.453125 -31.726562 24.941406 -32.285156 25.546875 -32.609375 C 26.148438 -32.941406 26.898438 -33.109375 27.796875 -33.109375 L 30.734375 -33.109375 C 31.617188 -33.109375 32.363281 -32.941406 32.96875 -32.609375 C 33.570312 -32.285156 34.0625 -31.726562 34.4375 -30.9375 L 38.5 -22.125 L 38.5 -47.875 C 38.5 -48.757812 38.695312 -49.398438 39.09375 -49.796875 C 39.488281 -50.203125 40.128906 -50.40625 41.015625 -50.40625 Z M 41.015625 -50.40625 "/></g></g></g><g fill="#ff00ff" fill-opacity="1"><g transform="translate(92.820552, 186.950729)"><g><path d="M 6.234375 0 C 5.347656 0 4.703125 -0.195312 4.296875 -0.59375 C 3.898438 -0.988281 3.703125 -1.628906 3.703125 -2.515625 L 3.703125 -10.84375 C 3.703125 -11.738281 3.898438 -12.382812 4.296875 -12.78125 C 4.703125 -13.175781 5.347656 -13.375 6.234375 -13.375 L 13.15625 -13.375 L 13.15625 -36.890625 L 6.234375 -36.890625 C 5.347656 -36.890625 4.703125 -37.085938 4.296875 -37.484375 C 3.898438 -37.878906 3.703125 -38.519531 3.703125 -39.40625 L 3.703125 -47.875 C 3.703125 -48.757812 3.898438 -49.398438 4.296875 -49.796875 C 4.703125 -50.203125 5.347656 -50.40625 6.234375 -50.40625 L 36.046875 -50.40625 C 36.929688 -50.40625 37.570312 -50.203125 37.96875 -49.796875 C 38.363281 -49.398438 38.5625 -48.757812 38.5625 -47.875 L 38.5625 -39.40625 C 38.5625 -38.519531 38.363281 -37.878906 37.96875 -37.484375 C 37.570312 -37.085938 36.929688 -36.890625 36.046875 -36.890625 L 29.265625 -36.890625 L 29.265625 -13.375 L 36.046875 -13.375 C 36.929688 -13.375 37.570312 -13.175781 37.96875 -12.78125 C 38.363281 -12.382812 38.5625 -11.738281 38.5625 -10.84375 L 38.5625 -2.515625 C 38.5625 -1.628906 38.363281 -0.988281 37.96875 -0.59375 C 37.570312 -0.195312 36.929688 0 36.046875 0 Z M 6.234375 0 "/></g></g></g><g fill="#ff00ff" fill-opacity="1"><g transform="translate(135.168233, 186.950729)"><g><path d="M 40.453125 0 L 5.734375 0 C 4.847656 0 4.207031 -0.195312 3.8125 -0.59375 C 3.414062 -0.988281 3.21875 -1.628906 3.21875 -2.515625 L 3.21875 -11.90625 C 3.21875 -12.789062 3.359375 -13.570312 3.640625 -14.25 C 3.921875 -14.925781 4.363281 -15.585938 4.96875 -16.234375 L 21.984375 -36.890625 L 7 -36.890625 C 6.113281 -36.890625 5.472656 -37.085938 5.078125 -37.484375 C 4.679688 -37.878906 4.484375 -38.519531 4.484375 -39.40625 L 4.484375 -47.875 C 4.484375 -48.757812 4.679688 -49.398438 5.078125 -49.796875 C 5.472656 -50.203125 6.113281 -50.40625 7 -50.40625 L 39.203125 -50.40625 C 40.085938 -50.40625 40.726562 -50.203125 41.125 -49.796875 C 41.519531 -49.398438 41.71875 -48.757812 41.71875 -47.875 L 41.71875 -37.453125 C 41.71875 -36.515625 41.578125 -35.707031 41.296875 -35.03125 C 41.015625 -34.351562 40.570312 -33.691406 39.96875 -33.046875 L 23.734375 -13.375 L 40.453125 -13.375 C 41.347656 -13.375 41.992188 -13.175781 42.390625 -12.78125 C 42.785156 -12.382812 42.984375 -11.738281 42.984375 -10.84375 L 42.984375 -2.515625 C 42.984375 -1.628906 42.785156 -0.988281 42.390625 -0.59375 C 41.992188 -0.195312 41.347656 0 40.453125 0 Z M 40.453125 0 "/></g></g></g><g fill="#ff00ff" fill-opacity="1"><g transform="translate(181.365707, 186.950729)"><g><path d="M 23.09375 -35.703125 L 19.8125 -25.0625 L 30.796875 -25.0625 L 27.515625 -35.703125 C 27.328125 -36.117188 27.125 -36.421875 26.90625 -36.609375 C 26.695312 -36.796875 26.457031 -36.890625 26.1875 -36.890625 L 24.4375 -36.890625 C 24.15625 -36.890625 23.90625 -36.796875 23.6875 -36.609375 C 23.476562 -36.421875 23.28125 -36.117188 23.09375 -35.703125 Z M 19.109375 -2.515625 C 19.109375 -1.628906 18.910156 -0.988281 18.515625 -0.59375 C 18.117188 -0.195312 17.476562 0 16.59375 0 L 6.296875 0 C 5.410156 0 4.769531 -0.195312 4.375 -0.59375 C 3.976562 -0.988281 3.78125 -1.628906 3.78125 -2.515625 L 3.78125 -21 C 3.78125 -22.394531 4 -24.003906 4.4375 -25.828125 C 4.882812 -27.648438 5.578125 -29.773438 6.515625 -32.203125 L 12.59375 -48.09375 C 12.875 -48.882812 13.304688 -49.46875 13.890625 -49.84375 C 14.472656 -50.21875 15.234375 -50.40625 16.171875 -50.40625 L 35 -50.40625 C 35.882812 -50.40625 36.617188 -50.21875 37.203125 -49.84375 C 37.785156 -49.46875 38.21875 -48.882812 38.5 -48.09375 L 44.59375 -32.203125 C 45.519531 -29.773438 46.203125 -27.648438 46.640625 -25.828125 C 47.085938 -24.003906 47.3125 -22.394531 47.3125 -21 L 47.3125 -2.515625 C 47.3125 -1.628906 47.113281 -0.988281 46.71875 -0.59375 C 46.320312 -0.195312 45.679688 0 44.796875 0 L 34.234375 0 C 33.296875 0 32.601562 -0.195312 32.15625 -0.59375 C 31.71875 -0.988281 31.5 -1.628906 31.5 -2.515625 L 31.5 -12.3125 L 19.109375 -12.3125 Z M 19.109375 -2.515625 "/></g></g></g><g fill="#ff00ff" fill-opacity="1"><g transform="translate(232.462922, 186.950729)"><g><path d="M 20.65625 -37.796875 L 20.65625 -28.84375 L 25.90625 -28.84375 C 27.113281 -28.84375 27.925781 -29.15625 28.34375 -29.78125 C 28.769531 -30.414062 28.984375 -31.195312 28.984375 -32.125 L 28.984375 -34.515625 C 28.984375 -35.441406 28.769531 -36.21875 28.34375 -36.84375 C 27.925781 -37.476562 27.113281 -37.796875 25.90625 -37.796875 Z M 18.125 0 L 7.34375 0 C 6.457031 0 5.816406 -0.195312 5.421875 -0.59375 C 5.023438 -0.988281 4.828125 -1.628906 4.828125 -2.515625 L 4.828125 -47.875 C 4.828125 -48.757812 5.023438 -49.398438 5.421875 -49.796875 C 5.816406 -50.203125 6.457031 -50.40625 7.34375 -50.40625 L 30.65625 -50.40625 C 35.882812 -50.40625 39.488281 -49.316406 41.46875 -47.140625 C 43.457031 -44.972656 44.453125 -42.160156 44.453125 -38.703125 L 44.453125 -35.484375 C 44.453125 -33.523438 44.160156 -31.859375 43.578125 -30.484375 C 42.992188 -29.109375 41.976562 -28.117188 40.53125 -27.515625 C 43.050781 -27.234375 45.09375 -26.203125 46.65625 -24.421875 C 48.21875 -22.648438 49 -20.296875 49 -17.359375 L 49 -2.515625 C 49 -1.628906 48.800781 -0.988281 48.40625 -0.59375 C 48.007812 -0.195312 47.367188 0 46.484375 0 L 35.625 0 C 34.738281 0 34.097656 -0.195312 33.703125 -0.59375 C 33.304688 -0.988281 33.109375 -1.628906 33.109375 -2.515625 L 33.109375 -13.234375 C 33.109375 -14.253906 32.910156 -15.007812 32.515625 -15.5 C 32.117188 -15.988281 31.429688 -16.234375 30.453125 -16.234375 L 20.65625 -16.234375 L 20.65625 -2.515625 C 20.65625 -1.628906 20.453125 -0.988281 20.046875 -0.59375 C 19.648438 -0.195312 19.007812 0 18.125 0 Z M 18.125 0 "/></g></g></g><g fill="#ff00ff" fill-opacity="1"><g transform="translate(284.470092, 186.950729)"><g><path d="M 30.9375 0 L 7.34375 0 C 6.457031 0 5.816406 -0.195312 5.421875 -0.59375 C 5.023438 -0.988281 4.828125 -1.628906 4.828125 -2.515625 L 4.828125 -47.875 C 4.828125 -48.757812 5.023438 -49.398438 5.421875 -49.796875 C 5.816406 -50.203125 6.457031 -50.40625 7.34375 -50.40625 L 30.9375 -50.40625 C 36.769531 -50.40625 41.097656 -49.238281 43.921875 -46.90625 C 46.742188 -44.570312 48.15625 -40.976562 48.15625 -36.125 L 48.15625 -14.28125 C 48.15625 -9.425781 46.742188 -5.832031 43.921875 -3.5 C 41.097656 -1.164062 36.769531 0 30.9375 0 Z M 20.71875 -37.03125 L 20.71875 -13.234375 L 29.046875 -13.234375 C 30.171875 -13.234375 31 -13.507812 31.53125 -14.0625 C 32.070312 -14.625 32.34375 -15.488281 32.34375 -16.65625 L 32.34375 -33.671875 C 32.34375 -34.835938 32.070312 -35.6875 31.53125 -36.21875 C 31 -36.757812 30.171875 -37.03125 29.046875 -37.03125 Z M 20.71875 -37.03125 "/></g></g></g><g fill="#00ffff" fill-opacity="1"><g transform="translate(38.301349, 183.549276)"><g><path d="M 41.015625 -50.40625 L 51.453125 -50.40625 C 52.335938 -50.40625 52.976562 -50.203125 53.375 -49.796875 C 53.769531 -49.398438 53.96875 -48.757812 53.96875 -47.875 L 53.96875 -20.71875 C 53.96875 -19.226562 53.910156 -17.835938 53.796875 -16.546875 C 53.679688 -15.265625 53.316406 -13.765625 52.703125 -12.046875 L 49.203125 -2.515625 C 48.972656 -1.816406 48.632812 -1.222656 48.1875 -0.734375 C 47.75 -0.242188 47.15625 0 46.40625 0 L 37.09375 0 C 36.351562 0 35.675781 -0.160156 35.0625 -0.484375 C 34.457031 -0.816406 34.0625 -1.351562 33.875 -2.09375 L 30.65625 -13.515625 C 30.519531 -13.972656 30.34375 -14.285156 30.125 -14.453125 C 29.914062 -14.617188 29.675781 -14.703125 29.40625 -14.703125 L 28.765625 -14.703125 C 28.484375 -14.703125 28.238281 -14.617188 28.03125 -14.453125 C 27.820312 -14.285156 27.648438 -13.972656 27.515625 -13.515625 L 24.21875 -2.09375 C 24.03125 -1.394531 23.679688 -0.867188 23.171875 -0.515625 C 22.660156 -0.171875 22.03125 0 21.28125 0 L 12.046875 0 C 11.296875 0 10.648438 -0.234375 10.109375 -0.703125 C 9.578125 -1.171875 9.191406 -1.773438 8.953125 -2.515625 L 5.453125 -12.1875 C 4.847656 -13.90625 4.488281 -15.40625 4.375 -16.6875 C 4.257812 -17.976562 4.203125 -19.367188 4.203125 -20.859375 L 4.203125 -47.875 C 4.203125 -48.757812 4.398438 -49.398438 4.796875 -49.796875 C 5.191406 -50.203125 5.832031 -50.40625 6.71875 -50.40625 L 17.5 -50.40625 C 18.382812 -50.40625 19.023438 -50.203125 19.421875 -49.796875 C 19.816406 -49.398438 20.015625 -48.757812 20.015625 -47.875 L 20.015625 -22.125 L 24.078125 -30.9375 C 24.453125 -31.726562 24.941406 -32.285156 25.546875 -32.609375 C 26.148438 -32.941406 26.898438 -33.109375 27.796875 -33.109375 L 30.734375 -33.109375 C 31.617188 -33.109375 32.363281 -32.941406 32.96875 -32.609375 C 33.570312 -32.285156 34.0625 -31.726562 34.4375 -30.9375 L 38.5 -22.125 L 38.5 -47.875 C 38.5 -48.757812 38.695312 -49.398438 39.09375 -49.796875 C 39.488281 -50.203125 40.128906 -50.40625 41.015625 -50.40625 Z M 41.015625 -50.40625 "/></g></g></g><g fill="#00ffff" fill-opacity="1"><g transform="translate(96.468174, 183.549276)"><g><path d="M 6.234375 0 C 5.347656 0 4.703125 -0.195312 4.296875 -0.59375 C 3.898438 -0.988281 3.703125 -1.628906 3.703125 -2.515625 L 3.703125 -10.84375 C 3.703125 -11.738281 3.898438 -12.382812 4.296875 -12.78125 C 4.703125 -13.175781 5.347656 -13.375 6.234375 -13.375 L 13.15625 -13.375 L 13.15625 -36.890625 L 6.234375 -36.890625 C 5.347656 -36.890625 4.703125 -37.085938 4.296875 -37.484375 C 3.898438 -37.878906 3.703125 -38.519531 3.703125 -39.40625 L 3.703125 -47.875 C 3.703125 -48.757812 3.898438 -49.398438 4.296875 -49.796875 C 4.703125 -50.203125 5.347656 -50.40625 6.234375 -50.40625 L 36.046875 -50.40625 C 36.929688 -50.40625 37.570312 -50.203125 37.96875 -49.796875 C 38.363281 -49.398438 38.5625 -48.757812 38.5625 -47.875 L 38.5625 -39.40625 C 38.5625 -38.519531 38.363281 -37.878906 37.96875 -37.484375 C 37.570312 -37.085938 36.929688 -36.890625 36.046875 -36.890625 L 29.265625 -36.890625 L 29.265625 -13.375 L 36.046875 -13.375 C 36.929688 -13.375 37.570312 -13.175781 37.96875 -12.78125 C 38.363281 -12.382812 38.5625 -11.738281 38.5625 -10.84375 L 38.5625 -2.515625 C 38.5625 -1.628906 38.363281 -0.988281 37.96875 -0.59375 C 37.570312 -0.195312 36.929688 0 36.046875 0 Z M 6.234375 0 "/></g></g></g><g fill="#00ffff" fill-opacity="1"><g transform="translate(138.815855, 183.549276)"><g><path d="M 40.453125 0 L 5.734375 0 C 4.847656 0 4.207031 -0.195312 3.8125 -0.59375 C 3.414062 -0.988281 3.21875 -1.628906 3.21875 -2.515625 L 3.21875 -11.90625 C 3.21875 -12.789062 3.359375 -13.570312 3.640625 -14.25 C 3.921875 -14.925781 4.363281 -15.585938 4.96875 -16.234375 L 21.984375 -36.890625 L 7 -36.890625 C 6.113281 -36.890625 5.472656 -37.085938 5.078125 -37.484375 C 4.679688 -37.878906 4.484375 -38.519531 4.484375 -39.40625 L 4.484375 -47.875 C 4.484375 -48.757812 4.679688 -49.398438 5.078125 -49.796875 C 5.472656 -50.203125 6.113281 -50.40625 7 -50.40625 L 39.203125 -50.40625 C 40.085938 -50.40625 40.726562 -50.203125 41.125 -49.796875 C 41.519531 -49.398438 41.71875 -48.757812 41.71875 -47.875 L 41.71875 -37.453125 C 41.71875 -36.515625 41.578125 -35.707031 41.296875 -35.03125 C 41.015625 -34.351562 40.570312 -33.691406 39.96875 -33.046875 L 23.734375 -13.375 L 40.453125 -13.375 C 41.347656 -13.375 41.992188 -13.175781 42.390625 -12.78125 C 42.785156 -12.382812 42.984375 -11.738281 42.984375 -10.84375 L 42.984375 -2.515625 C 42.984375 -1.628906 42.785156 -0.988281 42.390625 -0.59375 C 41.992188 -0.195312 41.347656 0 40.453125 0 Z M 40.453125 0 "/></g></g></g><g fill="#00ffff" fill-opacity="1"><g transform="translate(185.013329, 183.549276)"><g><path d="M 23.09375 -35.703125 L 19.8125 -25.0625 L 30.796875 -25.0625 L 27.515625 -35.703125 C 27.328125 -36.117188 27.125 -36.421875 26.90625 -36.609375 C 26.695312 -36.796875 26.457031 -36.890625 26.1875 -36.890625 L 24.4375 -36.890625 C 24.15625 -36.890625 23.90625 -36.796875 23.6875 -36.609375 C 23.476562 -36.421875 23.28125 -36.117188 23.09375 -35.703125 Z M 19.109375 -2.515625 C 19.109375 -1.628906 18.910156 -0.988281 18.515625 -0.59375 C 18.117188 -0.195312 17.476562 0 16.59375 0 L 6.296875 0 C 5.410156 0 4.769531 -0.195312 4.375 -0.59375 C 3.976562 -0.988281 3.78125 -1.628906 3.78125 -2.515625 L 3.78125 -21 C 3.78125 -22.394531 4 -24.003906 4.4375 -25.828125 C 4.882812 -27.648438 5.578125 -29.773438 6.515625 -32.203125 L 12.59375 -48.09375 C 12.875 -48.882812 13.304688 -49.46875 13.890625 -49.84375 C 14.472656 -50.21875 15.234375 -50.40625 16.171875 -50.40625 L 35 -50.40625 C 35.882812 -50.40625 36.617188 -50.21875 37.203125 -49.84375 C 37.785156 -49.46875 38.21875 -48.882812 38.5 -48.09375 L 44.59375 -32.203125 C 45.519531 -29.773438 46.203125 -27.648438 46.640625 -25.828125 C 47.085938 -24.003906 47.3125 -22.394531 47.3125 -21 L 47.3125 -2.515625 C 47.3125 -1.628906 47.113281 -0.988281 46.71875 -0.59375 C 46.320312 -0.195312 45.679688 0 44.796875 0 L 34.234375 0 C 33.296875 0 32.601562 -0.195312 32.15625 -0.59375 C 31.71875 -0.988281 31.5 -1.628906 31.5 -2.515625 L 31.5 -12.3125 L 19.109375 -12.3125 Z M 19.109375 -2.515625 "/></g></g></g><g fill="#00ffff" fill-opacity="1"><g transform="translate(236.110544, 183.549276)"><g><path d="M 20.65625 -37.796875 L 20.65625 -28.84375 L 25.90625 -28.84375 C 27.113281 -28.84375 27.925781 -29.15625 28.34375 -29.78125 C 28.769531 -30.414062 28.984375 -31.195312 28.984375 -32.125 L 28.984375 -34.515625 C 28.984375 -35.441406 28.769531 -36.21875 28.34375 -36.84375 C 27.925781 -37.476562 27.113281 -37.796875 25.90625 -37.796875 Z M 18.125 0 L 7.34375 0 C 6.457031 0 5.816406 -0.195312 5.421875 -0.59375 C 5.023438 -0.988281 4.828125 -1.628906 4.828125 -2.515625 L 4.828125 -47.875 C 4.828125 -48.757812 5.023438 -49.398438 5.421875 -49.796875 C 5.816406 -50.203125 6.457031 -50.40625 7.34375 -50.40625 L 30.65625 -50.40625 C 35.882812 -50.40625 39.488281 -49.316406 41.46875 -47.140625 C 43.457031 -44.972656 44.453125 -42.160156 44.453125 -38.703125 L 44.453125 -35.484375 C 44.453125 -33.523438 44.160156 -31.859375 43.578125 -30.484375 C 42.992188 -29.109375 41.976562 -28.117188 40.53125 -27.515625 C 43.050781 -27.234375 45.09375 -26.203125 46.65625 -24.421875 C 48.21875 -22.648438 49 -20.296875 49 -17.359375 L 49 -2.515625 C 49 -1.628906 48.800781 -0.988281 48.40625 -0.59375 C 48.007812 -0.195312 47.367188 0 46.484375 0 L 35.625 0 C 34.738281 0 34.097656 -0.195312 33.703125 -0.59375 C 33.304688 -0.988281 33.109375 -1.628906 33.109375 -2.515625 L 33.109375 -13.234375 C 33.109375 -14.253906 32.910156 -15.007812 32.515625 -15.5 C 32.117188 -15.988281 31.429688 -16.234375 30.453125 -16.234375 L 20.65625 -16.234375 L 20.65625 -2.515625 C 20.65625 -1.628906 20.453125 -0.988281 20.046875 -0.59375 C 19.648438 -0.195312 19.007812 0 18.125 0 Z M 18.125 0 "/></g></g></g><g fill="#00ffff" fill-opacity="1"><g transform="translate(288.117714, 183.549276)"><g><path d="M 30.9375 0 L 7.34375 0 C 6.457031 0 5.816406 -0.195312 5.421875 -0.59375 C 5.023438 -0.988281 4.828125 -1.628906 4.828125 -2.515625 L 4.828125 -47.875 C 4.828125 -48.757812 5.023438 -49.398438 5.421875 -49.796875 C 5.816406 -50.203125 6.457031 -50.40625 7.34375 -50.40625 L 30.9375 -50.40625 C 36.769531 -50.40625 41.097656 -49.238281 43.921875 -46.90625 C 46.742188 -44.570312 48.15625 -40.976562 48.15625 -36.125 L 48.15625 -14.28125 C 48.15625 -9.425781 46.742188 -5.832031 43.921875 -3.5 C 41.097656 -1.164062 36.769531 0 30.9375 0 Z M 20.71875 -37.03125 L 20.71875 -13.234375 L 29.046875 -13.234375 C 30.171875 -13.234375 31 -13.507812 31.53125 -14.0625 C 32.070312 -14.625 32.34375 -15.488281 32.34375 -16.65625 L 32.34375 -33.671875 C 32.34375 -34.835938 32.070312 -35.6875 31.53125 -36.21875 C 31 -36.757812 30.171875 -37.03125 29.046875 -37.03125 Z M 20.71875 -37.03125 "/></g></g></g><g fill="#5e4893" fill-opacity="1"><g transform="translate(36.477538, 185.250002)"><g><path d="M 41.015625 -50.40625 L 51.453125 -50.40625 C 52.335938 -50.40625 52.976562 -50.203125 53.375 -49.796875 C 53.769531 -49.398438 53.96875 -48.757812 53.96875 -47.875 L 53.96875 -20.71875 C 53.96875 -19.226562 53.910156 -17.835938 53.796875 -16.546875 C 53.679688 -15.265625 53.316406 -13.765625 52.703125 -12.046875 L 49.203125 -2.515625 C 48.972656 -1.816406 48.632812 -1.222656 48.1875 -0.734375 C 47.75 -0.242188 47.15625 0 46.40625 0 L 37.09375 0 C 36.351562 0 35.675781 -0.160156 35.0625 -0.484375 C 34.457031 -0.816406 34.0625 -1.351562 33.875 -2.09375 L 30.65625 -13.515625 C 30.519531 -13.972656 30.34375 -14.285156 30.125 -14.453125 C 29.914062 -14.617188 29.675781 -14.703125 29.40625 -14.703125 L 28.765625 -14.703125 C 28.484375 -14.703125 28.238281 -14.617188 28.03125 -14.453125 C 27.820312 -14.285156 27.648438 -13.972656 27.515625 -13.515625 L 24.21875 -2.09375 C 24.03125 -1.394531 23.679688 -0.867188 23.171875 -0.515625 C 22.660156 -0.171875 22.03125 0 21.28125 0 L 12.046875 0 C 11.296875 0 10.648438 -0.234375 10.109375 -0.703125 C 9.578125 -1.171875 9.191406 -1.773438 8.953125 -2.515625 L 5.453125 -12.1875 C 4.847656 -13.90625 4.488281 -15.40625 4.375 -16.6875 C 4.257812 -17.976562 4.203125 -19.367188 4.203125 -20.859375 L 4.203125 -47.875 C 4.203125 -48.757812 4.398438 -49.398438 4.796875 -49.796875 C 5.191406 -50.203125 5.832031 -50.40625 6.71875 -50.40625 L 17.5 -50.40625 C 18.382812 -50.40625 19.023438 -50.203125 19.421875 -49.796875 C 19.816406 -49.398438 20.015625 -48.757812 20.015625 -47.875 L 20.015625 -22.125 L 24.078125 -30.9375 C 24.453125 -31.726562 24.941406 -32.285156 25.546875 -32.609375 C 26.148438 -32.941406 26.898438 -33.109375 27.796875 -33.109375 L 30.734375 -33.109375 C 31.617188 -33.109375 32.363281 -32.941406 32.96875 -32.609375 C 33.570312 -32.285156 34.0625 -31.726562 34.4375 -30.9375 L 38.5 -22.125 L 38.5 -47.875 C 38.5 -48.757812 38.695312 -49.398438 39.09375 -49.796875 C 39.488281 -50.203125 40.128906 -50.40625 41.015625 -50.40625 Z M 41.015625 -50.40625 "/></g></g></g><g fill="#5e4893" fill-opacity="1"><g transform="translate(94.644363, 185.250002)"><g><path d="M 6.234375 0 C 5.347656 0 4.703125 -0.195312 4.296875 -0.59375 C 3.898438 -0.988281 3.703125 -1.628906 3.703125 -2.515625 L 3.703125 -10.84375 C 3.703125 -11.738281 3.898438 -12.382812 4.296875 -12.78125 C 4.703125 -13.175781 5.347656 -13.375 6.234375 -13.375 L 13.15625 -13.375 L 13.15625 -36.890625 L 6.234375 -36.890625 C 5.347656 -36.890625 4.703125 -37.085938 4.296875 -37.484375 C 3.898438 -37.878906 3.703125 -38.519531 3.703125 -39.40625 L 3.703125 -47.875 C 3.703125 -48.757812 3.898438 -49.398438 4.296875 -49.796875 C 4.703125 -50.203125 5.347656 -50.40625 6.234375 -50.40625 L 36.046875 -50.40625 C 36.929688 -50.40625 37.570312 -50.203125 37.96875 -49.796875 C 38.363281 -49.398438 38.5625 -48.757812 38.5625 -47.875 L 38.5625 -39.40625 C 38.5625 -38.519531 38.363281 -37.878906 37.96875 -37.484375 C 37.570312 -37.085938 36.929688 -36.890625 36.046875 -36.890625 L 29.265625 -36.890625 L 29.265625 -13.375 L 36.046875 -13.375 C 36.929688 -13.375 37.570312 -13.175781 37.96875 -12.78125 C 38.363281 -12.382812 38.5625 -11.738281 38.5625 -10.84375 L 38.5625 -2.515625 C 38.5625 -1.628906 38.363281 -0.988281 37.96875 -0.59375 C 37.570312 -0.195312 36.929688 0 36.046875 0 Z M 6.234375 0 "/></g></g></g><g fill="#5e4893" fill-opacity="1"><g transform="translate(136.992044, 185.250002)"><g><path d="M 40.453125 0 L 5.734375 0 C 4.847656 0 4.207031 -0.195312 3.8125 -0.59375 C 3.414062 -0.988281 3.21875 -1.628906 3.21875 -2.515625 L 3.21875 -11.90625 C 3.21875 -12.789062 3.359375 -13.570312 3.640625 -14.25 C 3.921875 -14.925781 4.363281 -15.585938 4.96875 -16.234375 L 21.984375 -36.890625 L 7 -36.890625 C 6.113281 -36.890625 5.472656 -37.085938 5.078125 -37.484375 C 4.679688 -37.878906 4.484375 -38.519531 4.484375 -39.40625 L 4.484375 -47.875 C 4.484375 -48.757812 4.679688 -49.398438 5.078125 -49.796875 C 5.472656 -50.203125 6.113281 -50.40625 7 -50.40625 L 39.203125 -50.40625 C 40.085938 -50.40625 40.726562 -50.203125 41.125 -49.796875 C 41.519531 -49.398438 41.71875 -48.757812 41.71875 -47.875 L 41.71875 -37.453125 C 41.71875 -36.515625 41.578125 -35.707031 41.296875 -35.03125 C 41.015625 -34.351562 40.570312 -33.691406 39.96875 -33.046875 L 23.734375 -13.375 L 40.453125 -13.375 C 41.347656 -13.375 41.992188 -13.175781 42.390625 -12.78125 C 42.785156 -12.382812 42.984375 -11.738281 42.984375 -10.84375 L 42.984375 -2.515625 C 42.984375 -1.628906 42.785156 -0.988281 42.390625 -0.59375 C 41.992188 -0.195312 41.347656 0 40.453125 0 Z M 40.453125 0 "/></g></g></g><g fill="#5e4893" fill-opacity="1"><g transform="translate(183.189518, 185.250002)"><g><path d="M 23.09375 -35.703125 L 19.8125 -25.0625 L 30.796875 -25.0625 L 27.515625 -35.703125 C 27.328125 -36.117188 27.125 -36.421875 26.90625 -36.609375 C 26.695312 -36.796875 26.457031 -36.890625 26.1875 -36.890625 L 24.4375 -36.890625 C 24.15625 -36.890625 23.90625 -36.796875 23.6875 -36.609375 C 23.476562 -36.421875 23.28125 -36.117188 23.09375 -35.703125 Z M 19.109375 -2.515625 C 19.109375 -1.628906 18.910156 -0.988281 18.515625 -0.59375 C 18.117188 -0.195312 17.476562 0 16.59375 0 L 6.296875 0 C 5.410156 0 4.769531 -0.195312 4.375 -0.59375 C 3.976562 -0.988281 3.78125 -1.628906 3.78125 -2.515625 L 3.78125 -21 C 3.78125 -22.394531 4 -24.003906 4.4375 -25.828125 C 4.882812 -27.648438 5.578125 -29.773438 6.515625 -32.203125 L 12.59375 -48.09375 C 12.875 -48.882812 13.304688 -49.46875 13.890625 -49.84375 C 14.472656 -50.21875 15.234375 -50.40625 16.171875 -50.40625 L 35 -50.40625 C 35.882812 -50.40625 36.617188 -50.21875 37.203125 -49.84375 C 37.785156 -49.46875 38.21875 -48.882812 38.5 -48.09375 L 44.59375 -32.203125 C 45.519531 -29.773438 46.203125 -27.648438 46.640625 -25.828125 C 47.085938 -24.003906 47.3125 -22.394531 47.3125 -21 L 47.3125 -2.515625 C 47.3125 -1.628906 47.113281 -0.988281 46.71875 -0.59375 C 46.320312 -0.195312 45.679688 0 44.796875 0 L 34.234375 0 C 33.296875 0 32.601562 -0.195312 32.15625 -0.59375 C 31.71875 -0.988281 31.5 -1.628906 31.5 -2.515625 L 31.5 -12.3125 L 19.109375 -12.3125 Z M 19.109375 -2.515625 "/></g></g></g><g fill="#5e4893" fill-opacity="1"><g transform="translate(234.286733, 185.250002)"><g><path d="M 20.65625 -37.796875 L 20.65625 -28.84375 L 25.90625 -28.84375 C 27.113281 -28.84375 27.925781 -29.15625 28.34375 -29.78125 C 28.769531 -30.414062 28.984375 -31.195312 28.984375 -32.125 L 28.984375 -34.515625 C 28.984375 -35.441406 28.769531 -36.21875 28.34375 -36.84375 C 27.925781 -37.476562 27.113281 -37.796875 25.90625 -37.796875 Z M 18.125 0 L 7.34375 0 C 6.457031 0 5.816406 -0.195312 5.421875 -0.59375 C 5.023438 -0.988281 4.828125 -1.628906 4.828125 -2.515625 L 4.828125 -47.875 C 4.828125 -48.757812 5.023438 -49.398438 5.421875 -49.796875 C 5.816406 -50.203125 6.457031 -50.40625 7.34375 -50.40625 L 30.65625 -50.40625 C 35.882812 -50.40625 39.488281 -49.316406 41.46875 -47.140625 C 43.457031 -44.972656 44.453125 -42.160156 44.453125 -38.703125 L 44.453125 -35.484375 C 44.453125 -33.523438 44.160156 -31.859375 43.578125 -30.484375 C 42.992188 -29.109375 41.976562 -28.117188 40.53125 -27.515625 C 43.050781 -27.234375 45.09375 -26.203125 46.65625 -24.421875 C 48.21875 -22.648438 49 -20.296875 49 -17.359375 L 49 -2.515625 C 49 -1.628906 48.800781 -0.988281 48.40625 -0.59375 C 48.007812 -0.195312 47.367188 0 46.484375 0 L 35.625 0 C 34.738281 0 34.097656 -0.195312 33.703125 -0.59375 C 33.304688 -0.988281 33.109375 -1.628906 33.109375 -2.515625 L 33.109375 -13.234375 C 33.109375 -14.253906 32.910156 -15.007812 32.515625 -15.5 C 32.117188 -15.988281 31.429688 -16.234375 30.453125 -16.234375 L 20.65625 -16.234375 L 20.65625 -2.515625 C 20.65625 -1.628906 20.453125 -0.988281 20.046875 -0.59375 C 19.648438 -0.195312 19.007812 0 18.125 0 Z M 18.125 0 "/></g></g></g><g fill="#5e4893" fill-opacity="1"><g transform="translate(286.293903, 185.250002)"><g><path d="M 30.9375 0 L 7.34375 0 C 6.457031 0 5.816406 -0.195312 5.421875 -0.59375 C 5.023438 -0.988281 4.828125 -1.628906 4.828125 -2.515625 L 4.828125 -47.875 C 4.828125 -48.757812 5.023438 -49.398438 5.421875 -49.796875 C 5.816406 -50.203125 6.457031 -50.40625 7.34375 -50.40625 L 30.9375 -50.40625 C 36.769531 -50.40625 41.097656 -49.238281 43.921875 -46.90625 C 46.742188 -44.570312 48.15625 -40.976562 48.15625 -36.125 L 48.15625 -14.28125 C 48.15625 -9.425781 46.742188 -5.832031 43.921875 -3.5 C 41.097656 -1.164062 36.769531 0 30.9375 0 Z M 20.71875 -37.03125 L 20.71875 -13.234375 L 29.046875 -13.234375 C 30.171875 -13.234375 31 -13.507812 31.53125 -14.0625 C 32.070312 -14.625 32.34375 -15.488281 32.34375 -16.65625 L 32.34375 -33.671875 C 32.34375 -34.835938 32.070312 -35.6875 31.53125 -36.21875 C 31 -36.757812 30.171875 -37.03125 29.046875 -37.03125 Z M 20.71875 -37.03125 "/></g></g></g></svg>